<svg xmlns="http://www.w3.org/2000/svg" width="100" height="100" viewBox="0 0 40 40" stroke-linejoin="round" fill="#579A60"><path d="M20 40C9 40 0 31 0 20S9 0 20 0c4.5 0 8.7 1.5 12.3 4.2.4.3.5 1 .2 1.4-.3.4-1 .5-1.4.2C27.9 3.3 24 2 20 2 10.1 2 2 10.1 2 20s8.1 18 18 18 18-8.1 18-18c0-3.2-.9-6.4-2.5-9.2-.3-.5-.1-1.1.3-1.4.5-.3 1.1-.1 1.4.3C39 12.9 40 16.4 40 20c0 11-9 20-20 20z"/><path d="M28.4 12.4 16.5 24.3l-4.9-4.9c-.6-.6-1.6-.6-2.1 0-.6.6-.6 1.6 0 2.2l5.9 6c.3.3.7.5 1.1.4.4 0 .8-.1 1.1-.4l12.9-13c.6-.6.6-1.6 0-2.1-.6-.6-1.6-.6-2.1 0z"/></svg>