<svg xmlns="http://www.w3.org/2000/svg" width="100" height="100" viewBox="0 0 40 40" stroke-linejoin="round"><circle cx="20" cy="20" r="19" fill="#fc4d36"/><path d="M28.1 26.8c.4.4.4 1 0 1.4-.2.2-.5.3-.7.3-.2 0-.5-.1-.7-.3l-6.8-6.8-6.8 6.8c-.2.2-.5.3-.7.3-.2 0-.5-.1-.7-.3-.4-.4-.4-1 0-1.4l6.8-6.8-6.8-6.8c-.4-.4-.4-1 0-1.4.4-.4 1-.4 1.4 0l6.8 6.8 6.8-6.8c.4-.4 1-.4 1.4 0 .4.4.4 1 0 1.4L21.3 20l6.8 6.8z" fill="#ffe9e6"/><path d="M19.9 40c-11 0-20-9-20-20s9-20 20-20c4.5 0 8.7 1.5 12.3 4.2.4.3.5 1 .2 1.4-.3.4-1 .5-1.4.2C27.8 3.3 24 2 20 2 10.1 2 2 10.1 2 20s8.1 18 18 18 18-8.1 18-18c0-3.2-.9-6.4-2.5-9.2-.3-.5-.1-1.1.3-1.4.5-.3 1.1-.1 1.4.3C39 12.8 40 16.3 40 19.9 39.9 31 30.9 40 19.9 40z" fill="#640d02"/></svg>