<svg xmlns="http://www.w3.org/2000/svg" width="100" height="100" viewBox="0 0 800 600" stroke-linejoin="round"><style>.a,.c{fill:#2f4858}.c{font-family:&apos;JosefinSans-BoldItalic&apos;,&apos;Josefin Sans&apos;;font-size:30px;font-style:italic;font-weight:700}</style><path d="M524.7 486.7c-46.2 31-298.1-93.4-302.3-149.3-4.2-55.9 226.7-211 277.1-186.1 50.4 24.9 71.4 304.4 25.2 335.4z" fill="#fdefce"/><path d="M639.2 336c.5 2.9 2.6 5.1 5.6 5.6.4.1.7.1 1.1.1 2.5 0 4.7-1.4 5.9-3.7l5.4-10.7 11.9 1.9c2.9.5 5.7-.9 7-3.6 1.3-2.6.9-5.7-1.2-7.8l-8.5-8.5 5.5-10.7c1.3-2.6.9-5.7-1.2-7.8-2.1-2.1-5.1-2.6-7.8-1.2l-10.7 5.5-8.5-8.5c-2.1-2.1-5.1-2.6-7.8-1.2-2.6 1.3-4 4.1-3.6 7l1.9 11.9-10.7 5.5c-2.6 1.3-4 4.1-3.6 7 .5 2.9 2.6 5.1 5.6 5.6l11.9 1.9 1.9 11.8zm.2-26.8c1.3-.7 2-2.1 1.8-3.5l-2.3-14.2 10.1 10.1c1 1 2.6 1.3 3.9.6l12.7-6.5-6.5 12.7c-.7 1.3-.4 2.9.6 3.9l10.2 10.2-14.1-2.3c-1.4-.2-2.9.5-3.5 1.8l-6.4 12.7-2.2-14.1c-.2-1.4-1.4-2.6-2.8-2.8l-14.2-2.2 12.8-6.5zm1.5 113.4c-7.1 0-12.8 5.7-12.8 12.8 0 7.1 5.7 12.8 12.8 12.8 7.1 0 12.8-5.7 12.8-12.8 0-7.1-5.7-12.8-12.8-12.8zm0 18.9c-3.3 0-6.1-2.7-6.1-6.1 0-3.3 2.7-6.1 6.1-6.1 3.3 0 6.1 2.7 6.1 6.1 0 3.3-2.7 6.1-6.1 6.1zm25.2-74.1c-5.9 0-10.7 4.8-10.7 10.7 0 5.9 4.8 10.7 10.7 10.7 5.9 0 10.7-4.8 10.7-10.7 0-5.9-4.8-10.7-10.7-10.7zm0 14.6c-2.2 0-4-1.8-4-4s1.8-4 4-4 4 1.8 4 4-1.8 4-4 4zm-148.9-71.8c7.1 0 12.8-5.7 12.8-12.8 0-7.1-5.7-12.8-12.8-12.8-7.1 0-12.8 5.7-12.8 12.8 0 7.1 5.7 12.8 12.8 12.8zm0-18.9c3.3 0 6.1 2.7 6.1 6.1 0 3.3-2.7 6.1-6.1 6.1-3.3 0-6.1-2.7-6.1-6.1 0-3.3 2.7-6.1 6.1-6.1zm103 62.6c-1.9 0-3.4 1.5-3.4 3.4v4.5c0 1.9 1.5 3.4 3.4 3.4s3.4-1.5 3.4-3.4v-4.5c0-1.9-1.5-3.4-3.4-3.4zm0 22.5c-1.9 0-3.4 1.5-3.4 3.4v4.5c0 1.9 1.5 3.4 3.4 3.4s3.4-1.5 3.4-3.4v-4.5c0-1.9-1.5-3.4-3.4-3.4zm13.5-2.3c1.9 0 3.4-1.5 3.4-3.4s-1.5-3.4-3.4-3.4h-4.5c-1.9 0-3.4 1.5-3.4 3.4s1.5 3.4 3.4 3.4h4.5zm-30.3-3.3c0 1.9 1.5 3.4 3.4 3.4h4.5c1.9 0 3.4-1.5 3.4-3.4s-1.5-3.4-3.4-3.4h-4.5c-1.9 0-3.4 1.5-3.4 3.4zm14.5 34.1c-6.7 0-12.2 5.5-12.2 12.2 0 3-2.5 5.5-5.5 5.5-1.9 0-3.4 1.5-3.4 3.4s1.5 3.4 3.4 3.4c6.7 0 12.2-5.5 12.2-12.2 0-3 2.5-5.5 5.5-5.5 1.9 0 3.4-1.5 3.4-3.4s-1.5-3.4-3.4-3.4z" class="a"/><path d="M591.4 309.5c.9 0 1.8-.4 2.4-1 .6-.6 1-1.5 1-2.4 0-.9-.4-1.8-1-2.4-.6-.6-1.5-1-2.4-1-.9 0-1.8.4-2.4 1-.6.6-1 1.5-1 2.4 0 .9.4 1.8 1 2.4.6.6 1.5 1 2.4 1z"/><path d="M546.4 400.8c.3.1.5.1.8.1 1.6 0 3-1.1 3.3-2.7l3.3-14.8c.4-1.9-.7-3.7-2.6-4.1-1.8-.4-3.7.7-4.1 2.6l-3.3 14.8c-.4 1.9.7 3.7 2.6 4.1zm-16.2-4.7c.7 1 1.8 1.6 2.9 1.6.6 0 1.3-.2 1.8-.5 1.6-1 2.1-3.1 1.1-4.7l-8.1-12.8c-1-1.6-3.1-2.1-4.7-1.1s-2.1 3.1-1.1 4.7l8.1 12.8zm31 8c.6 0 1.3-.2 1.8-.5l12.8-8.1c1.6-1 2.1-3.1 1.1-4.7s-3.1-2.1-4.7-1.1l-12.8 8.1c-1.6 1-2.1 3.1-1.1 4.7.7 1 1.8 1.6 2.9 1.6zm42.6 123.1-21.7-9.4-7-26c9-3.4 16.6-10.3 20.8-19.1 4.1-8.6 4.4-18 .8-26.6 0-.1-.2-.6-.3-.7l-14.9-33.5c-.7-1.5-2.4-2.4-4-1.9l-32.8 8.8.5-4.9c.2-1.7-.9-3.2-2.5-3.7l-10.7-3c-1.8-.5-3.7.6-4.2 2.4-.5 1.8.6 3.7 2.4 4.2l7.9 2.2-1.5 14.2c-9.7-4.5-22.5-4-31.4 1.7-7.1 4.6-18.5 4.7-26.2.5l12.8-28.7 8.7 2.3c1.8.5 3.7-.6 4.2-2.4.5-1.8-.6-3.7-2.4-4.2l-11.5-3.1c-1.6-.4-3.3.4-4 1.9l-14.9 33.5c-3.9 8.7-3.7 18.4.5 27.3 4.2 8.8 11.8 15.8 20.8 19.1l-7 26-21.7 9.4c-3.9 1.7-6.3 5.5-6 9.6.3 4.1 3.2 7.4 7.6 8.7h.1l30.4 8.1h.1c1 .3 2 .4 3 .4 3.3 0 6.2-1.4 7.9-4.1 2.3-3.4 2.1-8-.4-11.3l-14.1-19 7-26c2 .3 4.1.5 6.1.5 7.6 0 15.2-2.3 21.5-6.6.6-.4 1.1-.8 1.6-1.2 2.5 6.4 7.1 11.9 13.3 15.7 6 3.8 13.2 5.7 20.2 5.7 2 0 4-.2 6-.5l7 26-14.1 19c-2.5 3.4-2.7 7.9-.4 11.3 1.8 2.6 4.6 4.1 7.9 4.1 1 0 1.9-.1 3-.4h.1l30.4-8.2h.1c4.4-1.3 7.3-4.6 7.6-8.7.3-4.1-2.2-7.9-6-9.6zm-60-101.1 32.5-8.7 12.8 28.7c-7.7 4.2-19 4.1-26.2-.5-5.6-3.6-13.2-5.2-20.7-4.5l1.6-15zm-42.2 106.4c-.8 1.3-2.5 1.1-3.5.8l-30.3-8.1c-.9-.3-2.5-1-2.6-2.5-.1-1 .5-2.3 1.9-2.9l20.8-8.9 13.5 18.2c.9 1.2.8 2.6.2 3.4zm21.8-64.4c-7.2 5-16.9 6.7-25.3 4.4-8.4-2.2-15.9-8.6-19.7-16.5-2.6-5.5-3.3-11.5-1.9-17.1 4.6 2.3 9.9 3.5 15.2 3.5 6.1 0 12.2-1.5 17.1-4.7 7.4-4.7 19.2-4.7 26.9-.1l-1.2 12c-.8 7.5-4.7 14-11.1 18.4zm22.5 14.4c-5.8-3.6-9.8-9-11.5-15.2 3.9-4.8 6.3-10.6 7-16.9l.2-2.3c6.4-1 13 .2 17.7 3.2 4.9 3.1 11 4.7 17.1 4.7 5.3 0 10.7-1.2 15.2-3.5 1.4 5.6.7 11.6-1.9 17.1-3.8 7.9-11.3 14.3-19.7 16.5-8 2.1-17 .8-24.2-3.7zm54.5 56.4-30.3 8.1c-1 .2-2.6.4-3.5-.8-.5-.8-.7-2.2.2-3.4l13.5-18.2 20.8 9c1.4.6 2 1.9 1.9 2.8-.1 1.5-1.7 2.2-2.6 2.5z" class="a"/><path d="M515.7 410c1.9 0 3.4-1.5 3.4-3.4s-1.5-3.4-3.4-3.4-3.4 1.5-3.4 3.4 1.5 3.4 3.4 3.4zM148.8 288.3v67.2c0 2.1 1.7 3.7 3.7 3.7 2.1 0 3.7-1.7 3.7-3.7V292H289v132.8h-63.9c-2.1 0-3.7 1.7-3.7 3.7 0 2.1 1.7 3.7 3.7 3.7h67.6c2.1 0 3.7-1.7 3.7-3.7V288.3c0-2.1-1.7-3.7-3.7-3.7H152.5c-2.1 0-3.7 1.7-3.7 3.7z" class="a"/><path d="M148.8 428.5c0 2.1 1.7 3.7 3.7 3.7h51.4c2.1 0 3.7-1.7 3.7-3.7v-51.4c0-2.1-1.7-3.7-3.7-3.7h-51.4c-2.1 0-3.7 1.7-3.7 3.7v51.4zm7.4-47.7h44v44h-44v-44zm62.5-55.2c-2.1 0-3.7 1.7-3.7 3.7v33c0 2.1 1.7 3.7 3.7 3.7h33c2.1 0 3.7-1.7 3.7-3.7 0-2.1-1.7-3.7-3.7-3.7h-24.1l41.9-41.9c1.4-1.4 1.4-3.8 0-5.2-1.4-1.4-3.8-1.4-5.2 0l-41.9 41.9v-24.1c0-2.1-1.7-3.7-3.7-3.7zM640.3 80.1c-.1-.1-21.6-20.6-21.6-20.6-.8-.8-1.7-1.6-3.3-1.6h-86.6c-2.5 0-4.6 2.1-4.6 4.6v14.1l-30.5 5.2c-2.4.4-4.1 2.8-3.7 5.2l1.5 9c-9.9 3.3-20.1 6.8-29.9 10.3-2.3.9-3.5 3.4-2.7 5.8l19.6 54.4c.4 1.1 1.4 1.8 2.5 1.8.3 0 .6-.1.9-.2 1.4-.5 2.1-2 1.6-3.4l-19.3-53.6c9.3-3.3 18.9-6.6 28.2-9.7l9.2 53.7 10.6 61.9c.4 2.2 2.3 3.7 4.5 3.7.2 0 .5 0 .7-.1l28.7-4.9 22.4-3.8-33.8 12.1-26.6 9.6-20.7-57.5c-.5-1.4-2-2.1-3.4-1.6s-2.1 2-1.6 3.4l21 58.3c.7 1.8 2.4 3 4.2 3 .5 0 1-.1 1.5-.3l27.4-9.9 62.3-22.4 11.9-2H637c2.5 0 4.6-2.1 4.6-4.6V83c0-1.6-.9-2.4-1.5-3zm-7.1.6h-13.7c-.6 0-2.1 0-2.5-.4-.1-.1-.2-.4-.2-.9V64.9l16.5 15.7zm3.2 118.6H529.6V147c0-1.5-1.2-2.7-2.7-2.7-1.5 0-2.7 1.2-2.7 2.7v53.1c0 2.5 2.1 4.6 4.6 4.6h50.4l-33.8 5.8-27.9 4.8-10.5-61L495.5 87l28.8-4.9v52.6c0 1.5 1.2 2.7 2.7 2.7 1.5 0 2.7-1.2 2.7-2.7V63.4h81.7v16.2c0 2 .6 3.6 1.8 4.7 1.8 1.8 4.4 1.9 6 1.9h17.4v113.2z" class="a"/><path d="M602 77.2c-1.5 0-2.7 1.2-2.7 2.7 0 1.5 1.2 2.7 2.7 2.7h19.2c1.5 0 2.7-1.2 2.7-2.7 0-1.5-1.2-2.7-2.7-2.7H602z" class="a"/><path d="M624 79.9c0-1.5-1.2-2.7-2.7-2.7-1.5 0-2.7 1.2-2.7 2.7v18.7c0 1.5 1.2 2.7 2.7 2.7 1.5 0 2.7-1.2 2.7-2.7V79.9zm-19.3 0c0-1.5-1.2-2.7-2.7-2.7-1.5 0-2.7 1.2-2.7 2.7v18.7c0 1.5 1.2 2.7 2.7 2.7 1.5 0 2.7-1.2 2.7-2.7V79.9zm-8.9 0c0-1.5-1.2-2.7-2.7-2.7-1.5 0-2.7 1.2-2.7 2.7v18.7c0 1.5 1.2 2.7 2.7 2.7 1.5 0 2.7-1.2 2.7-2.7V79.9zm-47.2 0c0-1.5-1.2-2.7-2.7-2.7-1.5 0-2.7 1.2-2.7 2.7v18.7c0 1.5 1.2 2.7 2.7 2.7 1.5 0 2.7-1.2 2.7-2.7V79.9z" class="a"/><path d="M545.9 77.2c-1.5 0-2.7 1.2-2.7 2.7 0 1.5 1.2 2.7 2.7 2.7h47.3c1.5 0 2.7-1.2 2.7-2.7 0-1.5-1.2-2.7-2.7-2.7h-47.3zM602 95.9c-1.5 0-2.7 1.2-2.7 2.7 0 1.5 1.2 2.7 2.7 2.7h19.2c1.5 0 2.7-1.2 2.7-2.7 0-1.5-1.2-2.7-2.7-2.7H602zm-56.1 0c-1.5 0-2.7 1.2-2.7 2.7 0 1.5 1.2 2.7 2.7 2.7h47.3c1.5 0 2.7-1.2 2.7-2.7 0-1.5-1.2-2.7-2.7-2.7h-47.3zm19.3 55.9c1.5 0 2.7 1.2 2.7 2.7 0 1.5-1.2 2.7-2.7 2.7H546c-1.5 0-2.7-1.2-2.7-2.7 0-1.5 1.2-2.7 2.7-2.7h19.2z" class="a"/><path d="M543.2 154.5c0-1.5 1.2-2.7 2.7-2.7 1.5 0 2.7 1.2 2.7 2.7v18.7c0 1.5-1.2 2.7-2.7 2.7-1.5 0-2.7-1.2-2.7-2.7v-18.7zm19.3 0c0-1.5 1.2-2.7 2.7-2.7 1.5 0 2.7 1.2 2.7 2.7v18.7c0 1.5-1.2 2.7-2.7 2.7-1.5 0-2.7-1.2-2.7-2.7v-18.7zm8.8 0c0-1.5 1.2-2.7 2.7-2.7 1.5 0 2.7 1.2 2.7 2.7v18.7c0 1.5-1.2 2.7-2.7 2.7-1.5 0-2.7-1.2-2.7-2.7v-18.7zm47.3 0c0-1.5 1.2-2.7 2.7-2.7 1.5 0 2.7 1.2 2.7 2.7v18.7c0 1.5-1.2 2.7-2.7 2.7-1.5 0-2.7-1.2-2.7-2.7v-18.7z" class="a"/><path d="M621.3 151.8c1.5 0 2.7 1.2 2.7 2.7 0 1.5-1.2 2.7-2.7 2.7H574c-1.5 0-2.7-1.2-2.7-2.7 0-1.5 1.2-2.7 2.7-2.7h47.3zm-56.1 18.7c1.5 0 2.7 1.2 2.7 2.7 0 1.5-1.2 2.7-2.7 2.7H546c-1.5 0-2.7-1.2-2.7-2.7 0-1.5 1.2-2.7 2.7-2.7h19.2zm56.1 0c1.5 0 2.7 1.2 2.7 2.7 0 1.5-1.2 2.7-2.7 2.7H574c-1.5 0-2.7-1.2-2.7-2.7 0-1.5 1.2-2.7 2.7-2.7h47.3zm2.7-53.2c0-1.5-1.2-2.7-2.7-2.7-1.5 0-2.7 1.2-2.7 2.7V136c0 1.5 1.2 2.7 2.7 2.7 1.5 0 2.7-1.2 2.7-2.7v-18.7zm-75.3 0c0-1.5-1.2-2.7-2.7-2.7-1.5 0-2.7 1.2-2.7 2.7V136c0 1.5 1.2 2.7 2.7 2.7 1.5 0 2.7-1.2 2.7-2.7v-18.7z" class="a"/><path d="M545.9 114.6c-1.5 0-2.7 1.2-2.7 2.7 0 1.5 1.2 2.7 2.7 2.7h75.4c1.5 0 2.7-1.2 2.7-2.7 0-1.5-1.2-2.7-2.7-2.7h-75.4zm0 18.7c-1.5 0-2.7 1.2-2.7 2.7 0 1.5 1.2 2.7 2.7 2.7h75.4c1.5 0 2.7-1.2 2.7-2.7 0-1.5-1.2-2.7-2.7-2.7h-75.4zM258.4 38.5c0-1.1-.9-1.9-1.9-1.9-1.1 0-1.9.9-1.9 1.9v52c0 1.1.9 1.9 1.9 1.9 1.1 0 1.9-.9 1.9-1.9v-52zm0 60.6c0-1.1-.9-1.9-1.9-1.9-1.1 0-1.9.9-1.9 1.9v38.7c0 1.1.9 1.9 1.9 1.9 1.1 0 1.9-.9 1.9-1.9V99.1zm0 46.1c0-1.1-.9-1.9-1.9-1.9-1.1 0-1.9.9-1.9 1.9v113.1c0 1.1.9 1.9 1.9 1.9 1.1 0 1.9-.9 1.9-1.9V145.2z" class="a"/><path d="M256.5 256.7c-1.1 0-1.9.9-1.9 1.9 0 1.1.9 1.9 1.9 1.9h78.8c1.1 0 1.9-.9 1.9-1.9 0-1.1-.9-1.9-1.9-1.9h-78.8zm0-220.1c-1.1 0-1.9.9-1.9 1.9 0 1.1.9 1.9 1.9 1.9h62.2c1.1 0 1.9-.9 1.9-1.9 0-1.1-.9-1.9-1.9-1.9h-62.2z" class="a"/><path d="M320.3 37.1c-.8-.7-2-.7-2.7.1-.7.8-.7 2 .1 2.7l16.4 15.6c.8.7 2 .7 2.7-.1.7-.8.7-2-.1-2.7l-16.4-15.6z" class="a"/><path d="M317.8 52.6c-1.1 0-1.9.9-1.9 1.9 0 1.1.9 1.9 1.9 1.9h17.6c1.1 0 1.9-.9 1.9-1.9 0-1.1-.9-1.9-1.9-1.9h-17.6z" class="a"/><path d="M319.6 40.4c0-1.1-.9-1.9-1.9-1.9-1.1 0-1.9.9-1.9 1.9v14.1c0 1.1.9 1.9 1.9 1.9 1.1 0 1.9-.9 1.9-1.9V40.4zm17.7 13.7c0-1.1-.9-1.9-1.9-1.9-1.1 0-1.9.9-1.9 1.9v204.2c0 1.1.9 1.9 1.9 1.9 1.1 0 1.9-.9 1.9-1.9V54.1zm-27.9 9.8c-1.1 0-1.9.9-1.9 1.9 0 1.1.9 1.9 1.9 1.9h13.8c1.1 0 1.9-.9 1.9-1.9 0-1.1-.9-1.9-1.9-1.9h-13.8z" class="a"/><path d="M325.1 65.9c0-1.1-.9-1.9-1.9-1.9-1.1 0-1.9.9-1.9 1.9v13.4c0 1.1.9 1.9 1.9 1.9 1.1 0 1.9-.9 1.9-1.9V65.9zm-13.8 0c0-1.1-.9-1.9-1.9-1.9-1.1 0-1.9.9-1.9 1.9v13.4c0 1.1.9 1.9 1.9 1.9 1.1 0 1.9-.9 1.9-1.9V65.9zm-6.3 0c0-1.1-.9-1.9-1.9-1.9-1.1 0-1.9.9-1.9 1.9v13.4c0 1.1.9 1.9 1.9 1.9 1.1 0 1.9-.9 1.9-1.9V65.9zm-33.8 0c0-1.1-.9-1.9-1.9-1.9-1.1 0-1.9.9-1.9 1.9v13.4c0 1.1.9 1.9 1.9 1.9 1.1 0 1.9-.9 1.9-1.9V65.9z" class="a"/><path d="M269.3 63.9c-1.1 0-1.9.9-1.9 1.9 0 1.1.9 1.9 1.9 1.9h33.8c1.1 0 1.9-.9 1.9-1.9 0-1.1-.9-1.9-1.9-1.9h-33.8zm40.1 13.4c-1.1 0-1.9.9-1.9 1.9 0 1.1.9 1.9 1.9 1.9h13.8c1.1 0 1.9-.9 1.9-1.9 0-1.1-.9-1.9-1.9-1.9h-13.8zm-40.1 0c-1.1 0-1.9.9-1.9 1.9 0 1.1.9 1.9 1.9 1.9h33.8c1.1 0 1.9-.9 1.9-1.9 0-1.1-.9-1.9-1.9-1.9h-33.8zm13.8 40c1.1 0 1.9.9 1.9 1.9 0 1.1-.9 1.9-1.9 1.9h-13.8c-1.1 0-1.9-.9-1.9-1.9 0-1.1.9-1.9 1.9-1.9h13.8z" class="a"/><path d="M267.4 119.2c0-1.1.9-1.9 1.9-1.9 1.1 0 1.9.9 1.9 1.9v13.4c0 1.1-.9 1.9-1.9 1.9-1.1 0-1.9-.9-1.9-1.9v-13.4zm13.7 0c0-1.1.9-1.9 1.9-1.9 1.1 0 1.9.9 1.9 1.9v13.4c0 1.1-.9 1.9-1.9 1.9-1.1 0-1.9-.9-1.9-1.9v-13.4zm6.4 0c0-1.1.9-1.9 1.9-1.9 1.1 0 1.9.9 1.9 1.9v13.4c0 1.1-.9 1.9-1.9 1.9-1.1 0-1.9-.9-1.9-1.9v-13.4zm33.8 0c0-1.1.9-1.9 1.9-1.9 1.1 0 1.9.9 1.9 1.9v13.4c0 1.1-.9 1.9-1.9 1.9-1.1 0-1.9-.9-1.9-1.9v-13.4z" class="a"/><path d="M323.2 117.3c1.1 0 1.9.9 1.9 1.9 0 1.1-.9 1.9-1.9 1.9h-33.8c-1.1 0-1.9-.9-1.9-1.9 0-1.1.9-1.9 1.9-1.9h33.8zm-40.1 13.4c1.1 0 1.9.9 1.9 1.9 0 1.1-.9 1.9-1.9 1.9h-13.8c-1.1 0-1.9-.9-1.9-1.9 0-1.1.9-1.9 1.9-1.9h13.8zm40.1 0c1.1 0 1.9.9 1.9 1.9 0 1.1-.9 1.9-1.9 1.9h-33.8c-1.1 0-1.9-.9-1.9-1.9 0-1.1.9-1.9 1.9-1.9h33.8zM309.4 144c-1.1 0-1.9.9-1.9 1.9 0 1.1.9 1.9 1.9 1.9h13.8c1.1 0 1.9-.9 1.9-1.9 0-1.1-.9-1.9-1.9-1.9h-13.8z" class="a"/><path d="M325.1 145.9c0-1.1-.9-1.9-1.9-1.9-1.1 0-1.9.9-1.9 1.9v26.7c0 1.1.9 1.9 1.9 1.9 1.1 0 1.9-.9 1.9-1.9v-26.7zm0 40.2c0-1.1-.9-1.9-1.9-1.9-1.1 0-1.9.9-1.9 1.9v26.5c0 1.1.9 1.9 1.9 1.9 1.1 0 1.9-.9 1.9-1.9v-26.5zm-53.9 0c0-1.1-.9-1.9-1.9-1.9-1.1 0-1.9.9-1.9 1.9v26.5c0 1.1.9 1.9 1.9 1.9 1.1 0 1.9-.9 1.9-1.9v-26.5zm40.1-40.2c0-1.1-.9-1.9-1.9-1.9-1.1 0-1.9.9-1.9 1.9v26.7c0 1.1.9 1.9 1.9 1.9 1.1 0 1.9-.9 1.9-1.9v-26.7zm-6.3 0c0-1.1-.9-1.9-1.9-1.9-1.1 0-1.9.9-1.9 1.9v13.4c0 1.1.9 1.9 1.9 1.9 1.1 0 1.9-.9 1.9-1.9v-13.4zm-33.8 0c0-1.1-.9-1.9-1.9-1.9-1.1 0-1.9.9-1.9 1.9v13.4c0 1.1.9 1.9 1.9 1.9 1.1 0 1.9-.9 1.9-1.9v-13.4z" class="a"/><path d="M269.3 144c-1.1 0-1.9.9-1.9 1.9 0 1.1.9 1.9 1.9 1.9h33.8c1.1 0 1.9-.9 1.9-1.9 0-1.1-.9-1.9-1.9-1.9h-33.8zm40.1 26.7c-1.1 0-1.9.9-1.9 1.9 0 1.1.9 1.9 1.9 1.9h13.8c1.1 0 1.9-.9 1.9-1.9 0-1.1-.9-1.9-1.9-1.9h-13.8zm-40.1-13.4c-1.1 0-1.9.9-1.9 1.9 0 1.1.9 1.9 1.9 1.9h33.8c1.1 0 1.9-.9 1.9-1.9 0-1.1-.9-1.9-1.9-1.9h-33.8zm55.8-64.7c0-1.1-.9-1.9-1.9-1.9-1.1 0-1.9.9-1.9 1.9V106c0 1.1.9 1.9 1.9 1.9 1.1 0 1.9-.9 1.9-1.9V92.6zm0 133.4c0-1.1-.9-1.9-1.9-1.9-1.1 0-1.9.9-1.9 1.9v13.4c0 1.1.9 1.9 1.9 1.9 1.1 0 1.9-.9 1.9-1.9V226zM271.3 92.6c0-1.1-.9-1.9-1.9-1.9-1.1 0-1.9.9-1.9 1.9V106c0 1.1.9 1.9 1.9 1.9 1.1 0 1.9-.9 1.9-1.9V92.6zm0 133.4c0-1.1-.9-1.9-1.9-1.9-1.1 0-1.9.9-1.9 1.9v13.4c0 1.1.9 1.9 1.9 1.9 1.1 0 1.9-.9 1.9-1.9V226z" class="a"/><path d="M269.3 90.7c-1.1 0-1.9.9-1.9 1.9 0 1.1.9 1.9 1.9 1.9h53.9c1.1 0 1.9-.9 1.9-1.9 0-1.1-.9-1.9-1.9-1.9h-53.9zm0 13.4c-1.1 0-1.9.9-1.9 1.9 0 1.1.9 1.9 1.9 1.9h53.9c1.1 0 1.9-.9 1.9-1.9 0-1.1-.9-1.9-1.9-1.9h-53.9zm.5 79.9c-1.1 0-1.9.9-1.9 1.9 0 1.1.9 1.9 1.9 1.9h53.4c1.1 0 1.9-.9 1.9-1.9 0-1.1-.9-1.9-1.9-1.9h-53.4zm.2 26.6c-1.1 0-1.9.9-1.9 1.9 0 1.1.9 1.9 1.9 1.9h53.2c1.1 0 1.9-.9 1.9-1.9 0-1.1-.9-1.9-1.9-1.9H270zm0 13.3c-1.1 0-1.9.9-1.9 1.9 0 1.1.9 1.9 1.9 1.9h53.2c1.1 0 1.9-.9 1.9-1.9 0-1.1-.9-1.9-1.9-1.9H270zm.1 13.6c-1.1 0-1.9.9-1.9 1.9 0 1.1.9 1.9 1.9 1.9h53.1c1.1 0 1.9-.9 1.9-1.9 0-1.1-.9-1.9-1.9-1.9h-53.1zm156.3-42c1.4 0 2.8-.6 3.9-1.6l13.4-13.4c1.6-1.6 2.4-3.6 2.4-5.8 0-2.2-.9-4.3-2.4-5.8l-13.4-13.4c-1.6-1.6-3.9-2-6-1.2-2.1.9-3.4 2.8-3.4 5.1V172c-21.8 0-39.5-17.7-39.5-39.5v-4.4c0-1.5-1.2-2.7-2.7-2.7-1.5 0-2.7 1.2-2.7 2.7v4.4c0 12 4.7 23.3 13.2 31.8s19.8 13.2 31.8 13.2c3 0 5.5-2.5 5.5-5.5v-12.6l13.4 13.4c.5.5.8 1.2.8 1.9s-.3 1.4-.8 1.9L426.5 190v-3c0-1.5-1.2-2.7-2.7-2.7-1.5 0-2.7 1.2-2.7 2.7v3c0 2.2 1.3 4.2 3.4 5.1.7.3 1.4.4 2.1.4z" class="a"/><path d="M489 38 355.4 81.2l6.5 29.1 133.6-43.2L489 38zM196.2 227.7 62.6 270.9l6.5 29.1 133.6-43.2-6.5-29.1zm242.9 272-133.6 43.2L312 572l133.6-43.2-6.5-29.1z" style="fill:#fd8b7c"/><text x="363.4" y="84" class="c">  DIVIDE</text><text x="292.8" y="546.1" class="c">  PUBLISH</text><text x="29" y="274.6" class="c">  OPTIMIZE</text></svg>