<svg viewBox="0 0 800 600" xmlns="http://www.w3.org/2000/svg" xml:space="preserve" style="fill-rule:evenodd;clip-rule:evenodd;stroke-linejoin:round;stroke-miterlimit:1.41421"><path d="M524.659 486.71c-46.181 31.017-298.109-93.425-302.312-149.331-4.204-55.905 226.705-210.991 277.09-186.102 50.386 24.888 71.405 304.415 25.222 335.433z" style="fill:#fdefce"/><path d="M639.173 335.974c.462 2.917 2.645 5.097 5.562 5.555a7.06 7.06 0 0 0 1.087.085c2.496 0 4.742-1.365 5.907-3.668l5.413-10.697 11.883 1.894c2.915.465 5.661-.934 7.001-3.56 1.34-2.627.859-5.673-1.227-7.758l-8.544-8.544 5.464-10.706c1.342-2.631.859-5.678-1.232-7.764-2.091-2.086-5.139-2.562-7.767-1.213l-10.67 5.478-8.515-8.516c-2.088-2.087-5.135-2.568-7.764-1.223-2.628 1.344-4.023 4.096-3.552 7.011l1.92 11.895-10.744 5.463c-2.631 1.337-4.032 4.085-3.57 7 .463 2.914 2.645 5.093 5.561 5.551l11.913 1.871 1.874 11.846zm.207-26.842a3.367 3.367 0 0 0 1.798-3.538l-2.283-14.151 10.129 10.128a3.366 3.366 0 0 0 3.918.615l12.702-6.519-6.498 12.733a3.366 3.366 0 0 0 .618 3.911l10.153 10.156-14.14-2.254a3.368 3.368 0 0 0-3.534 1.805l-6.446 12.735-2.23-14.097a3.367 3.367 0 0 0-2.803-2.8l-14.165-2.226 12.781-6.498zm1.476 113.492c-7.054 0-12.793 5.739-12.793 12.793 0 7.054 5.739 12.793 12.793 12.793 7.054 0 12.793-5.739 12.793-12.793 0-7.054-5.738-12.793-12.793-12.793zm0 18.853a6.068 6.068 0 0 1-6.06-6.06 6.068 6.068 0 0 1 6.06-6.06 6.067 6.067 0 0 1 6.06 6.06 6.067 6.067 0 0 1-6.06 6.06zm25.225-74.066c-5.893 0-10.687 4.794-10.687 10.687 0 5.892 4.794 10.686 10.687 10.686 5.892 0 10.686-4.794 10.686-10.686 0-5.893-4.794-10.687-10.686-10.687zm0 14.64a3.957 3.957 0 0 1-3.953-3.953 3.957 3.957 0 0 1 3.953-3.953 3.958 3.958 0 0 1 3.953 3.953 3.958 3.958 0 0 1-3.953 3.953zm-148.892-71.872c7.054 0 12.793-5.739 12.793-12.793 0-7.054-5.739-12.793-12.793-12.793-7.054 0-12.793 5.739-12.793 12.793 0 7.054 5.739 12.793 12.793 12.793zm0-18.853a6.066 6.066 0 0 1 6.06 6.06 6.067 6.067 0 0 1-6.06 6.06 6.068 6.068 0 0 1-6.06-6.06 6.067 6.067 0 0 1 6.06-6.06zm103.019 62.619a3.367 3.367 0 0 0-3.367 3.367v4.489a3.367 3.367 0 0 0 6.733 0v-4.489a3.366 3.366 0 0 0-3.366-3.367zm0 22.444a3.367 3.367 0 0 0-3.367 3.367v4.488a3.367 3.367 0 0 0 6.733 0v-4.488a3.366 3.366 0 0 0-3.366-3.367zm13.466-2.244a3.367 3.367 0 0 0 0-6.734h-4.489a3.367 3.367 0 0 0 0 6.734h4.489zm-30.299-3.367a3.367 3.367 0 0 0 3.366 3.367h4.489a3.368 3.368 0 0 0 0-6.734h-4.489a3.367 3.367 0 0 0-3.366 3.367zm14.479 34.11c-6.746 0-12.235 5.489-12.235 12.235a5.508 5.508 0 0 1-5.502 5.501 3.366 3.366 0 0 0 0 6.733c6.747 0 12.235-5.488 12.235-12.234a5.508 5.508 0 0 1 5.502-5.502 3.366 3.366 0 1 0 0-6.733z" style="fill:#2f4858;fill-rule:nonzero"/><path d="M591.376 309.506c.886 0 1.754-.361 2.38-.987a3.393 3.393 0 0 0 .987-2.38 3.39 3.39 0 0 0-.987-2.38 3.386 3.386 0 0 0-2.38-.987c-.885 0-1.754.361-2.38.987a3.393 3.393 0 0 0-.987 2.38c0 .885.361 1.754.987 2.38a3.393 3.393 0 0 0 2.38.987z" style="fill-rule:nonzero"/><path d="M546.383 400.809a3.435 3.435 0 0 0 4.102-2.597l3.319-14.752a3.437 3.437 0 0 0-2.594-4.107 3.43 3.43 0 0 0-4.102 2.597l-3.319 14.751a3.437 3.437 0 0 0 2.594 4.108zm-16.175-4.681a3.429 3.429 0 0 0 4.735 1.069 3.44 3.44 0 0 0 1.067-4.742l-8.063-12.776a3.43 3.43 0 0 0-4.735-1.07 3.44 3.44 0 0 0-1.067 4.741l8.063 12.778zm30.96 7.93c.627 0 1.261-.172 1.831-.532l12.769-8.085a3.44 3.44 0 0 0 1.067-4.741 3.429 3.429 0 0 0-4.735-1.068l-12.769 8.084a3.44 3.44 0 0 0 1.837 6.342zm42.595 123.135-21.733-9.371-6.967-26.046c8.992-3.364 16.629-10.318 20.82-19.121 4.099-8.608 4.375-18.01.801-26.567a60.034 60.034 0 0 0-.318-.74l-14.94-33.462a3.43 3.43 0 0 0-4.021-1.916l-32.837 8.809.504-4.868a3.436 3.436 0 0 0-2.502-3.667l-10.749-2.966a3.43 3.43 0 0 0-4.22 2.4 3.438 3.438 0 0 0 2.397 4.226l7.947 2.193-1.467 14.173c-9.746-4.475-22.542-3.997-31.366 1.673-7.148 4.594-18.511 4.669-26.193.493l12.827-28.719 8.665 2.326a3.437 3.437 0 0 0 1.777-6.639l-11.492-3.085a3.43 3.43 0 0 0-4.021 1.916l-14.95 33.473c-3.902 8.747-3.729 18.441.486 27.296 4.192 8.805 11.832 15.764 20.827 19.13l-6.967 26.046-21.736 9.362c-3.871 1.672-6.297 5.535-6.037 9.613.26 4.073 3.164 7.391 7.579 8.661l.06.016 30.383 8.145.054.014c1.01.253 2.005.377 2.967.377 3.287 0 6.182-1.442 7.931-4.07 2.264-3.4 2.092-7.96-.428-11.347l-14.143-18.991 6.967-26.045c2.011.338 4.05.506 6.092.506 7.573 0 15.176-2.292 21.498-6.646a34.696 34.696 0 0 0 1.619-1.186c2.54 6.399 7.139 11.862 13.33 15.723 6.035 3.763 13.163 5.734 20.209 5.734 2.022 0 4.036-.164 6.016-.493L575.4 519.6l-14.143 18.992c-2.522 3.387-2.698 7.947-.437 11.347 1.75 2.633 4.648 4.077 7.939 4.077.958 0 1.949-.122 2.954-.373l.059-.015 30.383-8.154.057-.016c4.424-1.27 7.332-4.592 7.59-8.669.257-4.076-2.171-7.933-6.039-9.596zm-59.952-101.096 32.544-8.73 12.82 28.715c-7.679 4.178-19.041 4.101-26.195-.497-5.623-3.617-13.245-5.21-20.723-4.47l1.554-15.018zm-42.25 106.39c-.846 1.272-2.542 1.079-3.496.844l-30.32-8.128c-.941-.275-2.499-.959-2.597-2.485-.061-.956.509-2.26 1.903-2.863l20.772-8.947 13.517 18.151c.908 1.219.751 2.632.221 3.428zm21.808-64.374c-7.239 4.985-16.924 6.685-25.282 4.434h-.001l-.001-.001h-.001c-8.357-2.236-15.897-8.558-19.677-16.5-2.637-5.539-3.274-11.478-1.912-17.121 4.581 2.312 9.916 3.485 15.235 3.485 6.119-.001 12.212-1.548 17.09-4.682 7.369-4.737 19.216-4.674 26.898-.103l-1.247 12.046c-.774 7.494-4.716 14.043-11.102 18.442zm22.467 14.365c-5.808-3.622-9.838-8.984-11.493-15.219 3.895-4.796 6.304-10.57 6.955-16.881l.233-2.251c6.412-.963 13.031.212 17.741 3.242 4.883 3.138 10.978 4.686 17.1 4.686 5.316 0 10.65-1.173 15.227-3.483 1.363 5.645.727 11.585-1.911 17.125-3.78 7.939-11.315 14.256-19.672 16.49h-.001l-.001.001-.003.001c-7.968 2.147-17.005.76-24.175-3.711zm54.51 56.365-30.319 8.138c-.953.233-2.648.423-3.493-.85-.53-.796-.685-2.209.225-3.43l13.517-18.152 20.775 8.958c1.392.598 1.96 1.896 1.9 2.848-.096 1.528-1.661 2.213-2.605 2.488z" style="fill:#2f4858;fill-rule:nonzero"/><path d="M515.733 410.029a3.433 3.433 0 0 0 3.432-3.436 3.434 3.434 0 0 0-3.432-3.437h-.02a3.426 3.426 0 0 0-3.422 3.437 3.443 3.443 0 0 0 3.442 3.436zM148.81 288.294v67.231a3.71 3.71 0 0 0 3.712 3.712 3.71 3.71 0 0 0 3.712-3.712v-63.549h132.833v132.833h-63.942a3.709 3.709 0 0 0-3.712 3.711 3.71 3.71 0 0 0 3.712 3.712h67.593a3.71 3.71 0 0 0 3.712-3.712V288.294a3.71 3.71 0 0 0-3.712-3.712H152.522a3.71 3.71 0 0 0-3.712 3.712z" style="fill:#2f4858;fill-rule:nonzero"/><path d="M148.81 428.49a3.71 3.71 0 0 0 3.712 3.712h51.389a3.71 3.71 0 0 0 3.712-3.712v-51.389a3.71 3.71 0 0 0-3.712-3.712h-51.389a3.71 3.71 0 0 0-3.712 3.712v51.389zm7.393-47.707h44.027v44.026h-44.027v-44.026zm62.464-55.192a3.71 3.71 0 0 0-3.712 3.712v33.042a3.71 3.71 0 0 0 3.712 3.712h33.042a3.71 3.71 0 0 0 3.712-3.712 3.709 3.709 0 0 0-3.712-3.711h-24.11l41.854-41.854a3.68 3.68 0 0 0 0-5.22 3.679 3.679 0 0 0-5.221 0l-41.853 41.853v-24.11a3.71 3.71 0 0 0-3.712-3.712zM640.338 80.139l-21.62-20.617c-.823-.79-1.673-1.605-3.261-1.605h-86.605a4.593 4.593 0 0 0-4.587 4.587v14.087l-30.524 5.233a4.52 4.52 0 0 0-3.668 5.214l1.549 9.033c-9.921 3.339-20.107 6.78-29.94 10.312a4.542 4.542 0 0 0-2.714 5.771l19.56 54.375a2.684 2.684 0 0 0 3.432 1.616 2.682 2.682 0 0 0 1.617-3.432l-19.271-53.571c9.264-3.317 18.858-6.563 28.234-9.719l9.218 53.741 10.607 61.892c.383 2.185 2.304 3.74 4.471 3.74.246 0 .495-.02.744-.061l28.729-4.931 22.449-3.848-33.763 12.136-26.625 9.573-20.678-57.513a2.683 2.683 0 1 0-5.048 1.815l20.97 58.33a4.532 4.532 0 0 0 4.245 2.975c.508 0 1.023-.087 1.526-.271l27.424-9.86 62.272-22.382 11.897-2.039h26.28c2.529 0 4.587-2.063 4.587-4.598V83.162c.001-1.606-.871-2.425-1.507-3.023zm-7.107.635h-13.424l-.333.002c-.643.004-2.148.015-2.529-.364-.088-.087-.191-.38-.191-.923l-.031-14.457 16.508 15.742zm3.249 118.58H529.63v-52.283a2.683 2.683 0 1 0-5.365 0v53.05c0 2.535 2.058 4.598 4.587 4.598h50.368l-33.818 5.797-27.894 4.787-10.462-61.046-11.542-67.292 28.76-4.93v52.588a2.683 2.683 0 1 0 5.366 0V63.282h81.723l.035 16.213c0 1.965.598 3.554 1.777 4.725 1.811 1.798 4.371 1.923 5.96 1.923l.387-.002 16.968-.001v113.214z" style="fill:#2f4858;fill-rule:nonzero"/><path d="M602.033 77.216a2.673 2.673 0 0 0 0 5.344h19.245a2.673 2.673 0 0 0 0-5.344h-19.245z" style="fill:#2f4858"/><path d="M623.95 79.888a2.673 2.673 0 0 0-5.343 0v18.716a2.673 2.673 0 0 0 5.343 0V79.888zm-19.245 0a2.673 2.673 0 0 0-5.344 0v18.716a2.673 2.673 0 0 0 5.344 0V79.888zm-8.856 0a2.673 2.673 0 0 0-5.344 0v18.716a2.673 2.673 0 0 0 5.344 0V79.888zm-47.266 0a2.673 2.673 0 0 0-5.344 0v18.716a2.673 2.673 0 0 0 5.344 0V79.888z" style="fill:#2f4858"/><path d="M545.911 77.216a2.674 2.674 0 0 0-2.672 2.672 2.674 2.674 0 0 0 2.672 2.672h47.266a2.673 2.673 0 0 0 0-5.344h-47.266zm56.122 18.717a2.673 2.673 0 0 0 0 5.343h19.245a2.673 2.673 0 0 0 0-5.343h-19.245zm-56.122 0a2.673 2.673 0 0 0-2.672 2.671 2.674 2.674 0 0 0 2.672 2.672h47.266a2.673 2.673 0 0 0 0-5.343h-47.266zm19.246 55.89a2.674 2.674 0 0 1 2.672 2.672 2.674 2.674 0 0 1-2.672 2.672h-19.246a2.674 2.674 0 0 1-2.672-2.672 2.674 2.674 0 0 1 2.672-2.672h19.246z" style="fill:#2f4858"/><path d="M543.239 154.495a2.673 2.673 0 0 1 5.344 0v18.716a2.673 2.673 0 0 1-5.344 0v-18.716zm19.246 0a2.673 2.673 0 0 1 5.344 0v18.716a2.673 2.673 0 0 1-5.344 0v-18.716zm8.856 0a2.673 2.673 0 0 1 5.344 0v18.716a2.673 2.673 0 0 1-5.344 0v-18.716zm47.266 0a2.673 2.673 0 0 1 5.343 0v18.716a2.673 2.673 0 0 1-5.343 0v-18.716z" style="fill:#2f4858"/><path d="M621.278 151.823a2.673 2.673 0 0 1 0 5.344h-47.265a2.673 2.673 0 0 1 0-5.344h47.265zm-56.121 18.717a2.673 2.673 0 0 1 2.672 2.671 2.674 2.674 0 0 1-2.672 2.672h-19.246a2.674 2.674 0 0 1-2.672-2.672 2.673 2.673 0 0 1 2.672-2.671h19.246zm56.121 0a2.673 2.673 0 0 1 0 5.343h-47.265a2.673 2.673 0 0 1 0-5.343h47.265zm2.672-53.219a2.673 2.673 0 0 0-5.343 0v18.716a2.672 2.672 0 0 0 5.343 0v-18.716zm-75.25 0a2.673 2.673 0 0 0-5.344 0v18.716a2.673 2.673 0 0 0 5.344 0v-18.716z" style="fill:#2f4858"/><path d="M545.911 114.649a2.674 2.674 0 0 0-2.672 2.672 2.673 2.673 0 0 0 2.672 2.671h75.367a2.673 2.673 0 0 0 0-5.343h-75.367zm0 18.642a2.673 2.673 0 0 0-2.672 2.671 2.674 2.674 0 0 0 2.672 2.672h75.367a2.673 2.673 0 0 0 0-5.343h-75.367zM258.427 38.455a1.912 1.912 0 0 0-1.911-1.911c-1.054 0-1.91.857-1.91 1.911v51.989a1.911 1.911 0 0 0 3.821 0V38.455zm0 60.626a1.912 1.912 0 0 0-1.911-1.911c-1.054 0-1.91.857-1.91 1.911v38.67c0 1.054.856 1.911 1.91 1.911a1.912 1.912 0 0 0 1.911-1.911v-38.67zm0 46.158a1.912 1.912 0 0 0-3.821 0V258.34a1.911 1.911 0 0 0 3.821 0V145.239z" style="fill:#2f4858"/><path d="M256.516 256.68a1.912 1.912 0 0 0 0 3.822h78.777a1.911 1.911 0 0 0 0-3.822h-78.777zm0-220.11a1.912 1.912 0 0 0 0 3.822h62.232a1.912 1.912 0 0 0 0-3.822h-62.232z" style="fill:#2f4858"/><path d="M320.313 37.089a1.912 1.912 0 0 0-2.636 2.768l16.358 15.573a1.91 1.91 0 1 0 2.635-2.768l-16.357-15.573z" style="fill:#2f4858"/><path d="M317.803 52.628a1.911 1.911 0 0 0 0 3.822h17.561a1.912 1.912 0 0 0 0-3.822h-17.561z" style="fill:#2f4858"/><path d="M319.557 40.392a1.912 1.912 0 0 0-3.822 0v14.147a1.912 1.912 0 0 0 3.822 0V40.392zm17.718 13.729a1.912 1.912 0 0 0-3.822 0V258.34a1.912 1.912 0 0 0 3.822 0V54.121zm-27.841 9.824a1.912 1.912 0 0 0 0 3.822h13.765a1.912 1.912 0 0 0 0-3.822h-13.765z" style="fill:#2f4858"/><path d="M325.11 65.856a1.912 1.912 0 0 0-3.822 0v13.387a1.912 1.912 0 0 0 3.822 0V65.856zm-13.765 0a1.912 1.912 0 0 0-3.822 0v13.387a1.912 1.912 0 0 0 3.822 0V65.856zm-6.335 0a1.912 1.912 0 0 0-3.822 0v13.387a1.912 1.912 0 0 0 3.822 0V65.856zm-33.807 0a1.912 1.912 0 0 0-3.822 0v13.387a1.912 1.912 0 0 0 3.822 0V65.856z" style="fill:#2f4858"/><path d="M269.292 63.945a1.912 1.912 0 0 0 0 3.822h33.807a1.912 1.912 0 0 0 0-3.822h-33.807zm40.142 13.388a1.911 1.911 0 0 0 0 3.821h13.765a1.912 1.912 0 0 0 0-3.821h-13.765zm-40.142 0a1.912 1.912 0 0 0-1.911 1.91c0 1.055.857 1.911 1.911 1.911h33.807a1.912 1.912 0 0 0 0-3.821h-33.807zm13.766 39.976a1.912 1.912 0 0 1 0 3.822h-13.766a1.912 1.912 0 0 1 0-3.822h13.766z" style="fill:#2f4858"/><path d="M267.381 119.22a1.912 1.912 0 0 1 3.822 0v13.387a1.912 1.912 0 0 1-3.822 0V119.22zm13.766 0a1.912 1.912 0 0 1 3.822 0v13.387a1.912 1.912 0 0 1-3.822 0V119.22zm6.334 0a1.912 1.912 0 0 1 3.822 0v13.387a1.912 1.912 0 0 1-3.822 0V119.22zm33.807 0a1.912 1.912 0 0 1 3.822 0v13.387a1.912 1.912 0 0 1-3.822 0V119.22z" style="fill:#2f4858"/><path d="M323.199 117.309a1.912 1.912 0 0 1 0 3.822h-33.807a1.912 1.912 0 0 1 0-3.822h33.807zm-40.141 13.387a1.912 1.912 0 0 1 0 3.822h-13.766a1.912 1.912 0 0 1 0-3.822h13.766zm40.141 0a1.912 1.912 0 0 1 0 3.822h-33.807a1.912 1.912 0 0 1 0-3.822h33.807zm-13.765 13.255a1.912 1.912 0 0 0 0 3.822h13.765a1.912 1.912 0 0 0 0-3.822h-13.765z" style="fill:#2f4858"/><path d="M325.11 145.862a1.912 1.912 0 0 0-3.822 0v26.708a1.912 1.912 0 0 0 3.822 0v-26.708zm0 40.2a1.912 1.912 0 0 0-3.822 0v26.472a1.912 1.912 0 0 0 3.822 0v-26.472zm-53.907 0a1.912 1.912 0 0 0-3.822 0v26.472a1.912 1.912 0 0 0 3.822 0v-26.472zm40.142-40.2a1.912 1.912 0 0 0-3.822 0v26.708a1.912 1.912 0 0 0 3.822 0v-26.708zm-6.335 0a1.912 1.912 0 0 0-3.822 0v13.387a1.912 1.912 0 0 0 3.822 0v-13.387zm-33.807 0a1.912 1.912 0 0 0-3.822 0v13.387a1.912 1.912 0 0 0 3.822 0v-13.387z" style="fill:#2f4858"/><path d="M269.292 143.951a1.912 1.912 0 0 0 0 3.822h33.807a1.912 1.912 0 0 0 0-3.822h-33.807zm40.142 26.709a1.911 1.911 0 0 0 0 3.821h13.765a1.912 1.912 0 0 0 0-3.821h-13.765zm-40.142-13.322a1.912 1.912 0 0 0 0 3.822h33.807a1.912 1.912 0 0 0 0-3.822h-33.807zm55.818-64.707a1.912 1.912 0 0 0-1.911-1.912 1.912 1.912 0 0 0-1.911 1.912v13.386a1.912 1.912 0 0 0 3.822 0V92.631zm0 133.412a1.912 1.912 0 0 0-3.822 0v13.387a1.912 1.912 0 0 0 3.822 0v-13.387zM271.286 92.631a1.912 1.912 0 0 0-1.91-1.912 1.912 1.912 0 0 0-1.911 1.912v13.386a1.912 1.912 0 0 0 3.821 0V92.631zm0 133.412a1.912 1.912 0 0 0-1.91-1.911 1.912 1.912 0 0 0-1.911 1.911v13.387a1.912 1.912 0 0 0 3.821 0v-13.387z" style="fill:#2f4858"/><path d="M269.292 90.719a1.912 1.912 0 0 0 0 3.822h53.907a1.911 1.911 0 0 0 0-3.822h-53.907zm0 13.334a1.912 1.912 0 0 0 0 3.822h53.907a1.912 1.912 0 0 0 0-3.822h-53.907zm.501 79.928a1.912 1.912 0 0 0 0 3.822h53.406a1.912 1.912 0 0 0 0-3.822h-53.406zm.167 26.642a1.912 1.912 0 0 0 0 3.822h53.239a1.912 1.912 0 0 0 0-3.822H269.96zm.083 13.321a1.912 1.912 0 0 0 0 3.822h53.156a1.912 1.912 0 0 0 0-3.822h-53.156zm.084 13.575a1.912 1.912 0 0 0 0 3.822h53.072a1.912 1.912 0 0 0 0-3.822h-53.072z" style="fill:#2f4858"/><path d="M426.365 195.454a5.48 5.48 0 0 0 3.876-1.608l13.424-13.395a8.177 8.177 0 0 0 2.416-5.823 8.178 8.178 0 0 0-2.416-5.824l-13.424-13.395a5.48 5.48 0 0 0-5.988-1.186 5.47 5.47 0 0 0-3.386 5.067v12.596c-21.762 0-39.466-17.704-39.466-39.466v-4.384a2.74 2.74 0 1 0-5.482 0v4.384c0 12.006 4.676 23.294 13.165 31.783 8.49 8.49 19.777 13.165 31.783 13.165a5.488 5.488 0 0 0 5.482-5.481v-12.599a.058.058 0 0 1 .014-.005l.006.005 13.424 13.397c.52.518.806 1.208.806 1.943 0 .734-.286 1.424-.806 1.943l-13.424 13.395-.006.006a.058.058 0 0 1-.014-.005v-3.006a2.741 2.741 0 0 0-5.482 0v3.004a5.473 5.473 0 0 0 3.386 5.067 5.509 5.509 0 0 0 2.112.422z" style="fill:#2f4858;fill-rule:nonzero"/><path d="M489.031 37.954 355.408 81.107l6.473 29.114 133.623-43.154-6.473-29.113zM196.193 227.733 62.57 270.887 69.042 300l133.623-43.154-6.472-29.113zm242.861 271.983L305.431 542.87l6.472 29.113 133.623-43.153-6.472-29.114z" style="fill:#fd8b7c"/><text x="363.397" y="84.046" style="font-family:'JosefinSans-BoldItalic','Josefin Sans';font-weight:700;font-style:italic;font-size:28.13px;fill:#2f4858">DIVIDE</text><text x="292.847" y="546.104" style="font-family:'JosefinSans-BoldItalic','Josefin Sans';font-weight:700;font-style:italic;font-size:28.13px;fill:#2f4858">PUBLISH</text><text x="29.019" y="274.64" style="font-family:'JosefinSans-BoldItalic','Josefin Sans';font-weight:700;font-style:italic;font-size:28.13px;fill:#2f4858">OPTIMIZE</text></svg>