<svg viewBox="0 0 100 100" xmlns="http://www.w3.org/2000/svg" xml:space="preserve" style="fill-rule:evenodd;clip-rule:evenodd;stroke-linejoin:round;stroke-miterlimit:1.41421"><path d="M65.588 73.338C59.812 77.212 28.325 61.662 27.8 54.675c-.525-6.988 28.337-26.375 34.638-23.263 6.3 3.113 8.925 38.05 3.15 41.925z" style="fill:#fdefce;fill-rule:nonzero"/><path d="M79.9 54.5a.836.836 0 0 0 .7.7.827.827 0 0 0 .875-.45l.675-1.337 1.487.237a.806.806 0 0 0 .876-.45.836.836 0 0 0-.151-.975L83.3 51.163l.687-1.338a.834.834 0 0 0-.15-.975.815.815 0 0 0-.975-.15l-1.337.688-1.063-1.063a.815.815 0 0 0-.975-.15.84.84 0 0 0-.45.875l.238 1.488-1.338.687a.84.84 0 0 0-.45.875.835.835 0 0 0 .7.7l1.488.238.237 1.475-.012-.013zm.025-3.35a.43.43 0 0 0 .225-.438l-.287-1.774 1.262 1.262a.416.416 0 0 0 .488.075l1.587-.812-.812 1.587a.415.415 0 0 0 .075.487l1.275 1.275-1.763-.287a.418.418 0 0 0-.437.225l-.8 1.587-.275-1.762a.425.425 0 0 0-.35-.35l-1.775-.275 1.6-.813-.013.013zm.188 14.175c-.888 0-1.6.712-1.6 1.6-.001.888.712 1.6 1.599 1.6.888 0 1.6-.712 1.6-1.6 0-.888-.712-1.6-1.6-1.6zm0 2.362a.764.764 0 0 1-.762-.762c0-.413.337-.763.762-.763a.767.767 0 0 1 .763.763.766.766 0 0 1-.763.763zm3.15-9.262c-.738 0-1.338.6-1.338 1.337 0 .738.6 1.338 1.337 1.338.738 0 1.338-.6 1.338-1.338 0-.737-.6-1.337-1.338-1.337zm0 1.825a.501.501 0 0 1-.5-.5c0-.275.225-.5.5-.5s.5.225.5.5-.225.5-.5.5zM64.65 51.275c.888 0 1.6-.712 1.6-1.6 0-.888-.713-1.6-1.6-1.6-.888 0-1.6.712-1.6 1.6 0 .888.712 1.6 1.6 1.6zm0-2.362c.412 0 .763.337.763.762a.767.767 0 0 1-.763.763.767.767 0 0 1-.763-.763c0-.412.338-.762.763-.762zm12.875 7.824a.422.422 0 0 0-.425.425v.563c0 .237.188.425.425.425a.422.422 0 0 0 .425-.425v-.563a.422.422 0 0 0-.425-.425zm0 2.813a.421.421 0 0 0-.425.425v.562c0 .238.188.425.425.425a.421.421 0 0 0 .425-.425v-.562a.421.421 0 0 0-.425-.425zm1.688-.287a.421.421 0 0 0 .424-.425.42.42 0 0 0-.425-.425h-.562a.42.42 0 0 0-.425.425c0 .237.187.425.425.425h.562zm-3.788-.413c0 .237.188.425.425.425h.563a.421.421 0 0 0 .424-.425.421.421 0 0 0-.425-.425h-.562a.421.421 0 0 0-.425.425zm1.813 4.262c-.838 0-1.526.688-1.526 1.525a.694.694 0 0 1-.687.688.42.42 0 0 0-.425.425c0 .237.187.425.425.425.837 0 1.525-.688 1.525-1.525 0-.375.312-.688.687-.688a.42.42 0 0 0 .425-.424.42.42 0 0 0-.425-.425z" style="fill:#2f4858;fill-rule:nonzero"/><path d="M73.925 51.188a.438.438 0 0 0 .3-.126.436.436 0 0 0 .125-.3.437.437 0 0 0-.125-.3.437.437 0 0 0-.3-.125.437.437 0 0 0-.3.125.437.437 0 0 0-.125.3c0 .113.05.225.125.3a.437.437 0 0 0 .3.125z" style="fill-rule:nonzero"/><path d="M68.3 62.6c.037.013.063.013.1.013.2 0 .375-.138.412-.338l.413-1.85a.422.422 0 0 0-.325-.512.428.428 0 0 0-.513.325l-.412 1.85a.422.422 0 0 0 .325.512zm-2.025-.587c.088.125.225.2.362.2a.425.425 0 0 0 .363-.65l-1.013-1.6a.426.426 0 1 0-.725.45l1.013 1.6zm3.875 1a.464.464 0 0 0 .225-.063l1.6-1.012a.427.427 0 1 0-.45-.725l-1.6 1.012a.427.427 0 0 0-.138.588c.088.125.225.2.363.2zM75.475 78.4l-2.713-1.175-.875-3.25a4.77 4.77 0 0 0 2.6-2.388c.513-1.075.55-2.249.1-3.325a.271.271 0 0 0-.037-.087l-1.863-4.187a.424.424 0 0 0-.5-.238l-4.1 1.1.063-.612a.436.436 0 0 0-.313-.463L66.5 63.4a.431.431 0 0 0-.525.3.43.43 0 0 0 .3.525l.987.275-.187 1.775c-1.213-.563-2.813-.5-3.925.213-.888.575-2.313.587-3.275.062l1.6-3.587 1.087.287a.43.43 0 0 0 .525-.3.43.43 0 0 0-.3-.525l-1.437-.387a.438.438 0 0 0-.5.237l-1.863 4.188c-.487 1.087-.462 2.3.063 3.412a4.727 4.727 0 0 0 2.6 2.388l-.875 3.25-2.713 1.175a1.218 1.218 0 0 0-.75 1.2c.038.512.4.925.95 1.087h.013l3.8 1.013h.012c.125.037.25.05.375.05.413 0 .775-.175.988-.513.287-.425.262-1-.05-1.412l-1.763-2.375.875-3.25a4.79 4.79 0 0 0 3.45-.763c.075-.05.138-.1.2-.15.313.8.888 1.488 1.663 1.963a4.764 4.764 0 0 0 3.275.65l.875 3.25-1.763 2.375c-.312.425-.337.987-.05 1.412.225.325.575.513.988.513.125 0 .237-.013.375-.05h.012l3.8-1.025h.013c.55-.163.912-.575.95-1.088.037-.512-.275-.987-.75-1.2l-.075.025zm-7.5-12.638 4.062-1.087 1.6 3.588c-.962.525-2.375.512-3.275-.063-.7-.45-1.65-.65-2.587-.562l.2-1.875zm-5.275 13.3c-.1.162-.313.137-.438.1l-3.787-1.013c-.112-.037-.313-.125-.325-.312a.372.372 0 0 1 .237-.363l2.6-1.112 1.688 2.275c.112.15.1.325.025.425zm2.725-8.05a3.89 3.89 0 0 1-3.163.55c-1.05-.275-1.987-1.075-2.462-2.063-.325-.687-.413-1.437-.237-2.137a4.287 4.287 0 0 0 1.9.437c.762 0 1.525-.187 2.137-.587.925-.588 2.4-.588 3.363-.013l-.15 1.5c-.1.938-.588 1.75-1.388 2.3v.013zm2.813 1.8a3.244 3.244 0 0 1-1.438-1.9c.488-.6.788-1.325.875-2.113l.025-.287c.8-.125 1.625.025 2.213.4.612.387 1.375.587 2.137.587.663 0 1.338-.15 1.9-.437.175.7.088 1.45-.237 2.137-.475.988-1.413 1.788-2.463 2.063-1 .262-2.125.1-3.025-.463l.013.013zm6.812 7.05-3.787 1.012c-.125.025-.325.05-.438-.1a.383.383 0 0 1 .025-.425l1.688-2.275 2.6 1.125c.175.075.25.238.237.35-.012.188-.212.275-.325.313z" style="fill:#2f4858;fill-rule:nonzero"/><path d="M64.463 63.75a.421.421 0 0 0 .424-.425.421.421 0 0 0-.425-.425.422.422 0 0 0-.425.425c0 .237.188.425.425.425zM18.6 48.538v8.399a.462.462 0 1 0 .925 0V49h16.6v16.6h-7.988a.46.46 0 0 0-.462.462c0 .263.212.463.462.463h8.45a.462.462 0 0 0 .463-.463V48.537a.462.462 0 0 0-.463-.462H19.062a.46.46 0 0 0-.462.462z" style="fill:#2f4858;fill-rule:nonzero"/><path d="M18.6 66.063a.46.46 0 0 0 .462.462h6.425a.462.462 0 0 0 .463-.463v-6.425a.462.462 0 0 0-.463-.462h-6.425a.46.46 0 0 0-.462.462v6.425zm.925-5.962h5.5v5.5h-5.5v-5.5zm7.812-6.901a.46.46 0 0 0-.462.462v4.125c0 .263.212.463.462.463h4.125a.462.462 0 1 0 0-.925H28.45l5.238-5.237a.469.469 0 0 0-.001-.65.468.468 0 0 0-.65 0L27.8 56.675v-3.013a.462.462 0 0 0-.463-.462zm52.7-30.687c-.012-.013-2.7-2.576-2.7-2.576-.1-.1-.212-.2-.412-.2H66.1a.582.582 0 0 0-.575.575v1.763l-3.813.65a.574.574 0 0 0-.462.65l.188 1.125c-1.238.413-2.513.85-3.738 1.288a.575.575 0 0 0-.337.724l2.45 6.8c.05.138.175.226.312.226.038 0 .075-.013.113-.025a.33.33 0 0 0 .2-.425l-2.413-6.7c1.163-.413 2.363-.825 3.525-1.213l1.15 6.713 1.325 7.737c.05.275.287.463.563.463.025 0 .062 0 .087-.013l3.588-.612 2.8-.476-4.225 1.513-3.325 1.2-2.588-7.188a.33.33 0 0 0-.425-.2.33.33 0 0 0-.2.425l2.625 7.288c.088.225.3.375.525.375a.503.503 0 0 0 .188-.037l3.425-1.238 7.787-2.8 1.487-.25h3.288a.58.58 0 0 0 .575-.575V22.875c0-.2-.112-.3-.188-.375l.026.013zm-.888.075h-1.712c-.075 0-.263 0-.313-.05-.012-.013-.025-.05-.025-.113v-1.812l2.063 1.962-.013.013zm.4 14.825-13.35-.001v-6.537a.335.335 0 0 0-.337-.337.335.335 0 0 0-.338.337v6.638c0 .312.263.575.575.575l6.3-.001-4.225.725-3.487.6-1.313-7.625-1.437-8.412 3.6-.613v6.575c0 .188.15.338.337.338.188 0 .338-.15.338-.338v-8.912h10.212v2.025c0 .25.075.45.225.587.225.226.55.238.75.238h2.175v14.15l-.025-.013z" style="fill:#2f4858;fill-rule:nonzero"/><path d="M75.25 23.75a.336.336 0 0 0-.338.338c0 .187.15.337.338.337h2.4c.188 0 .338-.15.338-.337a.336.336 0 0 0-.338-.338h-2.4z" style="fill:#2f4858;fill-rule:nonzero"/><path d="M78 24.088a.336.336 0 0 0-.338-.338.336.336 0 0 0-.337.338v2.337c0 .188.15.338.337.338.188 0 .338-.15.338-.338v-2.337zm-2.412 0a.338.338 0 1 0-.676 0v2.337c0 .188.15.338.338.338.187 0 .337-.15.337-.338v-2.337zm-1.113 0a.336.336 0 0 0-.338-.338.336.336 0 0 0-.337.338v2.337c0 .188.15.338.337.338.188 0 .338-.15.338-.338v-2.337zm-5.9 0a.336.336 0 0 0-.338-.338.336.336 0 0 0-.337.338v2.337c0 .188.15.338.337.338.188 0 .338-.15.338-.338v-2.337z" style="fill:#2f4858;fill-rule:nonzero"/><path d="M68.238 23.75a.336.336 0 0 0-.338.338c0 .187.15.337.337.337h5.913c.187 0 .337-.15.337-.337a.336.336 0 0 0-.337-.338h-5.913zm7.012 2.338a.336.336 0 0 0-.338.337c0 .188.15.338.338.338h2.4c.188 0 .338-.15.338-.338a.336.336 0 0 0-.338-.337h-2.4zm-7.012 0a.336.336 0 0 0-.338.337c0 .188.15.338.337.338h5.913c.187 0 .337-.15.337-.338a.336.336 0 0 0-.337-.337h-5.913zm2.425 6.512c.187 0 .337.15.337.337 0 .188-.15.338-.338.338h-2.4a.336.336 0 0 1-.337-.338c0-.187.15-.337.337-.337h2.4z" style="fill:#2f4858;fill-rule:nonzero"/><path d="M67.913 32.938a.335.335 0 0 1 .337-.338c.188 0 .338.15.338.337v2.338c0 .187-.15.337-.338.337a.336.336 0 0 1-.338-.337v-2.338zm2.412 0c0-.188.15-.338.337-.338.188 0 .338.15.338.337v2.338c0 .187-.15.337-.338.337a.336.336 0 0 1-.337-.337v-2.338zm1.1 0c0-.188.15-.338.337-.338.188 0 .338.15.338.337v2.338c0 .187-.15.337-.338.337a.336.336 0 0 1-.337-.337v-2.338zm5.912 0c0-.188.15-.338.338-.338.188 0 .338.15.338.337v2.338c0 .187-.15.337-.338.337a.336.336 0 0 1-.338-.337v-2.338z" style="fill:#2f4858;fill-rule:nonzero"/><path d="M77.675 32.6c.187 0 .337.15.337.337 0 .188-.15.338-.337.338h-5.913a.336.336 0 0 1-.337-.338c0-.187.15-.337.337-.337h5.913zm-7.012 2.338a.335.335 0 0 1 .337.337c0 .187-.15.337-.338.337h-2.4a.336.336 0 0 1-.337-.337c0-.188.15-.338.337-.338h2.4zm7.012 0a.335.335 0 0 1 .337.337c0 .187-.15.337-.337.337h-5.913a.336.336 0 0 1-.337-.337c0-.188.15-.338.337-.338h5.913zm.325-6.4a.336.336 0 0 0-.338-.338.336.336 0 0 0-.337.338v2.337c0 .188.15.337.337.337a.335.335 0 0 0 .338-.337v-2.337zm-9.412 0a.338.338 0 1 0-.676 0v2.337c0 .188.15.337.338.337a.335.335 0 0 0 .337-.337v-2.337z" style="fill:#2f4858;fill-rule:nonzero"/><path d="M68.238 28.2a.336.336 0 0 0-.338.338c0 .187.15.337.337.337h9.425c.188 0 .338-.15.338-.337a.336.336 0 0 0-.338-.338h-9.425zm0 2.338a.335.335 0 0 0-.338.337c0 .188.15.337.337.337h9.425a.335.335 0 0 0 .338-.337.335.335 0 0 0-.338-.337h-9.425zM32.3 17.313a.237.237 0 1 0-.475 0v6.5a.238.238 0 0 0 .475 0v-6.5zm0 7.575a.237.237 0 1 0-.475-.001v4.838a.238.238 0 1 0 .475 0v-4.837zm0 5.762a.237.237 0 1 0-.475 0v14.137a.238.238 0 1 0 .475 0V30.65z" style="fill:#2f4858;fill-rule:nonzero"/><path d="M32.063 44.588a.237.237 0 1 0-.001.474h9.85a.237.237 0 1 0 0-.475h-9.85zm0-27.513a.238.238 0 0 0-.001.475h7.775a.237.237 0 1 0 0-.475h-7.775z" style="fill:#2f4858;fill-rule:nonzero"/><path d="M40.038 17.138c-.101-.088-.251-.088-.338.012-.087.1-.087.25.013.337l2.05 1.95c.1.088.25.088.337-.012.087-.1.087-.25-.013-.338l-2.05-1.95z" style="fill:#2f4858;fill-rule:nonzero"/><path d="M39.725 19.075a.237.237 0 0 0 0 .475h2.2a.236.236 0 0 0 .237-.237.237.237 0 0 0-.237-.238h-2.2z" style="fill:#2f4858;fill-rule:nonzero"/><path d="M39.95 17.55a.238.238 0 1 0-.475 0v1.762a.238.238 0 1 0 .475 0V17.55zm2.213 1.713a.239.239 0 0 0-.238-.238.236.236 0 0 0-.237.237v25.526a.237.237 0 1 0 .474 0V19.263zm-3.488 1.225a.237.237 0 1 0 0 .475H40.4a.238.238 0 0 0 0-.475h-1.725z" style="fill:#2f4858;fill-rule:nonzero"/><path d="M40.638 20.738a.238.238 0 1 0-.475 0v1.675c0 .137.112.237.237.237a.237.237 0 0 0 .238-.237v-1.675zm-1.725 0a.237.237 0 1 0-.475 0v1.675a.237.237 0 1 0 .474 0v-1.675zm-.788 0a.237.237 0 1 0-.475 0v1.675a.238.238 0 0 0 .475 0v-1.675zm-4.225 0a.237.237 0 1 0-.475 0v1.675a.238.238 0 0 0 .475 0v-1.675z" style="fill:#2f4858;fill-rule:nonzero"/><path d="M33.663 20.488a.237.237 0 1 0-.001.475h4.225a.238.238 0 1 0 0-.475h-4.225zm5.012 1.675a.237.237 0 1 0 0 .475H40.4a.238.238 0 0 0 0-.475h-1.725zm-5.012 0a.237.237 0 1 0-.001.475h4.225a.238.238 0 1 0 0-.475h-4.225zm1.725 5c.137 0 .237.112.237.237a.237.237 0 0 1-.237.238h-1.725a.238.238 0 1 1 0-.475h1.725z" style="fill:#2f4858;fill-rule:nonzero"/><path d="M33.425 27.4a.238.238 0 1 1 .475 0v1.675a.238.238 0 0 1-.475 0V27.4zm1.713 0a.237.237 0 1 1 .474 0v1.675a.237.237 0 1 1-.474 0V27.4zm.8 0a.237.237 0 1 1 .474 0v1.675a.237.237 0 0 1-.237.237.237.237 0 0 1-.238-.237V27.4zm4.225 0a.237.237 0 1 1 .474 0v1.675a.237.237 0 0 1-.237.237.237.237 0 0 1-.238-.237V27.4z" style="fill:#2f4858;fill-rule:nonzero"/><path d="M40.4 27.163c.138 0 .237.112.237.237a.237.237 0 0 1-.237.238h-4.225a.237.237 0 0 1 0-.475H40.4zm-5.012 1.674a.238.238 0 0 1 0 .476h-1.725a.238.238 0 1 1 0-.476h1.725zm5.012 0a.238.238 0 0 1 0 .476h-4.225a.238.238 0 0 1 0-.476H40.4zM38.675 30.5a.238.238 0 1 0 0 .475H40.4a.237.237 0 0 0 .237-.237.237.237 0 0 0-.237-.238h-1.725z" style="fill:#2f4858;fill-rule:nonzero"/><path d="M40.638 30.738a.238.238 0 1 0-.475 0v3.337c0 .137.112.237.237.237a.237.237 0 0 0 .238-.237v-3.338zm0 5.025a.238.238 0 1 0-.475 0v3.312a.237.237 0 1 0 .475 0v-3.312zm-6.738 0a.237.237 0 1 0-.475 0v3.312a.238.238 0 1 0 .475 0v-3.312zm5.013-5.025a.237.237 0 1 0-.475 0v3.337a.237.237 0 1 0 .474 0v-3.338zm-.788 0a.237.237 0 1 0-.475 0v1.675a.238.238 0 0 0 .475 0v-1.675zm-4.225 0a.237.237 0 1 0-.475 0v1.675a.238.238 0 0 0 .475 0v-1.675z" style="fill:#2f4858;fill-rule:nonzero"/><path d="M33.663 30.5a.238.238 0 0 0-.001.475h4.225a.237.237 0 1 0 0-.475h-4.225zm5.012 3.338a.236.236 0 0 0-.238.237c0 .137.113.237.238.237H40.4a.237.237 0 0 0 .237-.237.237.237 0 0 0-.237-.238h-1.725zm-5.012-1.675a.237.237 0 1 0-.001.474h4.225a.237.237 0 1 0 0-.475h-4.225zm6.975-8.088a.238.238 0 1 0-.475 0v1.675a.238.238 0 1 0 .475 0v-1.675zm0 16.675a.237.237 0 0 0-.475 0v1.675a.237.237 0 1 0 .475 0V40.75zm-6.725-16.675a.237.237 0 1 0-.475 0v1.675a.237.237 0 1 0 .474 0v-1.675zm0 16.675a.238.238 0 0 0-.475 0v1.675a.237.237 0 1 0 .474 0V40.75z" style="fill:#2f4858;fill-rule:nonzero"/><path d="M33.663 23.837a.238.238 0 0 0-.001.476H40.4a.238.238 0 0 0 0-.476h-6.738zm0 1.676a.238.238 0 0 0-.001.475H40.4a.238.238 0 0 0 0-.476h-6.738zm.062 9.987a.236.236 0 0 0-.237.237c0 .138.112.238.237.238H40.4a.237.237 0 0 0 0-.475h-6.675zm.025 3.325a.236.236 0 0 0-.237.237c0 .138.112.238.237.238h6.65a.237.237 0 0 0 0-.475h-6.65zm0 1.662a.238.238 0 0 0 0 .476h6.65a.238.238 0 0 0 0-.476h-6.65zm.013 1.701a.236.236 0 0 0-.238.237c0 .137.113.237.238.237H40.4a.237.237 0 1 0 0-.475h-6.637zm19.537-5.25a.74.74 0 0 0 .487-.201l1.675-1.675a1.03 1.03 0 0 0 0-1.45l-1.675-1.675a.694.694 0 0 0-.75-.15.682.682 0 0 0-.425.638V34a4.94 4.94 0 0 1-4.937-4.938v-.55a.336.336 0 0 0-.338-.337.336.336 0 0 0-.337.337v.55c0 1.5.587 2.913 1.65 3.975a5.586 5.586 0 0 0 3.975 1.65.693.693 0 0 0 .687-.687v-1.575l1.675 1.675c.063.062.1.15.1.237a.34.34 0 0 1-.1.238l-1.675 1.675v-.375a.335.335 0 0 0-.337-.337.335.335 0 0 0-.337.337v.375c0 .275.162.525.425.638a.66.66 0 0 0 .262.05H53.3z" style="fill:#2f4858;fill-rule:nonzero"/><path d="m61.125 17.25-16.7 5.4.813 3.638 16.7-5.4-.813-3.638zm-36.6 23.713-16.7 5.399L8.637 50l16.7-5.4-.812-3.637zm30.363 34-16.7 5.399L39 84l16.7-5.4-.813-3.638z" style="fill:#fd8b7c;fill-rule:nonzero"/><text x="45.425" y="23" style="font-family:'JosefinSans-BoldItalic','Josefin Sans';font-weight:700;font-style:italic;font-size:3.75px;fill:#2f4858">DIVIDE</text><text x="36.6" y="80.763" style="font-family:'JosefinSans-BoldItalic','Josefin Sans';font-weight:700;font-style:italic;font-size:3.75px;fill:#2f4858">PUBLISH</text><text x="3.625" y="46.825" style="font-family:'JosefinSans-BoldItalic','Josefin Sans';font-weight:700;font-style:italic;font-size:3.75px;fill:#2f4858">OPTIMIZE</text></svg>