<svg xmlns="http://www.w3.org/2000/svg" width="100" height="100" viewBox="0 0 40 40" stroke-linejoin="round"><style>.a{fill:#f5bf3d}</style><path d="M29.2 40.2h-25c-2.4 0-4.3-1.9-4.3-4.3v-9.3c0-.6.4-1 1-1s1 .4 1 1v9.3c0 1.3 1 2.3 2.3 2.3h25c.6 0 1 .4 1 1s-.4 1-1 1zm6.4 0c-.6 0-1-.4-1-1s.4-1 1-1c1.3 0 2.3-1 2.3-2.3v-9.3c0-.6.4-1 1-1s1 .4 1 1v9.3c0 2.4-1.9 4.3-4.3 4.3z" class="a"/><path d="M26.4 32.2h-13c-.6 0-1-.4-1-1s.4-1 1-1h13c.6 0 1 .4 1 1s-.5 1-1 1zm1.7-15.1-6.2 9c-.5.7-1.2 1.1-2 1.1s-1.5-.4-2-1.1l-6.2-9c-.3-.4-.2-1.1.3-1.4.5-.3 1.1-.2 1.4.3l5.5 8.1V1c0-.6.5-1 1-1s1 .4 1 1v23.1l5.5-8.1c.3-.5.9-.6 1.4-.3.5.3.6 1 .3 1.4z" class="a"/></svg>