<svg xmlns="http://www.w3.org/2000/svg" width="48" height="48"><path fill="#00e676" d="M25 38 9 41 3 21h6L6 10l35-6-2 17h6l-2 15-18 8z"/><path d="m12.1 16.2 1.6 6.3h2.1l1-3.4 1 3.4H20l2-7-2 .1-1.1 4.3-1-4.1-1.8.1-1 4-.9-3.8-2.1.1zm10.3-.8v7.3l5.4.3v-2l-3.4-.1V20h3v-2.1l-3 .1v-.9l3.4-.2V15l-5.4.4zm11.2 3.5c.5 0 .9-.2 1.3-.6.3-.3.6-.8.6-1.4 0-1.3-1-2.3-2.3-2.3H33l-4.3.4v7.9h5c2.1-1 2.1-2.7 1.3-3.5-.4-.3-.9-.5-1.4-.5zm-2.8-2.2 1.4-.1c.3 0 .6.3.6.6 0 .4-.3.6-.6.6h-1.4v-1.1zm1.6 4.5h-1.7V20l1.6-.1c.3 0 .6.3.6.6.2.4-.1.7-.5.7zM9.2 24.1v2.1h2.5v6.4l2.4-.1v-6.1h2.2v-2.1l-7.1-.2zm23.9 7.3v-6.8h2l2.2 3.4v-3.3h2.1l-.2 6.4-1.7.1-2.2-3.2v3.3l-2.2.1zm-4.2-7c-2 0-3.6 1.7-3.6 3.7 0 2.1 1.6 3.7 3.6 3.7s3.6-1.7 3.6-3.7c0-2.1-1.6-3.7-3.6-3.7zm0 5.5c-.9 0-1.6-.8-1.6-1.8s.7-1.8 1.6-1.8c.9 0 1.6.8 1.6 1.8s-.7 1.8-1.6 1.8zm-8.3-5.7c-2.3 0-4.1 1.8-4.1 4.1 0 2.2 1.8 4.1 4.1 4.1s4.1-1.8 4.1-4.1-1.9-4.1-4.1-4.1zm.1 6c-1 0-1.7-.9-1.7-2s.8-1.9 1.8-1.9 1.8.9 1.8 1.9c-.2 1.1-1 2-1.9 2z" fill="#fafafa"/></svg>