<svg xmlns="http://www.w3.org/2000/svg" width="100" height="100" viewBox="0 0 40 40" stroke-linejoin="round" fill="#579A60"><path d="M20 40c-11 0-20-9-20-20 0-11 9-20 20-20 4.5 0 8.7 1.5 12.3 4.2 0.4 0.3 0.5 1 0.2 1.4 -0.3 0.4-1 0.5-1.4 0.2 -3.2-2.5-7.1-3.8-11.1-3.8 -9.9 0-18 8.1-18 18 0 9.9 8.1 18 18 18 9.9 0 18-8.1 18-18 0-3.2-0.9-6.4-2.5-9.2 -0.3-0.5-0.1-1.1 0.3-1.4 0.5-0.3 1.1-0.1 1.4 0.3 1.8 3.2 2.8 6.7 2.8 10.3 0 11-9 20-20 20Z"/><path d="M28.4 12.4l-11.9 11.9 -4.9-4.9c-0.6-0.6-1.6-0.6-2.1 0 -0.6 0.6-0.6 1.6 0 2.2l5.9 6c0.3 0.3 0.7 0.5 1.1 0.4 0.4 0 0.8-0.1 1.1-0.4l12.9-13c0.6-0.6 0.6-1.6 0-2.1 -0.6-0.6-1.6-0.6-2.1 0Z"/></svg>