<svg xmlns="http://www.w3.org/2000/svg" width="100" height="100" viewBox="0 0 40 40" stroke-linejoin="round" fill="#FC4D36"><path d="M20 40c-11 0-20-9-20-20 0-11 9-20 20-20 4.5 0 8.7 1.5 12.3 4.2 0.4 0.3 0.5 1 0.2 1.4 -0.3 0.4-1 0.5-1.4 0.2 -3.2-2.5-7.1-3.8-11.1-3.8 -9.9 0-18 8.1-18 18 0 9.9 8.1 18 18 18 9.9 0 18-8.1 18-18 0-3.2-0.9-6.4-2.5-9.2 -0.3-0.5-0.1-1.1 0.3-1.4 0.5-0.3 1.1-0.1 1.4 0.3 1.8 3.2 2.8 6.7 2.8 10.3 0 11-9 20-20 20Z"/><rect x="18" y="11.5" width="4" height="11"/><rect x="18" y="26.5" width="4" height="4"/></svg>