<svg xmlns="http://www.w3.org/2000/svg" viewBox="0 0 48 48" width="48" height="48"><polygon points="25 38 9 41 3 21 9 21 6 10 41 4 39 21 45 21 43 36 25 44" fill="#00e676"/><path d="M12.1 16.2l1.6 6.3h2.1l1-3.4 1 3.4h2.2l2-7 -2 0.1 -1.1 4.3 -1-4.1 -1.8 0.1 -1 4 -0.9-3.8L12.1 16.2zM22.4 15.4v7.3l5.4 0.3v-2l-3.4-0.1v-0.9h3v-2.1l-3 0.1v-0.9l3.4-0.2V15L22.4 15.4zM33.6 18.9c0.5 0 0.9-0.2 1.3-0.6 0.3-0.3 0.6-0.8 0.6-1.4 0-1.3-1-2.3-2.3-2.3 -0.1 0-0.1 0-0.2 0l-4.3 0.4v7.9h5c2.1-1 2.1-2.7 1.3-3.5C34.6 19.1 34.1 18.9 33.6 18.9zM30.8 16.7l1.4-0.1h0c0.3 0 0.6 0.3 0.6 0.6 0 0.4-0.3 0.6-0.6 0.6h-1.4V16.7zM32.4 21.2h-1.7v-1.2l1.6-0.1c0 0 0 0 0 0 0.3 0 0.6 0.3 0.6 0.6C33.1 20.9 32.8 21.2 32.4 21.2zM9.2 24.1v2.1h2.5v6.4l2.4-0.1v-6.1h2.2v-2.1L9.2 24.1zM33.1 31.4v-6.8l2 0 2.2 3.4v-3.3h2.1l-0.2 6.4 -1.7 0.1 -2.2-3.2v3.3L33.1 31.4zM28.9 24.4c-2 0-3.6 1.7-3.6 3.7 0 2.1 1.6 3.7 3.6 3.7 2 0 3.6-1.7 3.6-3.7C32.5 26 30.9 24.4 28.9 24.4zM28.9 29.9c-0.9 0-1.6-0.8-1.6-1.8 0-1 0.7-1.8 1.6-1.8 0.9 0 1.6 0.8 1.6 1.8C30.5 29.1 29.8 29.9 28.9 29.9zM20.6 24.2c-2.3 0-4.1 1.8-4.1 4.1 0 2.2 1.8 4.1 4.1 4.1s4.1-1.8 4.1-4.1C24.7 26 22.8 24.2 20.6 24.2zM20.7 30.2c-1 0-1.7-0.9-1.7-2 0-1.1 0.8-1.9 1.8-1.9s1.8 0.9 1.8 1.9C22.4 29.3 21.6 30.2 20.7 30.2z" fill="#fafafa"/></svg>