<svg xmlns="http://www.w3.org/2000/svg" width="100" height="100" viewBox="0 0 40 40" stroke-linejoin="round"><circle cx="20" cy="20" r="19" fill="#fc4d36"/><path d="M28.1 26.8c0.4 0.4 0.4 1 0 1.4 -0.2 0.2-0.5 0.3-0.7 0.3 -0.2 0-0.5-0.1-0.7-0.3l-6.8-6.8 -6.8 6.8c-0.2 0.2-0.5 0.3-0.7 0.3 -0.2 0-0.5-0.1-0.7-0.3 -0.4-0.4-0.4-1 0-1.4l6.8-6.8 -6.8-6.8c-0.4-0.4-0.4-1 0-1.4 0.4-0.4 1-0.4 1.4 0l6.8 6.8 6.8-6.8c0.4-0.4 1-0.4 1.4 0 0.4 0.4 0.4 1 0 1.4l-6.8 6.8 6.8 6.8Z" fill="#ffe9e6"/><path d="M19.9 40c-11 0-20-9-20-20 0-11 9-20 20-20 4.5 0 8.7 1.5 12.3 4.2 0.4 0.3 0.5 1 0.2 1.4 -0.3 0.4-1 0.5-1.4 0.2 -3.2-2.5-7-3.8-11-3.8 -9.9 0-18 8.1-18 18 0 9.9 8.1 18 18 18 9.9 0 18-8.1 18-18 0-3.2-0.9-6.4-2.5-9.2 -0.3-0.5-0.1-1.1 0.3-1.4 0.5-0.3 1.1-0.1 1.4 0.3 1.8 3.1 2.8 6.6 2.8 10.2 -0.1 11.1-9.1 20.1-20.1 20.1Z" fill="#640d02"/></svg>