<svg xmlns="http://www.w3.org/2000/svg" width="100" height="100" viewBox="0 0 800 600" stroke-linejoin="round"><style>.a{fill:#2f4858;}.b{fill:#fd8b7c;}.c{fill:#2f4858;font-family:'JosefinSans-BoldItalic', 'Josefin Sans';font-size:30px;font-style:italic;font-weight:700;}</style><path d="M524.7 486.7c-46.2 31-298.1-93.4-302.3-149.3 -4.2-55.9 226.7-211 277.1-186.1 50.4 24.9 71.4 304.4 25.2 335.4Z" fill="#fdefce"/><path d="M639.2 336c0.5 2.9 2.6 5.1 5.6 5.6 0.4 0.1 0.7 0.1 1.1 0.1 2.5 0 4.7-1.4 5.9-3.7l5.4-10.7 11.9 1.9c2.9 0.5 5.7-0.9 7-3.6 1.3-2.6 0.9-5.7-1.2-7.8l-8.5-8.5 5.5-10.7c1.3-2.6 0.9-5.7-1.2-7.8 -2.1-2.1-5.1-2.6-7.8-1.2l-10.7 5.5 -8.5-8.5c-2.1-2.1-5.1-2.6-7.8-1.2 -2.6 1.3-4 4.1-3.6 7l1.9 11.9 -10.7 5.5c-2.6 1.3-4 4.1-3.6 7 0.5 2.9 2.6 5.1 5.6 5.6l11.9 1.9 1.9 11.8Zm0.2-26.8c1.3-0.7 2-2.1 1.8-3.5l-2.3-14.2 10.1 10.1c1 1 2.6 1.3 3.9 0.6l12.7-6.5 -6.5 12.7c-0.7 1.3-0.4 2.9 0.6 3.9l10.2 10.2 -14.1-2.3c-1.4-0.2-2.9 0.5-3.5 1.8l-6.4 12.7 -2.2-14.1c-0.2-1.4-1.4-2.6-2.8-2.8l-14.2-2.2 12.8-6.5Z" class="a"/><path d="M640.9 422.6c-7.1 0-12.8 5.7-12.8 12.8 0 7.1 5.7 12.8 12.8 12.8 7.1 0 12.8-5.7 12.8-12.8 0-7.1-5.7-12.8-12.8-12.8Zm0 18.9c-3.3 0-6.1-2.7-6.1-6.1 0-3.3 2.7-6.1 6.1-6.1 3.3 0 6.1 2.7 6.1 6.1 0 3.3-2.7 6.1-6.1 6.1Z" class="a"/><path d="M666.1 367.4c-5.9 0-10.7 4.8-10.7 10.7 0 5.9 4.8 10.7 10.7 10.7 5.9 0 10.7-4.8 10.7-10.7 0-5.9-4.8-10.7-10.7-10.7Zm0 14.6c-2.2 0-4-1.8-4-4 0-2.2 1.8-4 4-4 2.2 0 4 1.8 4 4 0 2.2-1.8 4-4 4Z" class="a"/><path d="M517.2 310.2c7.1 0 12.8-5.7 12.8-12.8 0-7.1-5.7-12.8-12.8-12.8 -7.1 0-12.8 5.7-12.8 12.8 0 7.1 5.7 12.8 12.8 12.8Zm0-18.9c3.3 0 6.1 2.7 6.1 6.1 0 3.3-2.7 6.1-6.1 6.1 -3.3 0-6.1-2.7-6.1-6.1 0-3.3 2.7-6.1 6.1-6.1Z" class="a"/><path d="M620.2 353.9c-1.9 0-3.4 1.5-3.4 3.4l0 4.5c0 1.9 1.5 3.4 3.4 3.4 1.9 0 3.4-1.5 3.4-3.4l0-4.5c0-1.9-1.5-3.4-3.4-3.4Z" class="a"/><path d="M620.2 376.4c-1.9 0-3.4 1.5-3.4 3.4l0 4.5c0 1.9 1.5 3.4 3.4 3.4 1.9 0 3.4-1.5 3.4-3.4l0-4.5c0-1.9-1.5-3.4-3.4-3.4Z" class="a"/><path d="M633.7 374.1c1.9 0 3.4-1.5 3.4-3.4 0-1.9-1.5-3.4-3.4-3.4l-4.5 0c-1.9 0-3.4 1.5-3.4 3.4 0 1.9 1.5 3.4 3.4 3.4l4.5 0Z" class="a"/><path d="M603.4 370.8c0 1.9 1.5 3.4 3.4 3.4l4.5 0c1.9 0 3.4-1.5 3.4-3.4 0-1.9-1.5-3.4-3.4-3.4l-4.5 0c-1.9 0-3.4 1.5-3.4 3.4Z" class="a"/><path d="M617.9 404.9c-6.7 0-12.2 5.5-12.2 12.2 0 3-2.5 5.5-5.5 5.5 -1.9 0-3.4 1.5-3.4 3.4 0 1.9 1.5 3.4 3.4 3.4 6.7 0 12.2-5.5 12.2-12.2 0-3 2.5-5.5 5.5-5.5 1.9 0 3.4-1.5 3.4-3.4 0-1.9-1.5-3.4-3.4-3.4Z" class="a"/><path d="M591.4 309.5c0.9 0 1.8-0.4 2.4-1 0.6-0.6 1-1.5 1-2.4 0-0.9-0.4-1.8-1-2.4 -0.6-0.6-1.5-1-2.4-1 -0.9 0-1.8 0.4-2.4 1 -0.6 0.6-1 1.5-1 2.4 0 0.9 0.4 1.8 1 2.4 0.6 0.6 1.5 1 2.4 1Z"/><path d="M546.4 400.8c0.3 0.1 0.5 0.1 0.8 0.1 1.6 0 3-1.1 3.3-2.7l3.3-14.8c0.4-1.9-0.7-3.7-2.6-4.1 -1.8-0.4-3.7 0.7-4.1 2.6l-3.3 14.8c-0.4 1.9 0.7 3.7 2.6 4.1Z" class="a"/><path d="M530.2 396.1c0.7 1 1.8 1.6 2.9 1.6 0.6 0 1.3-0.2 1.8-0.5 1.6-1 2.1-3.1 1.1-4.7l-8.1-12.8c-1-1.6-3.1-2.1-4.7-1.1 -1.6 1-2.1 3.1-1.1 4.7l8.1 12.8Z" class="a"/><path d="M561.2 404.1c0.6 0 1.3-0.2 1.8-0.5l12.8-8.1c1.6-1 2.1-3.1 1.1-4.7 -1-1.6-3.1-2.1-4.7-1.1l-12.8 8.1c-1.6 1-2.1 3.1-1.1 4.7 0.7 1 1.8 1.6 2.9 1.6Z" class="a"/><path d="M603.8 527.2l-21.7-9.4 -7-26c9-3.4 16.6-10.3 20.8-19.1 4.1-8.6 4.4-18 0.8-26.6 0-0.1-0.2-0.6-0.3-0.7l-14.9-33.5c-0.7-1.5-2.4-2.4-4-1.9l-32.8 8.8 0.5-4.9c0.2-1.7-0.9-3.2-2.5-3.7l-10.7-3c-1.8-0.5-3.7 0.6-4.2 2.4 -0.5 1.8 0.6 3.7 2.4 4.2l7.9 2.2 -1.5 14.2c-9.7-4.5-22.5-4-31.4 1.7 -7.1 4.6-18.5 4.7-26.2 0.5l12.8-28.7 8.7 2.3c1.8 0.5 3.7-0.6 4.2-2.4 0.5-1.8-0.6-3.7-2.4-4.2l-11.5-3.1c-1.6-0.4-3.3 0.4-4 1.9l-14.9 33.5c-3.9 8.7-3.7 18.4 0.5 27.3 4.2 8.8 11.8 15.8 20.8 19.1l-7 26 -21.7 9.4c-3.9 1.7-6.3 5.5-6 9.6 0.3 4.1 3.2 7.4 7.6 8.7 0 0 0 0 0.1 0l30.4 8.1c0 0 0 0 0.1 0 1 0.3 2 0.4 3 0.4 3.3 0 6.2-1.4 7.9-4.1 2.3-3.4 2.1-8-0.4-11.3l-14.1-19 7-26c2 0.3 4.1 0.5 6.1 0.5 7.6 0 15.2-2.3 21.5-6.6 0.6-0.4 1.1-0.8 1.6-1.2 2.5 6.4 7.1 11.9 13.3 15.7 6 3.8 13.2 5.7 20.2 5.7 2 0 4-0.2 6-0.5l7 26 -14.1 19c-2.5 3.4-2.7 7.9-0.4 11.3 1.8 2.6 4.6 4.1 7.9 4.1 1 0 1.9-0.1 3-0.4 0 0 0 0 0.1 0l30.4-8.2c0 0 0 0 0.1 0 4.4-1.3 7.3-4.6 7.6-8.7 0.3-4.1-2.2-7.9-6-9.6Zm-60-101.1l32.5-8.7 12.8 28.7c-7.7 4.2-19 4.1-26.2-0.5 -5.6-3.6-13.2-5.2-20.7-4.5l1.6-15Zm-42.2 106.4c-0.8 1.3-2.5 1.1-3.5 0.8l-30.3-8.1c-0.9-0.3-2.5-1-2.6-2.5 -0.1-1 0.5-2.3 1.9-2.9l20.8-8.9 13.5 18.2c0.9 1.2 0.8 2.6 0.2 3.4Zm21.8-64.4c-7.2 5-16.9 6.7-25.3 4.4l0 0c0 0 0 0 0 0l0 0c-8.4-2.2-15.9-8.6-19.7-16.5 -2.6-5.5-3.3-11.5-1.9-17.1 4.6 2.3 9.9 3.5 15.2 3.5 6.1 0 12.2-1.5 17.1-4.7 7.4-4.7 19.2-4.7 26.9-0.1l-1.2 12c-0.8 7.5-4.7 14-11.1 18.4Zm22.5 14.4c-5.8-3.6-9.8-9-11.5-15.2 3.9-4.8 6.3-10.6 7-16.9l0.2-2.3c6.4-1 13 0.2 17.7 3.2 4.9 3.1 11 4.7 17.1 4.7 5.3 0 10.7-1.2 15.2-3.5 1.4 5.6 0.7 11.6-1.9 17.1 -3.8 7.9-11.3 14.3-19.7 16.5l0 0 0 0c0 0 0 0 0 0 -8 2.1-17 0.8-24.2-3.7Zm54.5 56.4l-30.3 8.1c-1 0.2-2.6 0.4-3.5-0.8 -0.5-0.8-0.7-2.2 0.2-3.4l13.5-18.2 20.8 9c1.4 0.6 2 1.9 1.9 2.8 -0.1 1.5-1.7 2.2-2.6 2.5Z" class="a"/><path d="M515.7 410c1.9 0 3.4-1.5 3.4-3.4 0-1.9-1.5-3.4-3.4-3.4l0 0c-1.9 0-3.4 1.5-3.4 3.4 0 1.9 1.5 3.4 3.4 3.4Z" class="a"/><path d="M148.8 288.3l0 67.2c0 2.1 1.7 3.7 3.7 3.7 2.1 0 3.7-1.7 3.7-3.7l0-63.5 132.8 0 0 132.8 -63.9 0c-2.1 0-3.7 1.7-3.7 3.7 0 2.1 1.7 3.7 3.7 3.7l67.6 0c2.1 0 3.7-1.7 3.7-3.7l0-140.2c0-2.1-1.7-3.7-3.7-3.7l-140.2 0c-2.1 0-3.7 1.7-3.7 3.7Z" class="a"/><path d="M148.8 428.5c0 2.1 1.7 3.7 3.7 3.7l51.4 0c2.1 0 3.7-1.7 3.7-3.7l0-51.4c0-2.1-1.7-3.7-3.7-3.7l-51.4 0c-2.1 0-3.7 1.7-3.7 3.7l0 51.4Zm7.4-47.7l44 0 0 44 -44 0 0-44Z" class="a"/><path d="M218.7 325.6c-2.1 0-3.7 1.7-3.7 3.7l0 33c0 2.1 1.7 3.7 3.7 3.7l33 0c2.1 0 3.7-1.7 3.7-3.7 0-2.1-1.7-3.7-3.7-3.7l-24.1 0 41.9-41.9c1.4-1.4 1.4-3.8 0-5.2 -1.4-1.4-3.8-1.4-5.2 0l-41.9 41.9 0-24.1c0-2.1-1.7-3.7-3.7-3.7Z" class="a"/><path d="M640.3 80.1c-0.1-0.1-21.6-20.6-21.6-20.6 -0.8-0.8-1.7-1.6-3.3-1.6l-86.6 0c-2.5 0-4.6 2.1-4.6 4.6l0 14.1 -30.5 5.2c-2.4 0.4-4.1 2.8-3.7 5.2l1.5 9c-9.9 3.3-20.1 6.8-29.9 10.3 -2.3 0.9-3.5 3.4-2.7 5.8l19.6 54.4c0.4 1.1 1.4 1.8 2.5 1.8 0.3 0 0.6-0.1 0.9-0.2 1.4-0.5 2.1-2 1.6-3.4l-19.3-53.6c9.3-3.3 18.9-6.6 28.2-9.7l9.2 53.7 10.6 61.9c0.4 2.2 2.3 3.7 4.5 3.7 0.2 0 0.5 0 0.7-0.1l28.7-4.9 22.4-3.8 -33.8 12.1 -26.6 9.6 -20.7-57.5c-0.5-1.4-2-2.1-3.4-1.6 -1.4 0.5-2.1 2-1.6 3.4l21 58.3c0.7 1.8 2.4 3 4.2 3 0.5 0 1-0.1 1.5-0.3l27.4-9.9 62.3-22.4 11.9-2 26.3 0c2.5 0 4.6-2.1 4.6-4.6l0-117c0-1.6-0.9-2.4-1.5-3Zm-7.1 0.6l-13.4 0 -0.3 0c-0.6 0-2.1 0-2.5-0.4 -0.1-0.1-0.2-0.4-0.2-0.9l0-14.5 16.5 15.7Zm3.2 118.6l-106.8 0 0-52.3c0-1.5-1.2-2.7-2.7-2.7 -1.5 0-2.7 1.2-2.7 2.7l0 53.1c0 2.5 2.1 4.6 4.6 4.6l50.4 0 -33.8 5.8 -27.9 4.8 -10.5-61 -11.5-67.3 28.8-4.9 0 52.6c0 1.5 1.2 2.7 2.7 2.7 1.5 0 2.7-1.2 2.7-2.7l0-71.3 81.7 0 0 16.2c0 2 0.6 3.6 1.8 4.7 1.8 1.8 4.4 1.9 6 1.9 0.1 0 0.3 0 0.4 0l17 0 0 113.2Z" class="a"/><path d="M602 77.2c-1.5 0-2.7 1.2-2.7 2.7 0 1.5 1.2 2.7 2.7 2.7l19.2 0c1.5 0 2.7-1.2 2.7-2.7 0-1.5-1.2-2.7-2.7-2.7l-19.2 0Z" class="a"/><path d="M624 79.9c0-1.5-1.2-2.7-2.7-2.7 -1.5 0-2.7 1.2-2.7 2.7l0 18.7c0 1.5 1.2 2.7 2.7 2.7 1.5 0 2.7-1.2 2.7-2.7l0-18.7Z" class="a"/><path d="M604.7 79.9c0-1.5-1.2-2.7-2.7-2.7 -1.5 0-2.7 1.2-2.7 2.7l0 18.7c0 1.5 1.2 2.7 2.7 2.7 1.5 0 2.7-1.2 2.7-2.7l0-18.7Z" class="a"/><path d="M595.8 79.9c0-1.5-1.2-2.7-2.7-2.7 -1.5 0-2.7 1.2-2.7 2.7l0 18.7c0 1.5 1.2 2.7 2.7 2.7 1.5 0 2.7-1.2 2.7-2.7l0-18.7Z" class="a"/><path d="M548.6 79.9c0-1.5-1.2-2.7-2.7-2.7 -1.5 0-2.7 1.2-2.7 2.7l0 18.7c0 1.5 1.2 2.7 2.7 2.7 1.5 0 2.7-1.2 2.7-2.7l0-18.7Z" class="a"/><path d="M545.9 77.2c-1.5 0-2.7 1.2-2.7 2.7 0 1.5 1.2 2.7 2.7 2.7l47.3 0c1.5 0 2.7-1.2 2.7-2.7 0-1.5-1.2-2.7-2.7-2.7l-47.3 0Z" class="a"/><path d="M602 95.9c-1.5 0-2.7 1.2-2.7 2.7 0 1.5 1.2 2.7 2.7 2.7l19.2 0c1.5 0 2.7-1.2 2.7-2.7 0-1.5-1.2-2.7-2.7-2.7l-19.2 0Z" class="a"/><path d="M545.9 95.9c-1.5 0-2.7 1.2-2.7 2.7 0 1.5 1.2 2.7 2.7 2.7l47.3 0c1.5 0 2.7-1.2 2.7-2.7 0-1.5-1.2-2.7-2.7-2.7l-47.3 0Z" class="a"/><path d="M565.2 151.8c1.5 0 2.7 1.2 2.7 2.7 0 1.5-1.2 2.7-2.7 2.7l-19.2 0c-1.5 0-2.7-1.2-2.7-2.7 0-1.5 1.2-2.7 2.7-2.7l19.2 0Z" class="a"/><path d="M543.2 154.5c0-1.5 1.2-2.7 2.7-2.7 1.5 0 2.7 1.2 2.7 2.7l0 18.7c0 1.5-1.2 2.7-2.7 2.7 -1.5 0-2.7-1.2-2.7-2.7l0-18.7Z" class="a"/><path d="M562.5 154.5c0-1.5 1.2-2.7 2.7-2.7 1.5 0 2.7 1.2 2.7 2.7l0 18.7c0 1.5-1.2 2.7-2.7 2.7 -1.5 0-2.7-1.2-2.7-2.7l0-18.7Z" class="a"/><path d="M571.3 154.5c0-1.5 1.2-2.7 2.7-2.7 1.5 0 2.7 1.2 2.7 2.7l0 18.7c0 1.5-1.2 2.7-2.7 2.7 -1.5 0-2.7-1.2-2.7-2.7l0-18.7Z" class="a"/><path d="M618.6 154.5c0-1.5 1.2-2.7 2.7-2.7 1.5 0 2.7 1.2 2.7 2.7l0 18.7c0 1.5-1.2 2.7-2.7 2.7 -1.5 0-2.7-1.2-2.7-2.7l0-18.7Z" class="a"/><path d="M621.3 151.8c1.5 0 2.7 1.2 2.7 2.7 0 1.5-1.2 2.7-2.7 2.7l-47.3 0c-1.5 0-2.7-1.2-2.7-2.7 0-1.5 1.2-2.7 2.7-2.7l47.3 0Z" class="a"/><path d="M565.2 170.5c1.5 0 2.7 1.2 2.7 2.7 0 1.5-1.2 2.7-2.7 2.7l-19.2 0c-1.5 0-2.7-1.2-2.7-2.7 0-1.5 1.2-2.7 2.7-2.7l19.2 0Z" class="a"/><path d="M621.3 170.5c1.5 0 2.7 1.2 2.7 2.7 0 1.5-1.2 2.7-2.7 2.7l-47.3 0c-1.5 0-2.7-1.2-2.7-2.7 0-1.5 1.2-2.7 2.7-2.7l47.3 0Z" class="a"/><path d="M624 117.3c0-1.5-1.2-2.7-2.7-2.7 -1.5 0-2.7 1.2-2.7 2.7l0 18.7c0 1.5 1.2 2.7 2.7 2.7 1.5 0 2.7-1.2 2.7-2.7l0-18.7Z" class="a"/><path d="M548.7 117.3c0-1.5-1.2-2.7-2.7-2.7 -1.5 0-2.7 1.2-2.7 2.7l0 18.7c0 1.5 1.2 2.7 2.7 2.7 1.5 0 2.7-1.2 2.7-2.7l0-18.7Z" class="a"/><path d="M545.9 114.6c-1.5 0-2.7 1.2-2.7 2.7 0 1.5 1.2 2.7 2.7 2.7l75.4 0c1.5 0 2.7-1.2 2.7-2.7 0-1.5-1.2-2.7-2.7-2.7l-75.4 0Z" class="a"/><path d="M545.9 133.3c-1.5 0-2.7 1.2-2.7 2.7 0 1.5 1.2 2.7 2.7 2.7l75.4 0c1.5 0 2.7-1.2 2.7-2.7 0-1.5-1.2-2.7-2.7-2.7l-75.4 0Z" class="a"/><path d="M258.4 38.5c0-1.1-0.9-1.9-1.9-1.9 -1.1 0-1.9 0.9-1.9 1.9l0 52c0 1.1 0.9 1.9 1.9 1.9 1.1 0 1.9-0.9 1.9-1.9l0-52Z" class="a"/><path d="M258.4 99.1c0-1.1-0.9-1.9-1.9-1.9 -1.1 0-1.9 0.9-1.9 1.9l0 38.7c0 1.1 0.9 1.9 1.9 1.9 1.1 0 1.9-0.9 1.9-1.9l0-38.7Z" class="a"/><path d="M258.4 145.2c0-1.1-0.9-1.9-1.9-1.9 -1.1 0-1.9 0.9-1.9 1.9l0 113.1c0 1.1 0.9 1.9 1.9 1.9 1.1 0 1.9-0.9 1.9-1.9l0-113.1Z" class="a"/><path d="M256.5 256.7c-1.1 0-1.9 0.9-1.9 1.9 0 1.1 0.9 1.9 1.9 1.9l78.8 0c1.1 0 1.9-0.9 1.9-1.9 0-1.1-0.9-1.9-1.9-1.9l-78.8 0Z" class="a"/><path d="M256.5 36.6c-1.1 0-1.9 0.9-1.9 1.9 0 1.1 0.9 1.9 1.9 1.9l62.2 0c1.1 0 1.9-0.9 1.9-1.9 0-1.1-0.9-1.9-1.9-1.9l-62.2 0Z" class="a"/><path d="M320.3 37.1c-0.8-0.7-2-0.7-2.7 0.1 -0.7 0.8-0.7 2 0.1 2.7l16.4 15.6c0.8 0.7 2 0.7 2.7-0.1 0.7-0.8 0.7-2-0.1-2.7l-16.4-15.6Z" class="a"/><path d="M317.8 52.6c-1.1 0-1.9 0.9-1.9 1.9 0 1.1 0.9 1.9 1.9 1.9l17.6 0c1.1 0 1.9-0.9 1.9-1.9 0-1.1-0.9-1.9-1.9-1.9l-17.6 0Z" class="a"/><path d="M319.6 40.4c0-1.1-0.9-1.9-1.9-1.9 -1.1 0-1.9 0.9-1.9 1.9l0 14.1c0 1.1 0.9 1.9 1.9 1.9 1.1 0 1.9-0.9 1.9-1.9l0-14.1Z" class="a"/><path d="M337.3 54.1c0-1.1-0.9-1.9-1.9-1.9 -1.1 0-1.9 0.9-1.9 1.9l0 204.2c0 1.1 0.9 1.9 1.9 1.9 1.1 0 1.9-0.9 1.9-1.9l0-204.2Z" class="a"/><path d="M309.4 63.9c-1.1 0-1.9 0.9-1.9 1.9 0 1.1 0.9 1.9 1.9 1.9l13.8 0c1.1 0 1.9-0.9 1.9-1.9 0-1.1-0.9-1.9-1.9-1.9l-13.8 0Z" class="a"/><path d="M325.1 65.9c0-1.1-0.9-1.9-1.9-1.9 -1.1 0-1.9 0.9-1.9 1.9l0 13.4c0 1.1 0.9 1.9 1.9 1.9 1.1 0 1.9-0.9 1.9-1.9l0-13.4Z" class="a"/><path d="M311.3 65.9c0-1.1-0.9-1.9-1.9-1.9 -1.1 0-1.9 0.9-1.9 1.9l0 13.4c0 1.1 0.9 1.9 1.9 1.9 1.1 0 1.9-0.9 1.9-1.9l0-13.4Z" class="a"/><path d="M305 65.9c0-1.1-0.9-1.9-1.9-1.9 -1.1 0-1.9 0.9-1.9 1.9l0 13.4c0 1.1 0.9 1.9 1.9 1.9 1.1 0 1.9-0.9 1.9-1.9l0-13.4Z" class="a"/><path d="M271.2 65.9c0-1.1-0.9-1.9-1.9-1.9 -1.1 0-1.9 0.9-1.9 1.9l0 13.4c0 1.1 0.9 1.9 1.9 1.9 1.1 0 1.9-0.9 1.9-1.9l0-13.4Z" class="a"/><path d="M269.3 63.9c-1.1 0-1.9 0.9-1.9 1.9 0 1.1 0.9 1.9 1.9 1.9l33.8 0c1.1 0 1.9-0.9 1.9-1.9 0-1.1-0.9-1.9-1.9-1.9l-33.8 0Z" class="a"/><path d="M309.4 77.3c-1.1 0-1.9 0.9-1.9 1.9 0 1.1 0.9 1.9 1.9 1.9l13.8 0c1.1 0 1.9-0.9 1.9-1.9 0-1.1-0.9-1.9-1.9-1.9l-13.8 0Z" class="a"/><path d="M269.3 77.3c-1.1 0-1.9 0.9-1.9 1.9 0 1.1 0.9 1.9 1.9 1.9l33.8 0c1.1 0 1.9-0.9 1.9-1.9 0-1.1-0.9-1.9-1.9-1.9l-33.8 0Z" class="a"/><path d="M283.1 117.3c1.1 0 1.9 0.9 1.9 1.9 0 1.1-0.9 1.9-1.9 1.9l-13.8 0c-1.1 0-1.9-0.9-1.9-1.9 0-1.1 0.9-1.9 1.9-1.9l13.8 0Z" class="a"/><path d="M267.4 119.2c0-1.1 0.9-1.9 1.9-1.9 1.1 0 1.9 0.9 1.9 1.9l0 13.4c0 1.1-0.9 1.9-1.9 1.9 -1.1 0-1.9-0.9-1.9-1.9l0-13.4Z" class="a"/><path d="M281.1 119.2c0-1.1 0.9-1.9 1.9-1.9 1.1 0 1.9 0.9 1.9 1.9l0 13.4c0 1.1-0.9 1.9-1.9 1.9 -1.1 0-1.9-0.9-1.9-1.9l0-13.4Z" class="a"/><path d="M287.5 119.2c0-1.1 0.9-1.9 1.9-1.9 1.1 0 1.9 0.9 1.9 1.9l0 13.4c0 1.1-0.9 1.9-1.9 1.9 -1.1 0-1.9-0.9-1.9-1.9l0-13.4Z" class="a"/><path d="M321.3 119.2c0-1.1 0.9-1.9 1.9-1.9 1.1 0 1.9 0.9 1.9 1.9l0 13.4c0 1.1-0.9 1.9-1.9 1.9 -1.1 0-1.9-0.9-1.9-1.9l0-13.4Z" class="a"/><path d="M323.2 117.3c1.1 0 1.9 0.9 1.9 1.9 0 1.1-0.9 1.9-1.9 1.9l-33.8 0c-1.1 0-1.9-0.9-1.9-1.9 0-1.1 0.9-1.9 1.9-1.9l33.8 0Z" class="a"/><path d="M283.1 130.7c1.1 0 1.9 0.9 1.9 1.9 0 1.1-0.9 1.9-1.9 1.9l-13.8 0c-1.1 0-1.9-0.9-1.9-1.9 0-1.1 0.9-1.9 1.9-1.9l13.8 0Z" class="a"/><path d="M323.2 130.7c1.1 0 1.9 0.9 1.9 1.9 0 1.1-0.9 1.9-1.9 1.9l-33.8 0c-1.1 0-1.9-0.9-1.9-1.9 0-1.1 0.9-1.9 1.9-1.9l33.8 0Z" class="a"/><path d="M309.4 144c-1.1 0-1.9 0.9-1.9 1.9 0 1.1 0.9 1.9 1.9 1.9l13.8 0c1.1 0 1.9-0.9 1.9-1.9 0-1.1-0.9-1.9-1.9-1.9l-13.8 0Z" class="a"/><path d="M325.1 145.9c0-1.1-0.9-1.9-1.9-1.9 -1.1 0-1.9 0.9-1.9 1.9l0 26.7c0 1.1 0.9 1.9 1.9 1.9 1.1 0 1.9-0.9 1.9-1.9l0-26.7Z" class="a"/><path d="M325.1 186.1c0-1.1-0.9-1.9-1.9-1.9 -1.1 0-1.9 0.9-1.9 1.9l0 26.5c0 1.1 0.9 1.9 1.9 1.9 1.1 0 1.9-0.9 1.9-1.9l0-26.5Z" class="a"/><path d="M271.2 186.1c0-1.1-0.9-1.9-1.9-1.9 -1.1 0-1.9 0.9-1.9 1.9l0 26.5c0 1.1 0.9 1.9 1.9 1.9 1.1 0 1.9-0.9 1.9-1.9l0-26.5Z" class="a"/><path d="M311.3 145.9c0-1.1-0.9-1.9-1.9-1.9 -1.1 0-1.9 0.9-1.9 1.9l0 26.7c0 1.1 0.9 1.9 1.9 1.9 1.1 0 1.9-0.9 1.9-1.9l0-26.7Z" class="a"/><path d="M305 145.9c0-1.1-0.9-1.9-1.9-1.9 -1.1 0-1.9 0.9-1.9 1.9l0 13.4c0 1.1 0.9 1.9 1.9 1.9 1.1 0 1.9-0.9 1.9-1.9l0-13.4Z" class="a"/><path d="M271.2 145.9c0-1.1-0.9-1.9-1.9-1.9 -1.1 0-1.9 0.9-1.9 1.9l0 13.4c0 1.1 0.9 1.9 1.9 1.9 1.1 0 1.9-0.9 1.9-1.9l0-13.4Z" class="a"/><path d="M269.3 144c-1.1 0-1.9 0.9-1.9 1.9 0 1.1 0.9 1.9 1.9 1.9l33.8 0c1.1 0 1.9-0.9 1.9-1.9 0-1.1-0.9-1.9-1.9-1.9l-33.8 0Z" class="a"/><path d="M309.4 170.7c-1.1 0-1.9 0.9-1.9 1.9 0 1.1 0.9 1.9 1.9 1.9l13.8 0c1.1 0 1.9-0.9 1.9-1.9 0-1.1-0.9-1.9-1.9-1.9l-13.8 0Z" class="a"/><path d="M269.3 157.3c-1.1 0-1.9 0.9-1.9 1.9 0 1.1 0.9 1.9 1.9 1.9l33.8 0c1.1 0 1.9-0.9 1.9-1.9 0-1.1-0.9-1.9-1.9-1.9l-33.8 0Z" class="a"/><path d="M325.1 92.6c0-1.1-0.9-1.9-1.9-1.9 -1.1 0-1.9 0.9-1.9 1.9l0 13.4c0 1.1 0.9 1.9 1.9 1.9 1.1 0 1.9-0.9 1.9-1.9l0-13.4Z" class="a"/><path d="M325.1 226c0-1.1-0.9-1.9-1.9-1.9 -1.1 0-1.9 0.9-1.9 1.9l0 13.4c0 1.1 0.9 1.9 1.9 1.9 1.1 0 1.9-0.9 1.9-1.9l0-13.4Z" class="a"/><path d="M271.3 92.6c0-1.1-0.9-1.9-1.9-1.9 -1.1 0-1.9 0.9-1.9 1.9l0 13.4c0 1.1 0.9 1.9 1.9 1.9 1.1 0 1.9-0.9 1.9-1.9l0-13.4Z" class="a"/><path d="M271.3 226c0-1.1-0.9-1.9-1.9-1.9 -1.1 0-1.9 0.9-1.9 1.9l0 13.4c0 1.1 0.9 1.9 1.9 1.9 1.1 0 1.9-0.9 1.9-1.9l0-13.4Z" class="a"/><path d="M269.3 90.7c-1.1 0-1.9 0.9-1.9 1.9 0 1.1 0.9 1.9 1.9 1.9l53.9 0c1.1 0 1.9-0.9 1.9-1.9 0-1.1-0.9-1.9-1.9-1.9l-53.9 0Z" class="a"/><path d="M269.3 104.1c-1.1 0-1.9 0.9-1.9 1.9 0 1.1 0.9 1.9 1.9 1.9l53.9 0c1.1 0 1.9-0.9 1.9-1.9 0-1.1-0.9-1.9-1.9-1.9l-53.9 0Z" class="a"/><path d="M269.8 184c-1.1 0-1.9 0.9-1.9 1.9 0 1.1 0.9 1.9 1.9 1.9l53.4 0c1.1 0 1.9-0.9 1.9-1.9 0-1.1-0.9-1.9-1.9-1.9l-53.4 0Z" class="a"/><path d="M270 210.6c-1.1 0-1.9 0.9-1.9 1.9 0 1.1 0.9 1.9 1.9 1.9l53.2 0c1.1 0 1.9-0.9 1.9-1.9 0-1.1-0.9-1.9-1.9-1.9l-53.2 0Z" class="a"/><path d="M270 223.9c-1.1 0-1.9 0.9-1.9 1.9 0 1.1 0.9 1.9 1.9 1.9l53.2 0c1.1 0 1.9-0.9 1.9-1.9 0-1.1-0.9-1.9-1.9-1.9l-53.2 0Z" class="a"/><path d="M270.1 237.5c-1.1 0-1.9 0.9-1.9 1.9 0 1.1 0.9 1.9 1.9 1.9l53.1 0c1.1 0 1.9-0.9 1.9-1.9 0-1.1-0.9-1.9-1.9-1.9l-53.1 0Z" class="a"/><path d="M426.4 195.5c1.4 0 2.8-0.6 3.9-1.6l13.4-13.4c1.6-1.6 2.4-3.6 2.4-5.8 0-2.2-0.9-4.3-2.4-5.8l-13.4-13.4c-1.6-1.6-3.9-2-6-1.2 -2.1 0.9-3.4 2.8-3.4 5.1l0 12.6c-21.8 0-39.5-17.7-39.5-39.5l0-4.4c0-1.5-1.2-2.7-2.7-2.7 -1.5 0-2.7 1.2-2.7 2.7l0 4.4c0 12 4.7 23.3 13.2 31.8 8.5 8.5 19.8 13.2 31.8 13.2 3 0 5.5-2.5 5.5-5.5l0-12.6 0 0c0 0 0 0 0 0 0 0 0 0 0 0l13.4 13.4c0.5 0.5 0.8 1.2 0.8 1.9 0 0.7-0.3 1.4-0.8 1.9l-13.4 13.4 0 0c0 0 0 0 0 0l0 0 0-3c0-1.5-1.2-2.7-2.7-2.7 -1.5 0-2.7 1.2-2.7 2.7l0 3c0 2.2 1.3 4.2 3.4 5.1 0.7 0.3 1.4 0.4 2.1 0.4Z" class="a"/><path d="M489 38l-133.6 43.2 6.5 29.1 133.6-43.2 -6.5-29.1Z" class="b"/><path d="M196.2 227.7l-133.6 43.2 6.5 29.1 133.6-43.2 -6.5-29.1Z" class="b"/><path d="M439.1 499.7l-133.6 43.2 6.5 29.1 133.6-43.2 -6.5-29.1Z" class="b"/><text x="363.4" y="84" class="c">  DIVIDE</text><text x="292.8" y="546.1" class="c">  PUBLISH</text><text x="29" y="274.6" class="c">  OPTIMIZE</text></svg>