<?xml version="1.0" encoding="UTF-8" standalone="no"?><!DOCTYPE svg PUBLIC "-//W3C//DTD SVG 1.1//EN" "http://www.w3.org/Graphics/SVG/1.1/DTD/svg11.dtd"><svg width="100%" height="100%" viewBox="0 0 100 100" version="1.1" xmlns="http://www.w3.org/2000/svg" xmlns:xlink="http://www.w3.org/1999/xlink" xml:space="preserve" xmlns:serif="http://www.serif.com/" style="fill-rule:evenodd;clip-rule:evenodd;stroke-linejoin:round;stroke-miterlimit:1.41421;"><path d="M65.588,73.338c-5.776,3.874 -37.263,-11.676 -37.788,-18.663c-0.525,-6.988 28.337,-26.375 34.638,-23.263c6.3,3.113 8.925,38.05 3.15,41.925Z" style="fill:#fdefce;fill-rule:nonzero;"/><path d="M79.9,54.5c0.063,0.362 0.325,0.638 0.7,0.7c0.05,0.013 0.088,0.013 0.138,0.013c0.312,0 0.587,-0.175 0.737,-0.463l0.675,-1.337l1.487,0.237c0.363,0.063 0.713,-0.112 0.876,-0.45c0.162,-0.325 0.112,-0.712 -0.151,-0.975l-1.062,-1.062l0.687,-1.338c0.163,-0.325 0.113,-0.712 -0.15,-0.975c-0.262,-0.262 -0.637,-0.325 -0.975,-0.15l-1.337,0.688l-1.063,-1.063c-0.262,-0.262 -0.637,-0.325 -0.975,-0.15c-0.325,0.163 -0.5,0.513 -0.45,0.875l0.238,1.488l-1.338,0.687c-0.325,0.163 -0.5,0.513 -0.45,0.875c0.063,0.363 0.325,0.638 0.7,0.7l1.488,0.238l0.237,1.475l-0.012,-0.013Zm0.025,-3.35c0.162,-0.087 0.25,-0.263 0.225,-0.438l-0.287,-1.774l1.262,1.262c0.125,0.125 0.325,0.163 0.488,0.075l1.587,-0.812l-0.812,1.587c-0.088,0.163 -0.05,0.362 0.075,0.487l1.275,1.275l-1.763,-0.287c-0.175,-0.025 -0.362,0.062 -0.437,0.225l-0.8,1.587l-0.275,-1.762c-0.025,-0.175 -0.175,-0.325 -0.35,-0.35l-1.775,-0.275l1.6,-0.813l-0.013,0.013Z" style="fill:#2f4858;fill-rule:nonzero;"/><path d="M80.113,65.325c-0.888,0 -1.6,0.712 -1.6,1.6c-0.001,0.888 0.712,1.6 1.599,1.6c0.888,0 1.6,-0.712 1.6,-1.6c0,-0.888 -0.712,-1.6 -1.6,-1.6Zm0,2.362c-0.412,0.001 -0.762,-0.337 -0.762,-0.762c0,-0.413 0.337,-0.763 0.762,-0.763c0.413,0.001 0.763,0.338 0.763,0.763c0,0.413 -0.338,0.763 -0.763,0.763Z" style="fill:#2f4858;fill-rule:nonzero;"/><path d="M83.263,58.425c-0.738,0 -1.338,0.6 -1.338,1.337c0,0.738 0.6,1.338 1.337,1.338c0.738,0 1.338,-0.6 1.338,-1.338c0,-0.737 -0.6,-1.337 -1.338,-1.337Zm0,1.825c-0.275,0 -0.5,-0.225 -0.5,-0.5c0,-0.275 0.225,-0.5 0.5,-0.5c0.275,0 0.5,0.225 0.5,0.5c0,0.275 -0.225,0.5 -0.5,0.5Z" style="fill:#2f4858;fill-rule:nonzero;"/><path d="M64.65,51.275c0.888,0 1.6,-0.712 1.6,-1.6c0,-0.888 -0.713,-1.6 -1.6,-1.6c-0.888,0 -1.6,0.712 -1.6,1.6c0,0.888 0.712,1.6 1.6,1.6Zm0,-2.362c0.412,0 0.763,0.337 0.763,0.762c-0.001,0.413 -0.338,0.763 -0.763,0.763c-0.412,0 -0.763,-0.338 -0.763,-0.763c0,-0.412 0.338,-0.762 0.763,-0.762Z" style="fill:#2f4858;fill-rule:nonzero;"/><path d="M77.525,56.737c-0.237,0 -0.425,0.188 -0.425,0.425l0,0.563c0,0.237 0.188,0.425 0.425,0.425c0.237,0 0.425,-0.188 0.425,-0.425l0,-0.563c0,-0.237 -0.188,-0.425 -0.425,-0.425Z" style="fill:#2f4858;fill-rule:nonzero;"/><path d="M77.525,59.55c-0.237,0 -0.425,0.187 -0.425,0.425l0,0.562c0,0.238 0.188,0.425 0.425,0.425c0.237,0 0.425,-0.187 0.425,-0.425l0,-0.562c0,-0.238 -0.188,-0.425 -0.425,-0.425Z" style="fill:#2f4858;fill-rule:nonzero;"/><path d="M79.213,59.263c0.237,0 0.424,-0.188 0.424,-0.425c0,-0.238 -0.187,-0.425 -0.425,-0.425l-0.562,0c-0.238,0 -0.425,0.187 -0.425,0.425c0,0.237 0.187,0.425 0.425,0.425l0.562,0Z" style="fill:#2f4858;fill-rule:nonzero;"/><path d="M75.425,58.85c0,0.237 0.188,0.425 0.425,0.425l0.563,0c0.237,0 0.424,-0.188 0.424,-0.425c0,-0.237 -0.187,-0.425 -0.425,-0.425l-0.562,0c-0.238,0 -0.425,0.188 -0.425,0.425Z" style="fill:#2f4858;fill-rule:nonzero;"/><path d="M77.238,63.112c-0.838,0 -1.526,0.688 -1.526,1.525c0,0.375 -0.312,0.688 -0.687,0.688c-0.238,0 -0.425,0.187 -0.425,0.425c0,0.237 0.187,0.425 0.425,0.425c0.837,0 1.525,-0.688 1.525,-1.525c0,-0.375 0.312,-0.688 0.687,-0.688c0.238,0.001 0.425,-0.187 0.425,-0.424c0,-0.238 -0.187,-0.425 -0.425,-0.425Z" style="fill:#2f4858;fill-rule:nonzero;"/><path d="M73.925,51.188c0.112,-0.001 0.225,-0.05 0.3,-0.126c0.075,-0.075 0.125,-0.187 0.125,-0.3c0,-0.112 -0.05,-0.225 -0.125,-0.3c-0.075,-0.075 -0.188,-0.125 -0.3,-0.125c-0.112,0 -0.225,0.05 -0.3,0.125c-0.075,0.075 -0.125,0.188 -0.125,0.3c0,0.113 0.05,0.225 0.125,0.3c0.075,0.075 0.188,0.125 0.3,0.125Z" style="fill-rule:nonzero;"/><path d="M68.3,62.6c0.037,0.013 0.063,0.013 0.1,0.013c0.2,0 0.375,-0.138 0.412,-0.338l0.413,-1.85c0.05,-0.237 -0.088,-0.462 -0.325,-0.512c-0.225,-0.05 -0.463,0.087 -0.513,0.325l-0.412,1.85c-0.05,0.237 0.088,0.462 0.325,0.512Z" style="fill:#2f4858;fill-rule:nonzero;"/><path d="M66.275,62.013c0.088,0.125 0.225,0.2 0.362,0.2c0.076,0 0.163,-0.025 0.225,-0.063c0.201,-0.125 0.263,-0.387 0.138,-0.587l-1.013,-1.6c-0.124,-0.2 -0.387,-0.263 -0.587,-0.138c-0.2,0.125 -0.263,0.388 -0.138,0.588l1.013,1.6Z" style="fill:#2f4858;fill-rule:nonzero;"/><path d="M70.15,63.013c0.075,0 0.162,-0.025 0.225,-0.063l1.6,-1.012c0.2,-0.125 0.263,-0.388 0.138,-0.588c-0.126,-0.2 -0.388,-0.262 -0.588,-0.137l-1.6,1.012c-0.2,0.125 -0.263,0.388 -0.138,0.588c0.088,0.125 0.225,0.2 0.363,0.2Z" style="fill:#2f4858;fill-rule:nonzero;"/><path d="M75.475,78.4l-2.713,-1.175l-0.875,-3.25c1.125,-0.425 2.075,-1.288 2.6,-2.388c0.513,-1.075 0.55,-2.249 0.1,-3.325c0,-0.012 -0.025,-0.075 -0.037,-0.087l-1.863,-4.187c-0.087,-0.188 -0.3,-0.3 -0.5,-0.238l-4.1,1.1l0.063,-0.612c0.025,-0.213 -0.113,-0.4 -0.313,-0.463l-1.337,-0.375c-0.225,-0.062 -0.463,0.075 -0.525,0.3c-0.063,0.225 0.075,0.463 0.3,0.525l0.987,0.275l-0.187,1.775c-1.213,-0.563 -2.813,-0.5 -3.925,0.213c-0.888,0.575 -2.313,0.587 -3.275,0.062l1.6,-3.587l1.087,0.287c0.225,0.063 0.463,-0.075 0.525,-0.3c0.063,-0.225 -0.075,-0.462 -0.3,-0.525l-1.437,-0.387c-0.2,-0.05 -0.413,0.05 -0.5,0.237l-1.863,4.188c-0.487,1.087 -0.462,2.3 0.063,3.412c0.525,1.1 1.475,1.975 2.6,2.388l-0.875,3.25l-2.713,1.175c-0.487,0.212 -0.787,0.687 -0.75,1.2c0.038,0.512 0.4,0.925 0.95,1.087l0.013,0l3.8,1.013l0.012,0c0.125,0.037 0.25,0.05 0.375,0.05c0.413,0 0.775,-0.175 0.988,-0.513c0.287,-0.425 0.262,-1 -0.05,-1.412l-1.763,-2.375l0.875,-3.25c0.25,0.037 0.513,0.062 0.763,0.062c0.95,0 1.9,-0.287 2.687,-0.825c0.075,-0.05 0.138,-0.1 0.2,-0.15c0.313,0.8 0.888,1.488 1.663,1.963c0.75,0.475 1.65,0.712 2.525,0.712c0.25,0 0.5,-0.025 0.75,-0.062l0.875,3.25l-1.763,2.375c-0.312,0.425 -0.337,0.987 -0.05,1.412c0.225,0.325 0.575,0.513 0.988,0.513c0.125,0 0.237,-0.013 0.375,-0.05l0.012,0l3.8,-1.025l0.013,0c0.55,-0.163 0.912,-0.575 0.95,-1.088c0.037,-0.512 -0.275,-0.987 -0.75,-1.2l-0.075,0.025Zm-7.5,-12.638l4.062,-1.087l1.6,3.588c-0.962,0.525 -2.375,0.512 -3.275,-0.063c-0.7,-0.45 -1.65,-0.65 -2.587,-0.562l0.2,-1.875Zm-5.275,13.3c-0.1,0.162 -0.313,0.137 -0.438,0.1l-3.787,-1.013c-0.112,-0.037 -0.313,-0.125 -0.325,-0.312c-0.013,-0.125 0.063,-0.288 0.237,-0.363l2.6,-1.112l1.688,2.275c0.112,0.15 0.1,0.325 0.025,0.425Zm2.725,-8.05c-0.9,0.625 -2.112,0.837 -3.163,0.55c-1.05,-0.275 -1.987,-1.075 -2.462,-2.063c-0.325,-0.687 -0.413,-1.437 -0.237,-2.137c0.575,0.287 1.237,0.437 1.9,0.437c0.762,0 1.525,-0.187 2.137,-0.587c0.925,-0.588 2.4,-0.588 3.363,-0.013l-0.15,1.5c-0.1,0.938 -0.588,1.75 -1.388,2.3l0,0.013Zm2.813,1.8c-0.725,-0.45 -1.225,-1.125 -1.438,-1.9c0.488,-0.6 0.788,-1.325 0.875,-2.113l0.025,-0.287c0.8,-0.125 1.625,0.025 2.213,0.4c0.612,0.387 1.375,0.587 2.137,0.587c0.663,0 1.338,-0.15 1.9,-0.437c0.175,0.7 0.088,1.45 -0.237,2.137c-0.475,0.988 -1.413,1.788 -2.463,2.063c-1,0.262 -2.125,0.1 -3.025,-0.463l0.013,0.013Zm6.812,7.05l-3.787,1.012c-0.125,0.025 -0.325,0.05 -0.438,-0.1c-0.062,-0.1 -0.087,-0.275 0.025,-0.425l1.688,-2.275l2.6,1.125c0.175,0.075 0.25,0.238 0.237,0.35c-0.012,0.188 -0.212,0.275 -0.325,0.313Z" style="fill:#2f4858;fill-rule:nonzero;"/><path d="M64.463,63.75c0.237,0 0.424,-0.188 0.424,-0.425c0,-0.237 -0.187,-0.425 -0.425,-0.425c-0.237,0 -0.425,0.188 -0.425,0.425c0,0.237 0.188,0.425 0.425,0.425Z" style="fill:#2f4858;fill-rule:nonzero;"/><path d="M18.6,48.538l0,8.399c0,0.263 0.212,0.463 0.462,0.463c0.263,0 0.463,-0.213 0.463,-0.463l0,-7.937l16.6,0l0,16.6l-7.988,0c-0.262,0 -0.462,0.212 -0.462,0.462c0,0.263 0.212,0.463 0.462,0.463l8.45,0c0.263,0 0.463,-0.213 0.463,-0.463l0,-17.525c0,-0.262 -0.213,-0.462 -0.463,-0.462l-17.525,0c-0.262,0 -0.462,0.212 -0.462,0.462Z" style="fill:#2f4858;fill-rule:nonzero;"/><path d="M18.6,66.063c0,0.262 0.212,0.462 0.462,0.462l6.425,0c0.263,0 0.463,-0.213 0.463,-0.463l0,-6.425c0,-0.262 -0.213,-0.462 -0.463,-0.462l-6.425,0c-0.262,0 -0.462,0.212 -0.462,0.462l0,6.425Zm0.925,-5.962l5.5,0l0,5.5l-5.5,0l0,-5.5Z" style="fill:#2f4858;fill-rule:nonzero;"/><path d="M27.337,53.2c-0.262,0 -0.462,0.212 -0.462,0.462l0,4.125c0,0.263 0.212,0.463 0.462,0.463l4.125,0c0.263,0 0.463,-0.213 0.463,-0.463c0,-0.262 -0.213,-0.462 -0.463,-0.462l-3.012,0l5.238,-5.237c0.174,-0.175 0.174,-0.475 -0.001,-0.65c-0.175,-0.175 -0.475,-0.175 -0.65,0l-5.237,5.237l0,-3.013c0,-0.262 -0.213,-0.462 -0.463,-0.462Z" style="fill:#2f4858;fill-rule:nonzero;"/><path d="M80.037,22.513c-0.012,-0.013 -2.7,-2.576 -2.7,-2.576c-0.1,-0.1 -0.212,-0.2 -0.412,-0.2l-10.825,0c-0.313,0 -0.575,0.263 -0.575,0.575l0,1.763l-3.813,0.65c-0.299,0.05 -0.512,0.35 -0.462,0.65l0.188,1.125c-1.238,0.413 -2.513,0.85 -3.738,1.288c-0.287,0.112 -0.437,0.424 -0.337,0.724l2.45,6.8c0.05,0.138 0.175,0.226 0.312,0.226c0.038,0 0.075,-0.013 0.113,-0.025c0.175,-0.063 0.262,-0.25 0.2,-0.425l-2.413,-6.7c1.163,-0.413 2.363,-0.825 3.525,-1.213l1.15,6.713l1.325,7.737c0.05,0.275 0.287,0.463 0.563,0.463c0.025,0 0.062,0 0.087,-0.013l3.588,-0.612l2.8,-0.476l-4.225,1.513l-3.325,1.2l-2.588,-7.188c-0.062,-0.175 -0.25,-0.262 -0.425,-0.2c-0.175,0.063 -0.262,0.251 -0.2,0.425l2.625,7.288c0.088,0.225 0.3,0.375 0.525,0.375c0.063,0 0.125,-0.012 0.188,-0.037l3.425,-1.238l7.787,-2.8l1.487,-0.25l3.288,0c0.313,0 0.575,-0.262 0.575,-0.575l0,-14.625c0,-0.2 -0.112,-0.3 -0.188,-0.375l0.026,0.013Zm-0.888,0.075l-1.675,0l-0.037,0c-0.075,0 -0.263,0 -0.313,-0.05c-0.012,-0.013 -0.025,-0.05 -0.025,-0.113l0,-1.812l2.063,1.962l-0.013,0.013Zm0.4,14.825l-13.35,-0.001l0,-6.537c0,-0.188 -0.15,-0.337 -0.337,-0.337c-0.188,0 -0.338,0.149 -0.338,0.337l0,6.638c0,0.312 0.263,0.575 0.575,0.575l6.3,-0.001l-4.225,0.725l-3.487,0.6l-1.313,-7.625l-1.437,-8.412l3.6,-0.613l0,6.575c0,0.188 0.15,0.338 0.337,0.338c0.188,0 0.338,-0.15 0.338,-0.338l0,-8.912l10.212,0l0,2.025c0,0.25 0.075,0.45 0.225,0.587c0.225,0.226 0.55,0.238 0.75,0.238l2.175,0l0,14.15l-0.025,-0.013Z" style="fill:#2f4858;fill-rule:nonzero;"/><path d="M75.25,23.75c-0.188,0 -0.338,0.15 -0.338,0.338c0,0.187 0.15,0.337 0.338,0.337l2.4,0c0.188,0 0.338,-0.15 0.338,-0.337c0,-0.188 -0.15,-0.338 -0.338,-0.338l-2.4,0Z" style="fill:#2f4858;fill-rule:nonzero;"/><path d="M78,24.088c0,-0.188 -0.15,-0.338 -0.338,-0.338c-0.187,0 -0.337,0.15 -0.337,0.338l0,2.337c0,0.188 0.15,0.338 0.337,0.338c0.188,0 0.338,-0.15 0.338,-0.338l0,-2.337Z" style="fill:#2f4858;fill-rule:nonzero;"/><path d="M75.588,24.088c-0.001,-0.188 -0.151,-0.338 -0.338,-0.338c-0.188,0 -0.338,0.15 -0.338,0.338l0,2.337c0,0.188 0.15,0.338 0.338,0.338c0.187,0 0.337,-0.15 0.337,-0.338l0,-2.337Z" style="fill:#2f4858;fill-rule:nonzero;"/><path d="M74.475,24.088c0,-0.188 -0.15,-0.338 -0.338,-0.338c-0.187,0 -0.337,0.15 -0.337,0.338l0,2.337c0,0.188 0.15,0.338 0.337,0.338c0.188,0 0.338,-0.15 0.338,-0.338l0,-2.337Z" style="fill:#2f4858;fill-rule:nonzero;"/><path d="M68.575,24.088c0,-0.188 -0.15,-0.338 -0.338,-0.338c-0.187,0 -0.337,0.15 -0.337,0.338l0,2.337c0,0.188 0.15,0.338 0.337,0.338c0.188,0 0.338,-0.15 0.338,-0.338l0,-2.337Z" style="fill:#2f4858;fill-rule:nonzero;"/><path d="M68.238,23.75c-0.188,0 -0.338,0.15 -0.338,0.338c0,0.187 0.15,0.337 0.337,0.337l5.913,0c0.187,0 0.337,-0.15 0.337,-0.337c0,-0.188 -0.15,-0.338 -0.337,-0.338l-5.913,0Z" style="fill:#2f4858;fill-rule:nonzero;"/><path d="M75.25,26.088c-0.188,0 -0.338,0.15 -0.338,0.337c0,0.188 0.15,0.338 0.338,0.338l2.4,0c0.188,0 0.338,-0.15 0.338,-0.338c0,-0.187 -0.15,-0.337 -0.338,-0.337l-2.4,0Z" style="fill:#2f4858;fill-rule:nonzero;"/><path d="M68.238,26.088c-0.188,0 -0.338,0.15 -0.338,0.337c0,0.188 0.15,0.338 0.337,0.338l5.913,0c0.187,0 0.337,-0.15 0.337,-0.338c0,-0.187 -0.15,-0.337 -0.337,-0.337l-5.913,0Z" style="fill:#2f4858;fill-rule:nonzero;"/><path d="M70.663,32.6c0.187,0 0.337,0.15 0.337,0.337c0,0.188 -0.15,0.338 -0.338,0.338l-2.4,0c-0.187,0 -0.337,-0.15 -0.337,-0.338c0,-0.187 0.15,-0.337 0.337,-0.337l2.4,0Z" style="fill:#2f4858;fill-rule:nonzero;"/><path d="M67.913,32.938c-0.001,-0.188 0.15,-0.338 0.337,-0.338c0.188,0 0.338,0.15 0.338,0.337l0,2.338c0,0.187 -0.15,0.337 -0.338,0.337c-0.188,0 -0.338,-0.15 -0.338,-0.337l0,-2.338Z" style="fill:#2f4858;fill-rule:nonzero;"/><path d="M70.325,32.938c0,-0.188 0.15,-0.338 0.337,-0.338c0.188,0 0.338,0.15 0.338,0.337l0,2.338c0,0.187 -0.15,0.337 -0.338,0.337c-0.187,0 -0.337,-0.15 -0.337,-0.337l0,-2.338Z" style="fill:#2f4858;fill-rule:nonzero;"/><path d="M71.425,32.938c0,-0.188 0.15,-0.338 0.337,-0.338c0.188,0 0.338,0.15 0.338,0.337l0,2.338c0,0.187 -0.15,0.337 -0.338,0.337c-0.187,0 -0.337,-0.15 -0.337,-0.337l0,-2.338Z" style="fill:#2f4858;fill-rule:nonzero;"/><path d="M77.337,32.938c0,-0.188 0.15,-0.338 0.338,-0.338c0.188,0 0.338,0.15 0.338,0.337l0,2.338c0,0.187 -0.15,0.337 -0.338,0.337c-0.188,0 -0.338,-0.15 -0.338,-0.337l0,-2.338Z" style="fill:#2f4858;fill-rule:nonzero;"/><path d="M77.675,32.6c0.187,0 0.337,0.15 0.337,0.337c0,0.188 -0.15,0.338 -0.337,0.338l-5.913,0c-0.187,0 -0.337,-0.15 -0.337,-0.338c0,-0.187 0.15,-0.337 0.337,-0.337l5.913,0Z" style="fill:#2f4858;fill-rule:nonzero;"/><path d="M70.663,34.938c0.187,-0.001 0.337,0.149 0.337,0.337c0,0.187 -0.15,0.337 -0.338,0.337l-2.4,0c-0.187,0 -0.337,-0.15 -0.337,-0.337c0,-0.188 0.15,-0.338 0.337,-0.338l2.4,0Z" style="fill:#2f4858;fill-rule:nonzero;"/><path d="M77.675,34.938c0.187,-0.001 0.337,0.149 0.337,0.337c0,0.187 -0.15,0.337 -0.337,0.337l-5.913,0c-0.187,0 -0.337,-0.15 -0.337,-0.337c0,-0.188 0.15,-0.338 0.337,-0.338l5.913,0Z" style="fill:#2f4858;fill-rule:nonzero;"/><path d="M78,28.538c0,-0.188 -0.15,-0.338 -0.338,-0.338c-0.187,0 -0.337,0.15 -0.337,0.338l0,2.337c0,0.188 0.15,0.337 0.337,0.337c0.188,0 0.338,-0.149 0.338,-0.337l0,-2.337Z" style="fill:#2f4858;fill-rule:nonzero;"/><path d="M68.588,28.538c-0.001,-0.188 -0.151,-0.338 -0.338,-0.338c-0.188,0 -0.338,0.15 -0.338,0.338l0,2.337c0,0.188 0.15,0.337 0.338,0.337c0.187,0 0.337,-0.149 0.337,-0.337l0,-2.337Z" style="fill:#2f4858;fill-rule:nonzero;"/><path d="M68.238,28.2c-0.188,0 -0.338,0.15 -0.338,0.338c0,0.187 0.15,0.337 0.337,0.337l9.425,0c0.188,0 0.338,-0.15 0.338,-0.337c0,-0.188 -0.15,-0.338 -0.338,-0.338l-9.425,0Z" style="fill:#2f4858;fill-rule:nonzero;"/><path d="M68.238,30.538c-0.188,0 -0.338,0.149 -0.338,0.337c0,0.188 0.15,0.337 0.337,0.337l9.425,0c0.188,0 0.338,-0.149 0.338,-0.337c0,-0.188 -0.15,-0.337 -0.338,-0.337l-9.425,0Z" style="fill:#2f4858;fill-rule:nonzero;"/><path d="M32.3,17.313c0,-0.138 -0.112,-0.238 -0.237,-0.238c-0.138,0 -0.238,0.113 -0.238,0.238l0,6.5c0,0.137 0.113,0.237 0.238,0.237c0.137,0 0.237,-0.112 0.237,-0.237l0,-6.5Z" style="fill:#2f4858;fill-rule:nonzero;"/><path d="M32.3,24.888c0,-0.138 -0.112,-0.238 -0.237,-0.238c-0.138,0 -0.238,0.112 -0.238,0.237l0,4.838c0,0.137 0.113,0.238 0.238,0.238c0.137,0 0.237,-0.113 0.237,-0.238l0,-4.837Z" style="fill:#2f4858;fill-rule:nonzero;"/><path d="M32.3,30.65c0,-0.138 -0.112,-0.238 -0.237,-0.238c-0.138,0 -0.238,0.113 -0.238,0.238l0,14.137c0,0.138 0.113,0.238 0.238,0.238c0.137,0 0.237,-0.113 0.237,-0.238l0,-14.137Z" style="fill:#2f4858;fill-rule:nonzero;"/><path d="M32.063,44.588c-0.138,-0.001 -0.238,0.112 -0.238,0.237c0,0.137 0.112,0.237 0.237,0.237l9.85,0c0.138,0 0.238,-0.112 0.238,-0.237c0,-0.138 -0.113,-0.238 -0.238,-0.238l-9.85,0Z" style="fill:#2f4858;fill-rule:nonzero;"/><path d="M32.063,17.075c-0.138,0 -0.238,0.113 -0.238,0.238c0,0.137 0.112,0.237 0.237,0.237l7.775,0c0.138,0 0.238,-0.112 0.238,-0.237c0,-0.138 -0.113,-0.238 -0.238,-0.238l-7.775,0Z" style="fill:#2f4858;fill-rule:nonzero;"/><path d="M40.038,17.138c-0.101,-0.088 -0.251,-0.088 -0.338,0.012c-0.087,0.1 -0.087,0.25 0.013,0.337l2.05,1.95c0.1,0.088 0.25,0.088 0.337,-0.012c0.087,-0.1 0.087,-0.25 -0.013,-0.338l-2.05,-1.95Z" style="fill:#2f4858;fill-rule:nonzero;"/><path d="M39.725,19.075c-0.138,0 -0.237,0.113 -0.237,0.238c0,0.137 0.112,0.237 0.237,0.237l2.2,0c0.138,0 0.237,-0.112 0.237,-0.237c0,-0.138 -0.112,-0.238 -0.237,-0.238l-2.2,0Z" style="fill:#2f4858;fill-rule:nonzero;"/><path d="M39.95,17.55c0,-0.137 -0.112,-0.238 -0.237,-0.238c-0.138,0 -0.238,0.113 -0.238,0.238l0,1.762c0,0.138 0.113,0.238 0.238,0.238c0.137,0 0.237,-0.113 0.237,-0.238l0,-1.762Z" style="fill:#2f4858;fill-rule:nonzero;"/><path d="M42.163,19.263c-0.001,-0.138 -0.113,-0.238 -0.238,-0.238c-0.138,0 -0.237,0.112 -0.237,0.237l0,25.526c0,0.137 0.112,0.237 0.237,0.237c0.138,0 0.237,-0.112 0.237,-0.237l0,-25.525Z" style="fill:#2f4858;fill-rule:nonzero;"/><path d="M38.675,20.488c-0.138,0 -0.238,0.112 -0.238,0.237c0,0.137 0.113,0.238 0.238,0.238l1.725,0c0.137,0 0.237,-0.113 0.237,-0.238c0,-0.137 -0.112,-0.237 -0.237,-0.237l-1.725,0Z" style="fill:#2f4858;fill-rule:nonzero;"/><path d="M40.638,20.738c0,-0.138 -0.113,-0.238 -0.238,-0.238c-0.137,0 -0.237,0.113 -0.237,0.238l0,1.675c0,0.137 0.112,0.237 0.237,0.237c0.138,0 0.238,-0.112 0.238,-0.237l0,-1.675Z" style="fill:#2f4858;fill-rule:nonzero;"/><path d="M38.913,20.738c-0.001,-0.138 -0.113,-0.238 -0.238,-0.238c-0.138,0 -0.237,0.113 -0.237,0.238l0,1.675c0,0.137 0.112,0.237 0.237,0.237c0.138,0 0.237,-0.112 0.237,-0.237l0,-1.675Z" style="fill:#2f4858;fill-rule:nonzero;"/><path d="M38.125,20.738c0,-0.138 -0.112,-0.238 -0.237,-0.238c-0.138,0 -0.238,0.113 -0.238,0.238l0,1.675c0,0.137 0.113,0.237 0.238,0.237c0.137,0 0.237,-0.112 0.237,-0.237l0,-1.675Z" style="fill:#2f4858;fill-rule:nonzero;"/><path d="M33.9,20.738c0,-0.138 -0.112,-0.238 -0.237,-0.238c-0.138,0 -0.238,0.113 -0.238,0.238l0,1.675c0,0.137 0.113,0.237 0.238,0.237c0.137,0 0.237,-0.112 0.237,-0.237l0,-1.675Z" style="fill:#2f4858;fill-rule:nonzero;"/><path d="M33.663,20.488c-0.138,0 -0.238,0.112 -0.238,0.237c0,0.137 0.112,0.238 0.237,0.238l4.225,0c0.138,0 0.238,-0.113 0.238,-0.238c0,-0.137 -0.113,-0.237 -0.238,-0.237l-4.225,0Z" style="fill:#2f4858;fill-rule:nonzero;"/><path d="M38.675,22.163c-0.138,0 -0.238,0.112 -0.238,0.237c0,0.138 0.113,0.238 0.238,0.238l1.725,0c0.137,0 0.237,-0.113 0.237,-0.238c0,-0.137 -0.112,-0.237 -0.237,-0.237l-1.725,0Z" style="fill:#2f4858;fill-rule:nonzero;"/><path d="M33.663,22.163c-0.138,0 -0.238,0.112 -0.238,0.237c0,0.138 0.112,0.238 0.237,0.238l4.225,0c0.138,0 0.238,-0.113 0.238,-0.238c0,-0.137 -0.113,-0.237 -0.238,-0.237l-4.225,0Z" style="fill:#2f4858;fill-rule:nonzero;"/><path d="M35.388,27.163c0.137,0 0.237,0.112 0.237,0.237c0,0.138 -0.112,0.238 -0.237,0.238l-1.725,0c-0.138,0 -0.238,-0.113 -0.238,-0.238c0,-0.137 0.113,-0.237 0.238,-0.237l1.725,0Z" style="fill:#2f4858;fill-rule:nonzero;"/><path d="M33.425,27.4c0,-0.137 0.112,-0.238 0.237,-0.238c0.138,0 0.238,0.113 0.238,0.238l0,1.675c0,0.137 -0.113,0.237 -0.238,0.237c-0.137,0 -0.237,-0.112 -0.237,-0.237l0,-1.675Z" style="fill:#2f4858;fill-rule:nonzero;"/><path d="M35.138,27.4c0,-0.137 0.112,-0.238 0.237,-0.238c0.138,0 0.237,0.113 0.237,0.238l0,1.675c0,0.137 -0.112,0.237 -0.237,0.237c-0.138,0 -0.237,-0.112 -0.237,-0.237l0,-1.675Z" style="fill:#2f4858;fill-rule:nonzero;"/><path d="M35.938,27.4c-0.001,-0.137 0.112,-0.238 0.237,-0.238c0.137,0 0.237,0.113 0.237,0.238l0,1.675c0,0.137 -0.112,0.237 -0.237,0.237c-0.138,0 -0.238,-0.112 -0.238,-0.237l0,-1.675Z" style="fill:#2f4858;fill-rule:nonzero;"/><path d="M40.163,27.4c-0.001,-0.137 0.112,-0.238 0.237,-0.238c0.137,0 0.237,0.113 0.237,0.238l0,1.675c0,0.137 -0.112,0.237 -0.237,0.237c-0.138,0 -0.238,-0.112 -0.238,-0.237l0,-1.675Z" style="fill:#2f4858;fill-rule:nonzero;"/><path d="M40.4,27.163c0.138,0 0.237,0.112 0.237,0.237c0,0.138 -0.112,0.238 -0.237,0.238l-4.225,0c-0.138,0 -0.237,-0.113 -0.237,-0.238c0,-0.137 0.112,-0.237 0.237,-0.237l4.225,0Z" style="fill:#2f4858;fill-rule:nonzero;"/><path d="M35.388,28.837c0.137,0 0.237,0.113 0.237,0.238c0,0.137 -0.112,0.238 -0.237,0.238l-1.725,0c-0.138,0 -0.238,-0.113 -0.238,-0.238c0,-0.137 0.113,-0.238 0.238,-0.238l1.725,0Z" style="fill:#2f4858;fill-rule:nonzero;"/><path d="M40.4,28.837c0.138,0 0.237,0.113 0.237,0.238c0,0.137 -0.112,0.238 -0.237,0.238l-4.225,0c-0.138,0 -0.237,-0.113 -0.237,-0.238c0,-0.137 0.112,-0.238 0.237,-0.238l4.225,0Z" style="fill:#2f4858;fill-rule:nonzero;"/><path d="M38.675,30.5c-0.138,0 -0.238,0.113 -0.238,0.238c0,0.137 0.113,0.237 0.238,0.237l1.725,0c0.137,0 0.237,-0.112 0.237,-0.237c0,-0.138 -0.112,-0.238 -0.237,-0.238l-1.725,0Z" style="fill:#2f4858;fill-rule:nonzero;"/><path d="M40.638,30.738c0,-0.138 -0.113,-0.238 -0.238,-0.238c-0.137,0 -0.237,0.113 -0.237,0.238l0,3.337c0,0.137 0.112,0.237 0.237,0.237c0.138,0 0.238,-0.112 0.238,-0.237l0,-3.338Z" style="fill:#2f4858;fill-rule:nonzero;"/><path d="M40.638,35.763c0,-0.138 -0.113,-0.238 -0.238,-0.238c-0.137,0 -0.237,0.113 -0.237,0.238l0,3.312c0,0.138 0.112,0.238 0.237,0.238c0.138,0 0.238,-0.113 0.238,-0.238l0,-3.312Z" style="fill:#2f4858;fill-rule:nonzero;"/><path d="M33.9,35.763c0,-0.138 -0.112,-0.238 -0.237,-0.238c-0.138,0 -0.238,0.113 -0.238,0.238l0,3.312c0,0.138 0.113,0.238 0.238,0.238c0.137,0 0.237,-0.113 0.237,-0.238l0,-3.312Z" style="fill:#2f4858;fill-rule:nonzero;"/><path d="M38.913,30.738c-0.001,-0.138 -0.113,-0.238 -0.238,-0.238c-0.138,0 -0.237,0.113 -0.237,0.238l0,3.337c0,0.137 0.112,0.237 0.237,0.237c0.138,0 0.237,-0.112 0.237,-0.237l0,-3.338Z" style="fill:#2f4858;fill-rule:nonzero;"/><path d="M38.125,30.738c0,-0.138 -0.112,-0.238 -0.237,-0.238c-0.138,0 -0.238,0.113 -0.238,0.238l0,1.675c0,0.137 0.113,0.237 0.238,0.237c0.137,0 0.237,-0.112 0.237,-0.237l0,-1.675Z" style="fill:#2f4858;fill-rule:nonzero;"/><path d="M33.9,30.738c0,-0.138 -0.112,-0.238 -0.237,-0.238c-0.138,0 -0.238,0.113 -0.238,0.238l0,1.675c0,0.137 0.113,0.237 0.238,0.237c0.137,0 0.237,-0.112 0.237,-0.237l0,-1.675Z" style="fill:#2f4858;fill-rule:nonzero;"/><path d="M33.663,30.5c-0.138,0 -0.238,0.113 -0.238,0.238c0,0.137 0.112,0.237 0.237,0.237l4.225,0c0.138,0 0.238,-0.112 0.238,-0.237c0,-0.138 -0.113,-0.238 -0.238,-0.238l-4.225,0Z" style="fill:#2f4858;fill-rule:nonzero;"/><path d="M38.675,33.838c-0.138,-0.001 -0.238,0.112 -0.238,0.237c0,0.137 0.113,0.237 0.238,0.237l1.725,0c0.137,0 0.237,-0.112 0.237,-0.237c0,-0.138 -0.112,-0.238 -0.237,-0.238l-1.725,0Z" style="fill:#2f4858;fill-rule:nonzero;"/><path d="M33.663,32.163c-0.138,-0.001 -0.238,0.112 -0.238,0.237c0,0.137 0.112,0.237 0.237,0.237l4.225,0c0.138,0 0.238,-0.112 0.238,-0.237c0,-0.138 -0.113,-0.238 -0.238,-0.238l-4.225,0Z" style="fill:#2f4858;fill-rule:nonzero;"/><path d="M40.638,24.075c0,-0.137 -0.113,-0.238 -0.238,-0.238c-0.137,0 -0.237,0.113 -0.237,0.238l0,1.675c0,0.137 0.112,0.238 0.237,0.238c0.138,0 0.238,-0.113 0.238,-0.238l0,-1.675Z" style="fill:#2f4858;fill-rule:nonzero;"/><path d="M40.638,40.75c0,-0.138 -0.113,-0.237 -0.238,-0.237c-0.137,0 -0.237,0.112 -0.237,0.237l0,1.675c0,0.138 0.112,0.238 0.237,0.238c0.138,0 0.238,-0.113 0.238,-0.238l0,-1.675Z" style="fill:#2f4858;fill-rule:nonzero;"/><path d="M33.913,24.075c-0.001,-0.137 -0.113,-0.238 -0.238,-0.238c-0.138,0 -0.237,0.113 -0.237,0.238l0,1.675c0,0.137 0.112,0.238 0.237,0.238c0.138,0 0.237,-0.113 0.237,-0.238l0,-1.675Z" style="fill:#2f4858;fill-rule:nonzero;"/><path d="M33.913,40.75c-0.001,-0.138 -0.113,-0.237 -0.238,-0.237c-0.138,0 -0.237,0.112 -0.237,0.237l0,1.675c0,0.138 0.112,0.238 0.237,0.238c0.138,0 0.237,-0.113 0.237,-0.238l0,-1.675Z" style="fill:#2f4858;fill-rule:nonzero;"/><path d="M33.663,23.837c-0.138,0 -0.238,0.113 -0.238,0.238c0,0.137 0.112,0.238 0.237,0.238l6.738,0c0.137,0 0.237,-0.113 0.237,-0.238c0,-0.137 -0.112,-0.238 -0.237,-0.238l-6.738,0Z" style="fill:#2f4858;fill-rule:nonzero;"/><path d="M33.663,25.513c-0.138,-0.001 -0.238,0.112 -0.238,0.237c0,0.137 0.112,0.238 0.237,0.238l6.738,0c0.137,0 0.237,-0.113 0.237,-0.238c0,-0.137 -0.112,-0.238 -0.237,-0.238l-6.738,0Z" style="fill:#2f4858;fill-rule:nonzero;"/><path d="M33.725,35.5c-0.138,0 -0.237,0.112 -0.237,0.237c0,0.138 0.112,0.238 0.237,0.238l6.675,0c0.138,0 0.237,-0.113 0.237,-0.238c0,-0.137 -0.112,-0.237 -0.237,-0.237l-6.675,0Z" style="fill:#2f4858;fill-rule:nonzero;"/><path d="M33.75,38.825c-0.138,0 -0.237,0.112 -0.237,0.237c0,0.138 0.112,0.238 0.237,0.238l6.65,0c0.138,0 0.237,-0.113 0.237,-0.238c0,-0.137 -0.112,-0.237 -0.237,-0.237l-6.65,0Z" style="fill:#2f4858;fill-rule:nonzero;"/><path d="M33.75,40.487c-0.138,0 -0.237,0.113 -0.237,0.238c0,0.137 0.112,0.238 0.237,0.238l6.65,0c0.138,0 0.237,-0.113 0.237,-0.238c0,-0.137 -0.112,-0.238 -0.237,-0.238l-6.65,0Z" style="fill:#2f4858;fill-rule:nonzero;"/><path d="M33.763,42.188c-0.138,-0.001 -0.238,0.112 -0.238,0.237c0,0.137 0.113,0.237 0.238,0.237l6.637,0c0.138,0 0.238,-0.112 0.238,-0.237c0,-0.138 -0.113,-0.238 -0.238,-0.238l-6.637,0Z" style="fill:#2f4858;fill-rule:nonzero;"/><path d="M53.3,36.938c0.175,-0.001 0.35,-0.076 0.487,-0.201l1.675,-1.675c0.2,-0.2 0.3,-0.45 0.3,-0.725c0,-0.275 -0.112,-0.537 -0.3,-0.725l-1.675,-1.675c-0.2,-0.2 -0.487,-0.25 -0.75,-0.15c-0.262,0.113 -0.425,0.351 -0.425,0.638l0,1.575c-2.725,0 -4.937,-2.213 -4.937,-4.938l0,-0.55c0,-0.187 -0.15,-0.337 -0.338,-0.337c-0.187,0 -0.337,0.15 -0.337,0.337l0,0.55c0,1.5 0.587,2.913 1.65,3.975c1.062,1.063 2.475,1.65 3.975,1.65c0.375,0 0.687,-0.312 0.687,-0.687l0,-1.575l1.675,1.675c0.063,0.062 0.1,0.15 0.1,0.237c0,0.088 -0.037,0.175 -0.1,0.238l-1.675,1.675l0,-0.375c0,-0.188 -0.15,-0.337 -0.337,-0.337c-0.188,0 -0.337,0.15 -0.337,0.337l0,0.375c0,0.275 0.162,0.525 0.425,0.638c0.087,0.037 0.175,0.05 0.262,0.05l-0.025,0Z" style="fill:#2f4858;fill-rule:nonzero;"/><path d="M61.125,17.25l-16.7,5.4l0.813,3.638l16.7,-5.4l-0.813,-3.638Z" style="fill:#fd8b7c;fill-rule:nonzero;"/><path d="M24.525,40.963l-16.7,5.399l0.812,3.638l16.7,-5.4l-0.812,-3.637Z" style="fill:#fd8b7c;fill-rule:nonzero;"/><path d="M54.888,74.963l-16.7,5.399l0.812,3.638l16.7,-5.4l-0.813,-3.638Z" style="fill:#fd8b7c;fill-rule:nonzero;"/><text x="45.425px" y="23px" style="font-family:'JosefinSans-BoldItalic', 'Josefin Sans';font-weight:700;font-style:italic;font-size:3.75px;fill:#2f4858;">DIVIDE</text><text x="36.6px" y="80.763px" style="font-family:'JosefinSans-BoldItalic', 'Josefin Sans';font-weight:700;font-style:italic;font-size:3.75px;fill:#2f4858;">PUBLISH</text><text x="3.625px" y="46.825px" style="font-family:'JosefinSans-BoldItalic', 'Josefin Sans';font-weight:700;font-style:italic;font-size:3.75px;fill:#2f4858;">OPTIMIZE</text></svg>