<?xml version="1.0" encoding="UTF-8" standalone="no"?><!DOCTYPE svg PUBLIC "-//W3C//DTD SVG 1.1//EN" "http://www.w3.org/Graphics/SVG/1.1/DTD/svg11.dtd"><svg width="100%" height="100%" viewBox="0 0 800 600" version="1.1" xmlns="http://www.w3.org/2000/svg" xmlns:xlink="http://www.w3.org/1999/xlink" xml:space="preserve" xmlns:serif="http://www.serif.com/" style="fill-rule:evenodd;clip-rule:evenodd;stroke-linejoin:round;stroke-miterlimit:1.41421;"><path d="M524.659,486.71c-46.181,31.017 -298.109,-93.425 -302.312,-149.331c-4.204,-55.905 226.705,-210.991 277.09,-186.102c50.386,24.888 71.405,304.415 25.222,335.433Z" style="fill:#fdefce;"/><g id="XMLID_400_"><path id="XMLID_446_" d="M639.173,335.974c0.462,2.917 2.645,5.097 5.562,5.555c0.366,0.057 0.729,0.085 1.087,0.085c2.496,0 4.742,-1.365 5.907,-3.668l5.413,-10.697l11.883,1.894c2.915,0.465 5.661,-0.934 7.001,-3.56c1.34,-2.627 0.859,-5.673 -1.227,-7.758l-8.544,-8.544l5.464,-10.706c1.342,-2.631 0.859,-5.678 -1.232,-7.764c-2.091,-2.086 -5.139,-2.562 -7.767,-1.213l-10.67,5.478l-8.515,-8.516c-2.088,-2.087 -5.135,-2.568 -7.764,-1.223c-2.628,1.344 -4.023,4.096 -3.552,7.011l1.92,11.895l-10.744,5.463c-2.631,1.337 -4.032,4.085 -3.57,7c0.463,2.914 2.645,5.093 5.561,5.551l11.913,1.871l1.874,11.846Zm0.207,-26.842c1.305,-0.664 2.031,-2.093 1.798,-3.538l-2.283,-14.151l10.129,10.128c1.034,1.034 2.617,1.283 3.918,0.615l12.702,-6.519l-6.498,12.733c-0.664,1.3 -0.414,2.879 0.618,3.911l10.153,10.156l-14.14,-2.254c-1.446,-0.23 -2.873,0.5 -3.534,1.805l-6.446,12.735l-2.23,-14.097c-0.228,-1.442 -1.36,-2.573 -2.803,-2.8l-14.165,-2.226l12.781,-6.498Z" style="fill:#2f4858;fill-rule:nonzero;"/><path id="XMLID_451_" d="M640.856,422.624c-7.054,0 -12.793,5.739 -12.793,12.793c0,7.054 5.739,12.793 12.793,12.793c7.054,0 12.793,-5.739 12.793,-12.793c0,-7.054 -5.738,-12.793 -12.793,-12.793Zm0,18.853c-3.341,0 -6.06,-2.719 -6.06,-6.06c0,-3.341 2.719,-6.06 6.06,-6.06c3.342,0 6.06,2.719 6.06,6.06c0,3.341 -2.718,6.06 -6.06,6.06Z" style="fill:#2f4858;fill-rule:nonzero;"/><path id="XMLID_454_" d="M666.081,367.411c-5.893,0 -10.687,4.794 -10.687,10.687c0,5.892 4.794,10.686 10.687,10.686c5.892,0 10.686,-4.794 10.686,-10.686c0,-5.893 -4.794,-10.687 -10.686,-10.687Zm0,14.64c-2.18,0 -3.953,-1.773 -3.953,-3.953c0,-2.18 1.773,-3.953 3.953,-3.953c2.179,0 3.953,1.773 3.953,3.953c0,2.18 -1.774,3.953 -3.953,3.953Z" style="fill:#2f4858;fill-rule:nonzero;"/><path id="XMLID_1123_" d="M517.189,310.179c7.054,0 12.793,-5.739 12.793,-12.793c0,-7.054 -5.739,-12.793 -12.793,-12.793c-7.054,0 -12.793,5.739 -12.793,12.793c0,7.054 5.739,12.793 12.793,12.793Zm0,-18.853c3.342,0 6.06,2.718 6.06,6.06c0,3.341 -2.718,6.06 -6.06,6.06c-3.341,0 -6.06,-2.719 -6.06,-6.06c0,-3.342 2.719,-6.06 6.06,-6.06Z" style="fill:#2f4858;fill-rule:nonzero;"/><path id="XMLID_1125_" d="M620.208,353.945c-1.859,0 -3.367,1.507 -3.367,3.367l0,4.489c0,1.859 1.508,3.366 3.367,3.366c1.859,0 3.366,-1.507 3.366,-3.366l0,-4.489c0,-1.86 -1.507,-3.367 -3.366,-3.367Z" style="fill:#2f4858;fill-rule:nonzero;"/><path id="XMLID_1126_" d="M620.208,376.389c-1.859,0 -3.367,1.507 -3.367,3.367l0,4.488c0,1.86 1.508,3.367 3.367,3.367c1.859,0 3.366,-1.507 3.366,-3.367l0,-4.488c0,-1.86 -1.507,-3.367 -3.366,-3.367Z" style="fill:#2f4858;fill-rule:nonzero;"/><path id="XMLID_1128_" d="M633.674,374.145c1.86,0 3.367,-1.508 3.367,-3.367c0,-1.859 -1.507,-3.367 -3.367,-3.367l-4.489,0c-1.859,0 -3.366,1.508 -3.366,3.367c0,1.859 1.507,3.367 3.366,3.367l4.489,0Z" style="fill:#2f4858;fill-rule:nonzero;"/><path id="XMLID_1129_" d="M603.375,370.778c0,1.859 1.507,3.367 3.366,3.367l4.489,0c1.859,0 3.367,-1.508 3.367,-3.367c0,-1.859 -1.508,-3.367 -3.367,-3.367l-4.489,0c-1.859,0 -3.366,1.508 -3.366,3.367Z" style="fill:#2f4858;fill-rule:nonzero;"/><path id="XMLID_1132_" d="M617.854,404.888c-6.746,0 -12.235,5.489 -12.235,12.235c0,3.033 -2.468,5.501 -5.502,5.501c-1.859,0 -3.366,1.507 -3.366,3.367c0,1.859 1.507,3.366 3.366,3.366c6.747,0 12.235,-5.488 12.235,-12.234c0,-3.034 2.468,-5.502 5.502,-5.502c1.859,0 3.366,-1.507 3.366,-3.366c0,-1.86 -1.507,-3.367 -3.366,-3.367Z" style="fill:#2f4858;fill-rule:nonzero;"/><path id="XMLID_1133_" d="M591.376,309.506c0.886,0 1.754,-0.361 2.38,-0.987c0.626,-0.626 0.987,-1.495 0.987,-2.38c0,-0.885 -0.36,-1.754 -0.987,-2.38c-0.626,-0.626 -1.491,-0.987 -2.38,-0.987c-0.885,0 -1.754,0.361 -2.38,0.987c-0.626,0.626 -0.987,1.495 -0.987,2.38c0,0.885 0.361,1.754 0.987,2.38c0.626,0.626 1.495,0.987 2.38,0.987Z" style="fill-rule:nonzero;"/></g><g><path d="M546.383,400.809c0.254,0.057 0.507,0.085 0.757,0.085c1.569,0 2.986,-1.085 3.345,-2.682l3.319,-14.752c0.416,-1.851 -0.745,-3.69 -2.594,-4.107c-1.849,-0.419 -3.686,0.745 -4.102,2.597l-3.319,14.751c-0.416,1.852 0.745,3.691 2.594,4.108Z" style="fill:#2f4858;fill-rule:nonzero;"/><path d="M530.208,396.128c0.653,1.034 1.766,1.6 2.905,1.6c0.626,0 1.261,-0.172 1.83,-0.531c1.602,-1.014 2.08,-3.137 1.067,-4.742l-8.063,-12.776c-1.013,-1.605 -3.132,-2.083 -4.735,-1.07c-1.602,1.014 -2.08,3.137 -1.067,4.741l8.063,12.778Z" style="fill:#2f4858;fill-rule:nonzero;"/><path d="M561.168,404.058c0.627,0 1.261,-0.172 1.831,-0.532l12.769,-8.085c1.602,-1.015 2.08,-3.137 1.067,-4.741c-1.013,-1.604 -3.133,-2.083 -4.735,-1.068l-12.769,8.084c-1.602,1.015 -2.08,3.137 -1.067,4.741c0.653,1.035 1.766,1.601 2.904,1.601Z" style="fill:#2f4858;fill-rule:nonzero;"/><path d="M603.763,527.193l-21.733,-9.371l-6.967,-26.046c8.992,-3.364 16.629,-10.318 20.82,-19.121c4.099,-8.608 4.375,-18.01 0.801,-26.567c-0.026,-0.064 -0.237,-0.557 -0.318,-0.74l-14.94,-33.462c-0.688,-1.541 -2.393,-2.353 -4.021,-1.916l-32.837,8.809l0.504,-4.868c0.173,-1.67 -0.885,-3.221 -2.502,-3.667l-10.749,-2.966c-1.827,-0.505 -3.716,0.57 -4.22,2.4c-0.503,1.829 0.57,3.721 2.397,4.226l7.947,2.193l-1.467,14.173c-9.746,-4.475 -22.542,-3.997 -31.366,1.673c-7.148,4.594 -18.511,4.669 -26.193,0.493l12.827,-28.719l8.665,2.326c1.829,0.491 3.712,-0.596 4.203,-2.43c0.491,-1.833 -0.596,-3.717 -2.426,-4.209l-11.492,-3.085c-1.628,-0.438 -3.333,0.375 -4.021,1.916l-14.95,33.473c-3.902,8.747 -3.729,18.441 0.486,27.296c4.192,8.805 11.832,15.764 20.827,19.13l-6.967,26.046l-21.736,9.362c-3.871,1.672 -6.297,5.535 -6.037,9.613c0.26,4.073 3.164,7.391 7.579,8.661c0.02,0.006 0.04,0.011 0.06,0.016l30.383,8.145c0.018,0.005 0.036,0.01 0.054,0.014c1.01,0.253 2.005,0.377 2.967,0.377c3.287,0 6.182,-1.442 7.931,-4.07c2.264,-3.4 2.092,-7.96 -0.428,-11.347l-14.143,-18.991l6.967,-26.045c2.011,0.338 4.05,0.506 6.092,0.506c7.573,0 15.176,-2.292 21.498,-6.646c0.555,-0.382 1.094,-0.778 1.619,-1.186c2.54,6.399 7.139,11.862 13.33,15.723c6.035,3.763 13.163,5.734 20.209,5.734c2.022,0 4.036,-0.164 6.016,-0.493l6.968,26.047l-14.143,18.992c-2.522,3.387 -2.698,7.947 -0.437,11.347c1.75,2.633 4.648,4.077 7.939,4.077c0.958,0 1.949,-0.122 2.954,-0.373c0.02,-0.005 0.039,-0.01 0.059,-0.015l30.383,-8.154c0.019,-0.005 0.039,-0.011 0.057,-0.016c4.424,-1.27 7.332,-4.592 7.59,-8.669c0.257,-4.076 -2.171,-7.933 -6.039,-9.596Zm-59.952,-101.096l32.544,-8.73l12.82,28.715c-7.679,4.178 -19.041,4.101 -26.195,-0.497c-5.623,-3.617 -13.245,-5.21 -20.723,-4.47l1.554,-15.018Zm-42.25,106.39c-0.846,1.272 -2.542,1.079 -3.496,0.844l-30.32,-8.128c-0.941,-0.275 -2.499,-0.959 -2.597,-2.485c-0.061,-0.956 0.509,-2.26 1.903,-2.863l20.772,-8.947l13.517,18.151c0.908,1.219 0.751,2.632 0.221,3.428Zm21.808,-64.374c-7.239,4.985 -16.924,6.685 -25.282,4.434l-0.001,0c0,0 -0.001,0 -0.001,-0.001l-0.001,0c-8.357,-2.236 -15.897,-8.558 -19.677,-16.5c-2.637,-5.539 -3.274,-11.478 -1.912,-17.121c4.581,2.312 9.916,3.485 15.235,3.485c6.119,-0.001 12.212,-1.548 17.09,-4.682c7.369,-4.737 19.216,-4.674 26.898,-0.103l-1.247,12.046c-0.774,7.494 -4.716,14.043 -11.102,18.442Zm22.467,14.365c-5.808,-3.622 -9.838,-8.984 -11.493,-15.219c3.895,-4.796 6.304,-10.57 6.955,-16.881l0.233,-2.251c6.412,-0.963 13.031,0.212 17.741,3.242c4.883,3.138 10.978,4.686 17.1,4.686c5.316,0 10.65,-1.173 15.227,-3.483c1.363,5.645 0.727,11.585 -1.911,17.125c-3.78,7.939 -11.315,14.256 -19.672,16.49l-0.001,0l-0.001,0.001c-0.001,0 -0.002,0 -0.003,0.001c-7.968,2.147 -17.005,0.76 -24.175,-3.711Zm54.51,56.365l-30.319,8.138c-0.953,0.233 -2.648,0.423 -3.493,-0.85c-0.53,-0.796 -0.685,-2.209 0.225,-3.43l13.517,-18.152l20.775,8.958c1.392,0.598 1.96,1.896 1.9,2.848c-0.096,1.528 -1.661,2.213 -2.605,2.488Z" style="fill:#2f4858;fill-rule:nonzero;"/><path d="M515.733,410.029c1.896,0 3.432,-1.538 3.432,-3.436c0,-1.898 -1.536,-3.437 -3.432,-3.437l-0.02,0c-1.895,0 -3.422,1.539 -3.422,3.437c0.001,1.898 1.547,3.436 3.442,3.436Z" style="fill:#2f4858;fill-rule:nonzero;"/></g><g><path d="M148.81,288.294l0,67.231c0,2.052 1.66,3.712 3.712,3.712c2.052,0 3.712,-1.66 3.712,-3.712l0,-63.549l132.833,0l0,132.833l-63.942,0c-2.052,0 -3.712,1.659 -3.712,3.711c0,2.052 1.66,3.712 3.712,3.712l67.593,0c2.052,0 3.712,-1.66 3.712,-3.712l0,-140.226c0,-2.052 -1.66,-3.712 -3.712,-3.712l-140.196,0c-2.052,0 -3.712,1.66 -3.712,3.712Z" style="fill:#2f4858;fill-rule:nonzero;"/><path d="M148.81,428.49c0,2.052 1.66,3.712 3.712,3.712l51.389,0c2.052,0 3.712,-1.66 3.712,-3.712l0,-51.389c0,-2.052 -1.66,-3.712 -3.712,-3.712l-51.389,0c-2.052,0 -3.712,1.66 -3.712,3.712l0,51.389Zm7.393,-47.707l44.027,0l0,44.026l-44.027,0l0,-44.026Z" style="fill:#2f4858;fill-rule:nonzero;"/><path d="M218.667,325.591c-2.052,0 -3.712,1.66 -3.712,3.712l0,33.042c0,2.052 1.66,3.712 3.712,3.712l33.042,0c2.052,0 3.712,-1.66 3.712,-3.712c0,-2.052 -1.66,-3.711 -3.712,-3.711l-24.11,0l41.854,-41.854c1.448,-1.449 1.448,-3.772 0,-5.22c-1.449,-1.449 -3.772,-1.449 -5.221,0l-41.853,41.853l0,-24.11c0,-2.052 -1.66,-3.712 -3.712,-3.712Z" style="fill:#2f4858;fill-rule:nonzero;"/></g><g><path d="M640.338,80.139c-0.108,-0.102 -21.62,-20.617 -21.62,-20.617c-0.823,-0.79 -1.673,-1.605 -3.261,-1.605l-86.605,0c-2.529,0 -4.587,2.058 -4.587,4.587l0,14.087l-30.524,5.233c-2.447,0.429 -4.092,2.77 -3.668,5.214l1.549,9.033c-9.921,3.339 -20.107,6.78 -29.94,10.312c-2.324,0.85 -3.543,3.434 -2.714,5.771l19.56,54.375c0.394,1.094 1.425,1.775 2.525,1.775c0.301,0 0.608,-0.051 0.907,-0.159c1.395,-0.501 2.118,-2.038 1.617,-3.432l-19.271,-53.571c9.264,-3.317 18.858,-6.563 28.234,-9.719l9.218,53.741l10.607,61.892c0.383,2.185 2.304,3.74 4.471,3.74c0.246,0 0.495,-0.02 0.744,-0.061l28.729,-4.931l22.449,-3.848l-33.763,12.136l-26.625,9.573l-20.678,-57.513c-0.501,-1.394 -2.037,-2.118 -3.432,-1.617c-1.394,0.501 -2.117,2.038 -1.616,3.432l20.97,58.33c0.671,1.835 2.409,2.975 4.245,2.975c0.508,0 1.023,-0.087 1.526,-0.271l27.424,-9.86l62.272,-22.382l11.897,-2.039l26.28,0c2.529,0 4.587,-2.063 4.587,-4.598l0,-116.96c0.001,-1.606 -0.871,-2.425 -1.507,-3.023Zm-7.107,0.635l-13.424,0l-0.333,0.002c-0.643,0.004 -2.148,0.015 -2.529,-0.364c-0.088,-0.087 -0.191,-0.38 -0.191,-0.923l-0.031,-14.457l16.508,15.742Zm3.249,118.58l-106.85,0l0,-52.283c0,-1.482 -1.201,-2.683 -2.683,-2.683c-1.481,0 -2.682,1.201 -2.682,2.683l0,53.05c0,2.535 2.058,4.598 4.587,4.598l50.368,0l-33.818,5.797l-27.894,4.787l-10.462,-61.046l-11.542,-67.292l28.76,-4.93l0,52.588c0,1.482 1.201,2.683 2.683,2.683c1.482,0 2.683,-1.201 2.683,-2.683l0,-71.341l81.723,0l0.035,16.213c0,1.965 0.598,3.554 1.777,4.725c1.811,1.798 4.371,1.923 5.96,1.923c0.136,0 0.266,-0.001 0.387,-0.002l16.968,-0.001l0,113.214Z" style="fill:#2f4858;fill-rule:nonzero;"/><g id="lines"><g><path d="M602.033,77.216c-1.475,0 -2.672,1.197 -2.672,2.672c0,1.474 1.197,2.672 2.672,2.672l19.245,0c1.475,0 2.672,-1.198 2.672,-2.672c0,-1.475 -1.197,-2.672 -2.672,-2.672l-19.245,0Z" style="fill:#2f4858;"/><path d="M623.95,79.888c0,-1.475 -1.197,-2.672 -2.672,-2.672c-1.474,0 -2.671,1.197 -2.671,2.672l0,18.716c0,1.475 1.197,2.672 2.671,2.672c1.475,0 2.672,-1.197 2.672,-2.672l0,-18.716Z" style="fill:#2f4858;"/><path d="M604.705,79.888c0,-1.475 -1.197,-2.672 -2.672,-2.672c-1.475,0 -2.672,1.197 -2.672,2.672l0,18.716c0,1.475 1.197,2.672 2.672,2.672c1.475,0 2.672,-1.197 2.672,-2.672l0,-18.716Z" style="fill:#2f4858;"/><path d="M595.849,79.888c0,-1.475 -1.197,-2.672 -2.672,-2.672c-1.475,0 -2.672,1.197 -2.672,2.672l0,18.716c0,1.475 1.197,2.672 2.672,2.672c1.475,0 2.672,-1.197 2.672,-2.672l0,-18.716Z" style="fill:#2f4858;"/><path d="M548.583,79.888c0,-1.475 -1.197,-2.672 -2.672,-2.672c-1.474,0 -2.672,1.197 -2.672,2.672l0,18.716c0,1.475 1.198,2.672 2.672,2.672c1.475,0 2.672,-1.197 2.672,-2.672l0,-18.716Z" style="fill:#2f4858;"/><path d="M545.911,77.216c-1.474,0 -2.672,1.197 -2.672,2.672c0,1.474 1.198,2.672 2.672,2.672l47.266,0c1.475,0 2.672,-1.198 2.672,-2.672c0,-1.475 -1.197,-2.672 -2.672,-2.672l-47.266,0Z" style="fill:#2f4858;"/><path d="M602.033,95.933c-1.475,0 -2.672,1.197 -2.672,2.671c0,1.475 1.197,2.672 2.672,2.672l19.245,0c1.475,0 2.672,-1.197 2.672,-2.672c0,-1.474 -1.197,-2.671 -2.672,-2.671l-19.245,0Z" style="fill:#2f4858;"/><path d="M545.911,95.933c-1.474,0 -2.672,1.197 -2.672,2.671c0,1.475 1.198,2.672 2.672,2.672l47.266,0c1.475,0 2.672,-1.197 2.672,-2.672c0,-1.474 -1.197,-2.671 -2.672,-2.671l-47.266,0Z" style="fill:#2f4858;"/></g><g><path d="M565.157,151.823c1.474,0 2.672,1.197 2.672,2.672c0,1.475 -1.198,2.672 -2.672,2.672l-19.246,0c-1.474,0 -2.672,-1.197 -2.672,-2.672c0,-1.475 1.198,-2.672 2.672,-2.672l19.246,0Z" style="fill:#2f4858;"/><path d="M543.239,154.495c0,-1.475 1.198,-2.672 2.672,-2.672c1.475,0 2.672,1.197 2.672,2.672l0,18.716c0,1.475 -1.197,2.672 -2.672,2.672c-1.474,0 -2.672,-1.197 -2.672,-2.672l0,-18.716Z" style="fill:#2f4858;"/><path d="M562.485,154.495c0,-1.475 1.197,-2.672 2.672,-2.672c1.474,0 2.672,1.197 2.672,2.672l0,18.716c0,1.475 -1.198,2.672 -2.672,2.672c-1.475,0 -2.672,-1.197 -2.672,-2.672l0,-18.716Z" style="fill:#2f4858;"/><path d="M571.341,154.495c0,-1.475 1.197,-2.672 2.672,-2.672c1.474,0 2.672,1.197 2.672,2.672l0,18.716c0,1.475 -1.198,2.672 -2.672,2.672c-1.475,0 -2.672,-1.197 -2.672,-2.672l0,-18.716Z" style="fill:#2f4858;"/><path d="M618.607,154.495c0,-1.475 1.197,-2.672 2.671,-2.672c1.475,0 2.672,1.197 2.672,2.672l0,18.716c0,1.475 -1.197,2.672 -2.672,2.672c-1.474,0 -2.671,-1.197 -2.671,-2.672l0,-18.716Z" style="fill:#2f4858;"/><path d="M621.278,151.823c1.475,0 2.672,1.197 2.672,2.672c0,1.475 -1.197,2.672 -2.672,2.672l-47.265,0c-1.475,0 -2.672,-1.197 -2.672,-2.672c0,-1.475 1.197,-2.672 2.672,-2.672l47.265,0Z" style="fill:#2f4858;"/><path d="M565.157,170.54c1.474,0 2.672,1.197 2.672,2.671c0,1.475 -1.198,2.672 -2.672,2.672l-19.246,0c-1.474,0 -2.672,-1.197 -2.672,-2.672c0,-1.474 1.198,-2.671 2.672,-2.671l19.246,0Z" style="fill:#2f4858;"/><path d="M621.278,170.54c1.475,0 2.672,1.197 2.672,2.671c0,1.475 -1.197,2.672 -2.672,2.672l-47.265,0c-1.475,0 -2.672,-1.197 -2.672,-2.672c0,-1.474 1.197,-2.671 2.672,-2.671l47.265,0Z" style="fill:#2f4858;"/></g><path d="M623.95,117.321c0,-1.475 -1.197,-2.672 -2.672,-2.672c-1.474,0 -2.671,1.197 -2.671,2.672l0,18.716c0,1.474 1.197,2.671 2.671,2.671c1.475,0 2.672,-1.197 2.672,-2.671l0,-18.716Z" style="fill:#2f4858;"/><path d="M548.7,117.321c0,-1.475 -1.198,-2.672 -2.672,-2.672c-1.475,0 -2.672,1.197 -2.672,2.672l0,18.716c0,1.474 1.197,2.671 2.672,2.671c1.474,0 2.672,-1.197 2.672,-2.671l0,-18.716Z" style="fill:#2f4858;"/><path d="M545.911,114.649c-1.474,0 -2.672,1.197 -2.672,2.672c0,1.474 1.198,2.671 2.672,2.671l75.367,0c1.475,0 2.672,-1.197 2.672,-2.671c0,-1.475 -1.197,-2.672 -2.672,-2.672l-75.367,0Z" style="fill:#2f4858;"/><path d="M545.911,133.291c-1.474,0 -2.672,1.197 -2.672,2.671c0,1.475 1.198,2.672 2.672,2.672l75.367,0c1.475,0 2.672,-1.197 2.672,-2.672c0,-1.474 -1.197,-2.671 -2.672,-2.671l-75.367,0Z" style="fill:#2f4858;"/></g></g><g><g id="paper"><path d="M258.427,38.455c0,-1.054 -0.856,-1.911 -1.911,-1.911c-1.054,0 -1.91,0.857 -1.91,1.911l0,51.989c0,1.055 0.856,1.911 1.91,1.911c1.055,0 1.911,-0.856 1.911,-1.911l0,-51.989Z" style="fill:#2f4858;"/><path d="M258.427,99.081c0,-1.054 -0.856,-1.911 -1.911,-1.911c-1.054,0 -1.91,0.857 -1.91,1.911l0,38.67c0,1.054 0.856,1.911 1.91,1.911c1.055,0 1.911,-0.857 1.911,-1.911l0,-38.67Z" style="fill:#2f4858;"/><path d="M258.427,145.239c0,-1.055 -0.856,-1.911 -1.911,-1.911c-1.054,0 -1.91,0.856 -1.91,1.911l0,113.101c0,1.055 0.856,1.911 1.91,1.911c1.055,0 1.911,-0.856 1.911,-1.911l0,-113.101Z" style="fill:#2f4858;"/><path d="M256.516,256.68c-1.054,0 -1.91,0.857 -1.91,1.911c0,1.055 0.856,1.911 1.91,1.911l78.777,0c1.054,0 1.91,-0.856 1.91,-1.911c0,-1.054 -0.856,-1.911 -1.91,-1.911l-78.777,0Z" style="fill:#2f4858;"/><path d="M256.516,36.57c-1.054,0 -1.91,0.857 -1.91,1.911c0,1.055 0.856,1.911 1.91,1.911l62.232,0c1.055,0 1.911,-0.856 1.911,-1.911c0,-1.054 -0.856,-1.911 -1.911,-1.911l-62.232,0Z" style="fill:#2f4858;"/><path d="M320.313,37.089c-0.764,-0.727 -1.975,-0.697 -2.702,0.066c-0.727,0.764 -0.698,1.975 0.066,2.702l16.358,15.573c0.763,0.728 1.974,0.698 2.701,-0.066c0.728,-0.764 0.698,-1.975 -0.066,-2.702l-16.357,-15.573Z" style="fill:#2f4858;"/><path d="M317.803,52.628c-1.054,0 -1.91,0.856 -1.91,1.911c0,1.054 0.856,1.911 1.91,1.911l17.561,0c1.054,0 1.911,-0.857 1.911,-1.911c0,-1.055 -0.857,-1.911 -1.911,-1.911l-17.561,0Z" style="fill:#2f4858;"/><path d="M319.557,40.392c0,-1.054 -0.857,-1.911 -1.911,-1.911c-1.055,0 -1.911,0.857 -1.911,1.911l0,14.147c0,1.054 0.856,1.911 1.911,1.911c1.054,0 1.911,-0.857 1.911,-1.911l0,-14.147Z" style="fill:#2f4858;"/><path d="M337.275,54.121c0,-1.055 -0.857,-1.911 -1.911,-1.911c-1.055,0 -1.911,0.856 -1.911,1.911l0,204.219c0,1.055 0.856,1.911 1.911,1.911c1.054,0 1.911,-0.856 1.911,-1.911l0,-204.219Z" style="fill:#2f4858;"/></g><g id="lines1" serif:id="lines"><g><path d="M309.434,63.945c-1.055,0 -1.911,0.857 -1.911,1.911c0,1.055 0.856,1.911 1.911,1.911l13.765,0c1.055,0 1.911,-0.856 1.911,-1.911c0,-1.054 -0.856,-1.911 -1.911,-1.911l-13.765,0Z" style="fill:#2f4858;"/><path d="M325.11,65.856c0,-1.054 -0.856,-1.911 -1.911,-1.911c-1.055,0 -1.911,0.857 -1.911,1.911l0,13.387c0,1.055 0.856,1.911 1.911,1.911c1.055,0 1.911,-0.856 1.911,-1.911l0,-13.387Z" style="fill:#2f4858;"/><path d="M311.345,65.856c0,-1.054 -0.857,-1.911 -1.911,-1.911c-1.055,0 -1.911,0.857 -1.911,1.911l0,13.387c0,1.055 0.856,1.911 1.911,1.911c1.054,0 1.911,-0.856 1.911,-1.911l0,-13.387Z" style="fill:#2f4858;"/><path d="M305.01,65.856c0,-1.054 -0.856,-1.911 -1.911,-1.911c-1.054,0 -1.911,0.857 -1.911,1.911l0,13.387c0,1.055 0.857,1.911 1.911,1.911c1.055,0 1.911,-0.856 1.911,-1.911l0,-13.387Z" style="fill:#2f4858;"/><path d="M271.203,65.856c0,-1.054 -0.856,-1.911 -1.911,-1.911c-1.054,0 -1.911,0.857 -1.911,1.911l0,13.387c0,1.055 0.857,1.911 1.911,1.911c1.055,0 1.911,-0.856 1.911,-1.911l0,-13.387Z" style="fill:#2f4858;"/><path d="M269.292,63.945c-1.054,0 -1.911,0.857 -1.911,1.911c0,1.055 0.857,1.911 1.911,1.911l33.807,0c1.055,0 1.911,-0.856 1.911,-1.911c0,-1.054 -0.856,-1.911 -1.911,-1.911l-33.807,0Z" style="fill:#2f4858;"/><path d="M309.434,77.333c-1.055,0 -1.911,0.856 -1.911,1.91c0,1.055 0.856,1.911 1.911,1.911l13.765,0c1.055,0 1.911,-0.856 1.911,-1.911c0,-1.054 -0.856,-1.91 -1.911,-1.91l-13.765,0Z" style="fill:#2f4858;"/><path d="M269.292,77.333c-1.054,0 -1.911,0.856 -1.911,1.91c0,1.055 0.857,1.911 1.911,1.911l33.807,0c1.055,0 1.911,-0.856 1.911,-1.911c0,-1.054 -0.856,-1.91 -1.911,-1.91l-33.807,0Z" style="fill:#2f4858;"/></g><g><path d="M283.058,117.309c1.054,0 1.911,0.856 1.911,1.911c0,1.054 -0.857,1.911 -1.911,1.911l-13.766,0c-1.054,0 -1.911,-0.857 -1.911,-1.911c0,-1.055 0.857,-1.911 1.911,-1.911l13.766,0Z" style="fill:#2f4858;"/><path d="M267.381,119.22c0,-1.055 0.857,-1.911 1.911,-1.911c1.055,0 1.911,0.856 1.911,1.911l0,13.387c0,1.054 -0.856,1.911 -1.911,1.911c-1.054,0 -1.911,-0.857 -1.911,-1.911l0,-13.387Z" style="fill:#2f4858;"/><path d="M281.147,119.22c0,-1.055 0.856,-1.911 1.911,-1.911c1.054,0 1.911,0.856 1.911,1.911l0,13.387c0,1.054 -0.857,1.911 -1.911,1.911c-1.055,0 -1.911,-0.857 -1.911,-1.911l0,-13.387Z" style="fill:#2f4858;"/><path d="M287.481,119.22c0,-1.055 0.856,-1.911 1.911,-1.911c1.055,0 1.911,0.856 1.911,1.911l0,13.387c0,1.054 -0.856,1.911 -1.911,1.911c-1.055,0 -1.911,-0.857 -1.911,-1.911l0,-13.387Z" style="fill:#2f4858;"/><path d="M321.288,119.22c0,-1.055 0.856,-1.911 1.911,-1.911c1.055,0 1.911,0.856 1.911,1.911l0,13.387c0,1.054 -0.856,1.911 -1.911,1.911c-1.055,0 -1.911,-0.857 -1.911,-1.911l0,-13.387Z" style="fill:#2f4858;"/><path d="M323.199,117.309c1.055,0 1.911,0.856 1.911,1.911c0,1.054 -0.856,1.911 -1.911,1.911l-33.807,0c-1.055,0 -1.911,-0.857 -1.911,-1.911c0,-1.055 0.856,-1.911 1.911,-1.911l33.807,0Z" style="fill:#2f4858;"/><path d="M283.058,130.696c1.054,0 1.911,0.856 1.911,1.911c0,1.054 -0.857,1.911 -1.911,1.911l-13.766,0c-1.054,0 -1.911,-0.857 -1.911,-1.911c0,-1.055 0.857,-1.911 1.911,-1.911l13.766,0Z" style="fill:#2f4858;"/><path d="M323.199,130.696c1.055,0 1.911,0.856 1.911,1.911c0,1.054 -0.856,1.911 -1.911,1.911l-33.807,0c-1.055,0 -1.911,-0.857 -1.911,-1.911c0,-1.055 0.856,-1.911 1.911,-1.911l33.807,0Z" style="fill:#2f4858;"/></g><g><path d="M309.434,143.951c-1.055,0 -1.911,0.857 -1.911,1.911c0,1.055 0.856,1.911 1.911,1.911l13.765,0c1.055,0 1.911,-0.856 1.911,-1.911c0,-1.054 -0.856,-1.911 -1.911,-1.911l-13.765,0Z" style="fill:#2f4858;"/><path d="M325.11,145.862c0,-1.054 -0.856,-1.911 -1.911,-1.911c-1.055,0 -1.911,0.857 -1.911,1.911l0,26.708c0,1.055 0.856,1.911 1.911,1.911c1.055,0 1.911,-0.856 1.911,-1.911l0,-26.708Z" style="fill:#2f4858;"/><path d="M325.11,186.062c0,-1.055 -0.856,-1.911 -1.911,-1.911c-1.055,0 -1.911,0.856 -1.911,1.911l0,26.472c0,1.055 0.856,1.911 1.911,1.911c1.055,0 1.911,-0.856 1.911,-1.911l0,-26.472Z" style="fill:#2f4858;"/><path d="M271.203,186.062c0,-1.055 -0.856,-1.911 -1.911,-1.911c-1.054,0 -1.911,0.856 -1.911,1.911l0,26.472c0,1.055 0.857,1.911 1.911,1.911c1.055,0 1.911,-0.856 1.911,-1.911l0,-26.472Z" style="fill:#2f4858;"/><path d="M311.345,145.862c0,-1.054 -0.857,-1.911 -1.911,-1.911c-1.055,0 -1.911,0.857 -1.911,1.911l0,26.708c0,1.055 0.856,1.911 1.911,1.911c1.054,0 1.911,-0.856 1.911,-1.911l0,-26.708Z" style="fill:#2f4858;"/><path d="M305.01,145.862c0,-1.054 -0.856,-1.911 -1.911,-1.911c-1.054,0 -1.911,0.857 -1.911,1.911l0,13.387c0,1.055 0.857,1.911 1.911,1.911c1.055,0 1.911,-0.856 1.911,-1.911l0,-13.387Z" style="fill:#2f4858;"/><path d="M271.203,145.862c0,-1.054 -0.856,-1.911 -1.911,-1.911c-1.054,0 -1.911,0.857 -1.911,1.911l0,13.387c0,1.055 0.857,1.911 1.911,1.911c1.055,0 1.911,-0.856 1.911,-1.911l0,-13.387Z" style="fill:#2f4858;"/><path d="M269.292,143.951c-1.054,0 -1.911,0.857 -1.911,1.911c0,1.055 0.857,1.911 1.911,1.911l33.807,0c1.055,0 1.911,-0.856 1.911,-1.911c0,-1.054 -0.856,-1.911 -1.911,-1.911l-33.807,0Z" style="fill:#2f4858;"/><path d="M309.434,170.66c-1.055,0 -1.911,0.856 -1.911,1.91c0,1.055 0.856,1.911 1.911,1.911l13.765,0c1.055,0 1.911,-0.856 1.911,-1.911c0,-1.054 -0.856,-1.91 -1.911,-1.91l-13.765,0Z" style="fill:#2f4858;"/><path d="M269.292,157.338c-1.054,0 -1.911,0.856 -1.911,1.911c0,1.055 0.857,1.911 1.911,1.911l33.807,0c1.055,0 1.911,-0.856 1.911,-1.911c0,-1.055 -0.856,-1.911 -1.911,-1.911l-33.807,0Z" style="fill:#2f4858;"/></g><path d="M325.11,92.631c0,-1.055 -0.856,-1.912 -1.911,-1.912c-1.055,0 -1.911,0.857 -1.911,1.912l0,13.386c0,1.055 0.856,1.911 1.911,1.911c1.055,0 1.911,-0.856 1.911,-1.911l0,-13.386Z" style="fill:#2f4858;"/><path d="M325.11,226.043c0,-1.054 -0.856,-1.911 -1.911,-1.911c-1.055,0 -1.911,0.857 -1.911,1.911l0,13.387c0,1.055 0.856,1.911 1.911,1.911c1.055,0 1.911,-0.856 1.911,-1.911l0,-13.387Z" style="fill:#2f4858;"/><path d="M271.286,92.631c0,-1.055 -0.856,-1.912 -1.91,-1.912c-1.055,0 -1.911,0.857 -1.911,1.912l0,13.386c0,1.055 0.856,1.911 1.911,1.911c1.054,0 1.91,-0.856 1.91,-1.911l0,-13.386Z" style="fill:#2f4858;"/><path d="M271.286,226.043c0,-1.054 -0.856,-1.911 -1.91,-1.911c-1.055,0 -1.911,0.857 -1.911,1.911l0,13.387c0,1.055 0.856,1.911 1.911,1.911c1.054,0 1.91,-0.856 1.91,-1.911l0,-13.387Z" style="fill:#2f4858;"/><path d="M269.292,90.719c-1.054,0 -1.911,0.857 -1.911,1.912c0,1.054 0.857,1.91 1.911,1.91l53.907,0c1.055,0 1.911,-0.856 1.911,-1.91c0,-1.055 -0.856,-1.912 -1.911,-1.912l-53.907,0Z" style="fill:#2f4858;"/><path d="M269.292,104.053c-1.054,0 -1.911,0.857 -1.911,1.911c0,1.055 0.857,1.911 1.911,1.911l53.907,0c1.055,0 1.911,-0.856 1.911,-1.911c0,-1.054 -0.856,-1.911 -1.911,-1.911l-53.907,0Z" style="fill:#2f4858;"/><path d="M269.793,183.981c-1.055,0 -1.911,0.856 -1.911,1.911c0,1.054 0.856,1.911 1.911,1.911l53.406,0c1.055,0 1.911,-0.857 1.911,-1.911c0,-1.055 -0.856,-1.911 -1.911,-1.911l-53.406,0Z" style="fill:#2f4858;"/><path d="M269.96,210.623c-1.055,0 -1.911,0.856 -1.911,1.911c0,1.055 0.856,1.911 1.911,1.911l53.239,0c1.055,0 1.911,-0.856 1.911,-1.911c0,-1.055 -0.856,-1.911 -1.911,-1.911l-53.239,0Z" style="fill:#2f4858;"/><path d="M270.043,223.944c-1.054,0 -1.911,0.857 -1.911,1.911c0,1.055 0.857,1.911 1.911,1.911l53.156,0c1.055,0 1.911,-0.856 1.911,-1.911c0,-1.054 -0.856,-1.911 -1.911,-1.911l-53.156,0Z" style="fill:#2f4858;"/><path d="M270.127,237.519c-1.055,0 -1.911,0.857 -1.911,1.911c0,1.055 0.856,1.911 1.911,1.911l53.072,0c1.055,0 1.911,-0.856 1.911,-1.911c0,-1.054 -0.856,-1.911 -1.911,-1.911l-53.072,0Z" style="fill:#2f4858;"/></g></g><path d="M426.365,195.454c1.425,0 2.823,-0.557 3.876,-1.608l13.424,-13.395c1.557,-1.555 2.416,-3.623 2.416,-5.823c0,-2.201 -0.859,-4.269 -2.416,-5.824l-13.424,-13.395c-1.578,-1.575 -3.928,-2.04 -5.988,-1.186c-2.057,0.853 -3.386,2.842 -3.386,5.067l0,12.596c-21.762,0 -39.466,-17.704 -39.466,-39.466l0,-4.384c0,-1.514 -1.227,-2.741 -2.741,-2.741c-1.514,0 -2.741,1.227 -2.741,2.741l0,4.384c0,12.006 4.676,23.294 13.165,31.783c8.49,8.49 19.777,13.165 31.783,13.165c3.023,0 5.482,-2.459 5.482,-5.481l0,-12.597l0,-0.002c0.004,-0.002 0.009,-0.004 0.014,-0.005c0.002,0.002 0.004,0.003 0.006,0.005l13.424,13.397c0.52,0.518 0.806,1.208 0.806,1.943c0,0.734 -0.286,1.424 -0.806,1.943l-13.424,13.395l-0.006,0.006c-0.005,-0.001 -0.01,-0.003 -0.014,-0.005l0,-0.002l0,-3.004c0,-1.514 -1.228,-2.741 -2.741,-2.741c-1.514,0 -2.741,1.227 -2.741,2.741l0,3.004c0,2.224 1.329,4.213 3.386,5.067c0.685,0.284 1.402,0.422 2.112,0.422Z" style="fill:#2f4858;fill-rule:nonzero;"/><path d="M489.031,37.954l-133.623,43.153l6.473,29.114l133.623,-43.154l-6.473,-29.113Z" style="fill:#fd8b7c;"/><path d="M196.193,227.733l-133.623,43.154l6.472,29.113l133.623,-43.154l-6.472,-29.113Z" style="fill:#fd8b7c;"/><path d="M439.054,499.716l-133.623,43.154l6.472,29.113l133.623,-43.153l-6.472,-29.114Z" style="fill:#fd8b7c;"/><text x="363.397px" y="84.046px" style="font-family:'JosefinSans-BoldItalic', 'Josefin Sans';font-weight:700;font-style:italic;font-size:28.13px;fill:#2f4858;">DIVIDE</text><text x="292.847px" y="546.104px" style="font-family:'JosefinSans-BoldItalic', 'Josefin Sans';font-weight:700;font-style:italic;font-size:28.13px;fill:#2f4858;">PUBLISH</text><text x="29.019px" y="274.64px" style="font-family:'JosefinSans-BoldItalic', 'Josefin Sans';font-weight:700;font-style:italic;font-size:28.13px;fill:#2f4858;">OPTIMIZE</text></svg>