<svg xmlns="http://www.w3.org/2000/svg" width="100" height="100" viewBox="0 0 40 40" stroke-linejoin="round"><style>.a{fill:#F5BF3D;}</style><path d="M29.2 40.2l-25 0c-2.4 0-4.3-1.9-4.3-4.3l0-9.3c0-0.6 0.4-1 1-1 0.6 0 1 0.4 1 1l0 9.3c0 1.3 1 2.3 2.3 2.3l25 0c0.6 0 1 0.4 1 1 0 0.6-0.4 1-1 1Z" class="a"/><path d="M35.6 40.2c-0.6 0-1-0.4-1-1 0-0.6 0.4-1 1-1 1.3 0 2.3-1 2.3-2.3l0-9.3c0-0.6 0.4-1 1-1 0.6 0 1 0.4 1 1l0 9.3c0 2.4-1.9 4.3-4.3 4.3Z" class="a"/><path d="M26.4 32.2l-13 0c-0.6 0-1-0.4-1-1 0-0.6 0.4-1 1-1l13 0c0.6 0 1 0.4 1 1 0 0.6-0.5 1-1 1Z" class="a"/><path d="M28.1 17.1l-6.2 9c-0.5 0.7-1.2 1.1-2 1.1 -0.8 0-1.5-0.4-2-1.1l-6.2-9c-0.3-0.4-0.2-1.1 0.3-1.4 0.5-0.3 1.1-0.2 1.4 0.3l5.5 8.1 0-23.1c0-0.6 0.5-1 1-1 0.5 0 1 0.4 1 1l0 23.1 5.5-8.1c0.3-0.5 0.9-0.6 1.4-0.3 0.5 0.3 0.6 1 0.3 1.4Z" class="a"/></svg>