<svg xmlns="http://www.w3.org/2000/svg" width="100" height="100" viewBox="0 0 100 100" stroke-linejoin="round"><style>.a{fill:#c28c0a;}</style><path d="M50 100c-27.5 0-50-22.5-50-50 0-27.5 22.5-50 50-50 11.3 0 21.8 3.8 30.8 10.5 1 0.8 1.3 2.5 0.5 3.5 -0.7 1-2.5 1.3-3.5 0.5 -8-6.2-17.7-9.5-27.7-9.5 -24.7 0-45 20.3-45 45 0 24.8 20.3 45 45 45 24.8 0 45-20.2 45-45 0-8-2.2-16-6.2-23 -0.7-1.2-0.2-2.7 0.8-3.5 1.3-0.7 2.8-0.2 3.5 0.8 4.5 8 7 16.8 7 25.8 0 27.5-22.5 50-50 50Z" class="a"/><rect x="45" y="28.8" width="10" height="27.5" class="a"/><rect x="45" y="66.3" width="10" height="10" class="a"/></svg>