<?xml version="1.0" encoding="UTF-8" standalone="no"?>
<!DOCTYPE svg PUBLIC "-//W3C//DTD SVG 1.1//EN" "http://www.w3.org/Graphics/SVG/1.1/DTD/svg11.dtd">
<svg width="100%" height="100%" viewBox="0 0 30 30" version="1.1" xmlns="http://www.w3.org/2000/svg" xmlns:xlink="http://www.w3.org/1999/xlink" xml:space="preserve" xmlns:serif="http://www.serif.com/" style="fill-rule:evenodd;clip-rule:evenodd;stroke-linecap:round;stroke-miterlimit:1.5;">
    <g transform="matrix(1,0,0,1,-14046,-13)">
        <g id="input-checkbox" transform="matrix(0.909091,0,0,0.833333,1469.64,2.16667)">
            <rect x="13834" y="13" width="33" height="36" style="fill:none;"/>
            <clipPath id="_clip1">
                <rect x="13834" y="13" width="33" height="36"/>
            </clipPath>
            <g clip-path="url(#_clip1)">
                <g transform="matrix(0.54,0,0,0.611321,12431.1,-1580.14)">
                    <path d="M2656,2614.3C2656,2611.38 2653.54,2609 2650.5,2609L2606.5,2609C2603.46,2609 2601,2611.38 2601,2614.3L2601,2656.7C2601,2659.62 2603.46,2662 2606.5,2662L2650.5,2662C2653.54,2662 2656,2659.62 2656,2656.7L2656,2614.3Z" style="fill:none;stroke:rgb(193,184,167);stroke-width:8px;"/>
                </g>
            </g>
        </g>
    </g>
</svg>
