<?xml version="1.0" encoding="UTF-8" standalone="no"?>
<!DOCTYPE svg PUBLIC "-//W3C//DTD SVG 1.1//EN" "http://www.w3.org/Graphics/SVG/1.1/DTD/svg11.dtd">
<svg width="100%" height="100%" viewBox="0 0 42 42" version="1.1" xmlns="http://www.w3.org/2000/svg" xmlns:xlink="http://www.w3.org/1999/xlink" xml:space="preserve" xmlns:serif="http://www.serif.com/" style="fill-rule:evenodd;clip-rule:evenodd;stroke-linejoin:round;stroke-miterlimit:2;">
    <g transform="matrix(1,0,0,1,-14192.8,-11)">
        <g id="webtoon" transform="matrix(1.27273,0,0,1.16667,-3414.11,-4.16667)">
            <rect x="13834" y="13" width="33" height="36" style="fill:none;"/>
            <g id="icon-webtoon.svg" transform="matrix(0.752976,0,0,0.821429,13850.5,31)">
                <g transform="matrix(1,0,0,1,-24,-24)">
                    <path d="M25,38L9,41L3,21L9,21L6,10L41,4L39,21L45,21L43,36L25,44L25,38Z" style="fill:rgb(0,230,118);fill-rule:nonzero;"/>
                    <path d="M12.1,16.2L13.7,22.5L15.8,22.5L16.8,19.1L17.8,22.5L20,22.5L22,15.5L20,15.6L18.9,19.9L17.9,15.8L16.1,15.9L15.1,19.9L14.2,16.1L12.1,16.2ZM22.4,15.4L22.4,22.7L27.8,23L27.8,21L24.4,20.9L24.4,20L27.4,20L27.4,17.9L24.4,18L24.4,17.1L27.8,16.9L27.8,15L22.4,15.4ZM33.6,18.9C34.1,18.9 34.5,18.7 34.9,18.3C35.2,18 35.5,17.5 35.5,16.9C35.5,15.6 34.5,14.6 33.2,14.6L33,14.6L28.7,15L28.7,22.9L33.7,22.9C35.8,21.9 35.8,20.2 35,19.4C34.6,19.1 34.1,18.9 33.6,18.9ZM30.8,16.7L32.2,16.6C32.5,16.6 32.8,16.9 32.8,17.2C32.8,17.6 32.5,17.8 32.2,17.8L30.8,17.8L30.8,16.7ZM32.4,21.2L30.7,21.2L30.7,20L32.3,19.9C32.6,19.9 32.9,20.2 32.9,20.5C33.1,20.9 32.8,21.2 32.4,21.2ZM9.2,24.1L9.2,26.2L11.7,26.2L11.7,32.6L14.1,32.5L14.1,26.4L16.3,26.4L16.3,24.3L9.2,24.1ZM33.1,31.4L33.1,24.6L35.1,24.6L37.3,28L37.3,24.7L39.4,24.7L39.2,31.1L37.5,31.2L35.3,28L35.3,31.3L33.1,31.4ZM28.9,24.4C26.9,24.4 25.3,26.1 25.3,28.1C25.3,30.2 26.9,31.8 28.9,31.8C30.9,31.8 32.5,30.1 32.5,28.1C32.5,26 30.9,24.4 28.9,24.4ZM28.9,29.9C28,29.9 27.3,29.1 27.3,28.1C27.3,27.1 28,26.3 28.9,26.3C29.8,26.3 30.5,27.1 30.5,28.1C30.5,29.1 29.8,29.9 28.9,29.9ZM20.6,24.2C18.3,24.2 16.5,26 16.5,28.3C16.5,30.5 18.3,32.4 20.6,32.4C22.9,32.4 24.7,30.6 24.7,28.3C24.7,26 22.8,24.2 20.6,24.2ZM20.7,30.2C19.7,30.2 19,29.3 19,28.2C19,27.1 19.8,26.3 20.8,26.3C21.8,26.3 22.6,27.2 22.6,28.2C22.4,29.3 21.6,30.2 20.7,30.2Z" style="fill:rgb(250,250,250);fill-rule:nonzero;"/>
                </g>
            </g>
        </g>
    </g>
</svg>
