<?xml version="1.0" encoding="UTF-8" standalone="no"?>
<!DOCTYPE svg PUBLIC "-//W3C//DTD SVG 1.1//EN" "http://www.w3.org/Graphics/SVG/1.1/DTD/svg11.dtd">
<svg width="100%" height="100%" viewBox="0 0 38 38" version="1.1" xmlns="http://www.w3.org/2000/svg" xmlns:xlink="http://www.w3.org/1999/xlink" xml:space="preserve" xmlns:serif="http://www.serif.com/" style="fill-rule:evenodd;clip-rule:evenodd;stroke-linecap:round;">
    <g transform="matrix(1,0,0,1,-13988,-13)">
        <g id="danger" transform="matrix(1.15152,0,0,1.05556,-1942.06,-0.722222)">
            <rect x="13834" y="13" width="33" height="36" style="fill:none;"/>
            <clipPath id="_clip1">
                <rect x="13834" y="13" width="33" height="36"/>
            </clipPath>
            <g clip-path="url(#_clip1)">
                <g id="Close-Button" serif:id="Close Button" transform="matrix(2.03077,0,0,0.865385,12525.5,-2679.3)">
                    <g transform="matrix(0.408882,0,0,1.06667,-1263.31,-960.892)">
                        <ellipse cx="4685.34" cy="3837" rx="18.343" ry="18" style="fill:rgb(253,116,106);"/>
                    </g>
                    <g id="close-02-neutral.svg" transform="matrix(0.021875,0,0,0.056,652.44,3131.91)">
                        <clipPath id="_clip2">
                            <rect x="-371.429" y="-371.429" width="742.857" height="742.857"/>
                        </clipPath>
                        <g clip-path="url(#_clip2)">
                            <g transform="matrix(1,0,0,1,-400,-400)">
                                <clipPath id="_clip3">
                                    <rect x="0" y="0" width="800" height="800"/>
                                </clipPath>
                                <g clip-path="url(#_clip3)">
                                    <path d="M483.333,316.667L316.667,483.333M316.666,316.667L483.333,483.333" style="fill:none;fill-rule:nonzero;stroke:rgb(255,250,231);stroke-width:50px;"/>
                                    <path d="M233.333,111.261C282.362,82.899 339.287,66.667 400,66.667C584.093,66.667 733.333,215.905 733.333,400C733.333,584.093 584.093,733.333 400,733.333C215.905,733.333 66.667,584.093 66.667,400C66.667,339.287 82.899,282.362 111.261,233.333" style="fill:none;fill-rule:nonzero;stroke:rgb(51,46,40);stroke-width:50px;"/>
                                </g>
                            </g>
                        </g>
                    </g>
                </g>
            </g>
        </g>
    </g>
</svg>
